{
DisplayStrings = (
"/pa-deva/pa-deva/na-deva/pa-deva/pa-deva/n_na-deva/pa-deva/pa-deva"
);
classes = (
{
automatic = 1;
code = "iMatra-deva";
name = DevaIMatras;
},
{
automatic = 1;
code = "iMatra_reph-deva";
name = DevaIMatraRephs;
},
{
automatic = 1;
code = "iMatra_reph_anusvara-deva";
name = DevaIMatraRephAnusvaras;
},
{
automatic = 1;
code = "ka-deva kha-deva ga-deva gha-deva nga-deva ca-deva cha-deva ja-deva jha-deva nya-deva tta-deva ttha-deva dda-deva ddha-deva nna-deva ta-deva tha-deva da-deva dha-deva na-deva nnna-deva pa-deva pha-deva ba-deva bha-deva ma-deva ya-deva ra-deva rra-deva la-deva lla-deva llla-deva va-deva sha-deva ssa-deva sa-deva ha-deva qa-deva khha-deva ghha-deva za-deva dddha-deva rha-deva fa-deva yya-deva gga-deva jja-deva ddda-deva bba-deva jha-deva.NEP zha-deva.NEP";
name = DevaFullforms;
},
{
automatic = 1;
code = "k-deva k_ss-deva kh-deva g-deva gh-deva ng-deva ng_k-deva c-deva ch-deva j-deva j_j-deva jh-deva ny-deva tt-deva tth-deva dd-deva ddh-deva nn-deva t-deva t_t-deva t_r-deva th-deva d-deva dh-deva n-deva nnn-deva p-deva ph-deva b-deva bh-deva m-deva y-deva rr-deva l-deva ll-deva lll-deva v-deva sh-deva sh_r-deva ss-deva s-deva h-deva q-deva khh-deva ghh-deva z-deva f-deva jh-deva.NEP";
name = DevaHalfforms;
}
);
copyright = "Copyright \U00A9 2014 by Dan Reynolds. All rights reserved.";
customParameters = (
{
name = license;
value = "This Font Software is licensed under the SIL Open Font License\012Version 1.1. This license is available with a FAQ at: http://scripts.sil.org/OFL";
},
{
name = licenseURL;
value = "http://scripts.sil.org/OFL";
},
{
name = vendorID;
value = toff;
}
);
date = "2014-06-27 07:47:25 +0000";
designer = "Dan Reynolds";
designerURL = "http://www.typeoff.de";
familyName = "Martel Devanagari";
featurePrefixes = (
{
automatic = 1;

glyphs = (
{
glyphname = "ka-deva";
lastChange = "2014-07-17 13:55:23 +0100";
layers = (
{
anchors = (
{
name = _nukta;
position = "{232, 120}";
},
{
name = bottom;
position = "{445, 0}";
},
{
name = top;
position = "{445, 650}";
}
);
background = {
paths = (
{
closed = 1;
nodes = (
"260 650 LINE",
"260 634 LINE",
"291 575 LINE",
"400 575 LINE",
"400 -1 LINE",
"473 -42 LINE",
"489 -42 LINE",
"489 575 LINE",
"598 575 LINE",
"598 590 LINE",
"566 650 LINE"
);
}
);
};
layerId = "39185045-6A8C-415A-8312-7B8F11386A4C";
name = Regular;
paths = (
{
closed = 1;
nodes = (
"-31 650 LINE",
"-31 634 LINE",
"0 575 LINE",
"401 575 LINE",
"401 188 LINE",
"403 187 LINE",
"399 0 LINE",
"473 -42 LINE",
"489 -42 LINE",
"489 575 LINE",
"851 575 LINE",
"851 590 LINE",
"820 650 LINE"
);
},
{
closed = 1;
nodes = (
"114 464 OFFCURVE",
"54 378 OFFCURVE",
"54 293 CURVE SMOOTH",
"54 178 OFFCURVE",
"134 111 OFFCURVE",
"233 111 CURVE SMOOTH",
"316 111 OFFCURVE",
"365 157 OFFCURVE",
"423 206 CURVE SMOOTH",
"471 249 LINE",
"527 303 OFFCURVE",
"592 360 OFFCURVE",
"658 360 CURVE SMOOTH",
"709 360 OFFCURVE",
"749 318 OFFCURVE",
"749 262 CURVE SMOOTH",
"749 203 OFFCURVE",
"692 128 OFFCURVE",
"665 98 CURVE",
"733 26 LINE",
"766 76 OFFCURVE",
"799 181 OFFCURVE",
"799 237 CURVE SMOOTH",
"799 352 OFFCURVE",
"746 434 OFFCURVE",
"632 434 CURVE SMOOTH",
"571 434 OFFCURVE",
"507 385 OFFCURVE",
"464 340 CURVE SMOOTH",
"423 305 LINE",
"377 253 OFFCURVE",
"294 188 OFFCURVE",
"199 188 CURVE SMOOTH",
"155 188 OFFCURVE",
"102 217 OFFCURVE",
"102 269 CURVE SMOOTH",
"102 342 OFFCURVE",
"181 374 OFFCURVE",
"243 374 CURVE SMOOTH",
"312 374 OFFCURVE",
"382 319 OFFCURVE",
"408 276 CURVE",
"414 315 LINE",
"375 383 OFFCURVE",
"321 464 OFFCURVE",
"210 464 CURVE SMOOTH"
);
}
);
width = 851;
},
{
anchors = (
{
name = bottom;
position = "{427, 0}";
},
{
name = top;
position = "{428, 634}";
}
);
background = {
paths = (
{
closed = 1;
nodes = (
"-47 650 LINE",
"-47 634 LINE",
"-16 575 LINE",
"385 575 LINE",
"385 185 LINE",
"387 184 LINE",
"383 0 LINE",
"457 -42 LINE",
"473 -42 LINE",
"473 575 LINE",
"835 575 LINE",
"835 590 LINE",
"804 650 LINE"
);
},
{
closed = 1;
nodes = (
"98 464 OFFCURVE",
"38 378 OFFCURVE",
"38 293 CURVE SMOOTH",
"38 178 OFFCURVE",
"118 111 OFFCURVE",
"217 111 CURVE SMOOTH",
"300 111 OFFCURVE",
"349 157 OFFCURVE",
"407 206 CURVE SMOOTH",
"455 249 LINE",
"511 303 OFFCURVE",
"576 360 OFFCURVE",
"642 360 CURVE SMOOTH",
"693 360 OFFCURVE",
"733 318 OFFCURVE",
"733 262 CURVE SMOOTH",
"733 203 OFFCURVE",
"676 128 OFFCURVE",
"649 98 CURVE",
"717 26 LINE",
"750 76 OFFCURVE",
"783 181 OFFCURVE",
"783 237 CURVE SMOOTH",
"783 352 OFFCURVE",
"730 434 OFFCURVE",
"616 434 CURVE SMOOTH",
"555 434 OFFCURVE",
"491 385 OFFCURVE",
"448 340 CURVE SMOOTH",
"407 305 LINE",
"361 253 OFFCURVE",
"278 188 OFFCURVE",
"183 188 CURVE SMOOTH",
"139 188 OFFCURVE",
"86 217 OFFCURVE",
"86 269 CURVE SMOOTH",
"86 342 OFFCURVE",
"165 374 OFFCURVE",
"227 374 CURVE SMOOTH",
"296 374 OFFCURVE",
"366 319 OFFCURVE",
"392 276 CURVE",
"398 315 LINE",
"359 383 OFFCURVE",
"305 464 OFFCURVE",
"194 464 CURVE SMOOTH"
);
}
);
};
layerId = "E777F328-EA17-4AE7-9EBA-8002E537BA4F";
name = Light;
paths = (
{
closed = 1;
nodes = (
"-29 634 LINE",
"-29 624 LINE",
"-12 590 LINE",
"402 590 LINE",
"401 221 LINE",
"404 219 LINE",
"399 13 LINE",
"443 -11 LINE",
"455 -11 LINE",
"455 590 LINE",
"818 590 LINE",
"818 601 LINE",
"798 634 LINE"
);
},
{
closed = 1;
nodes = (
"117 443 OFFCURVE",
"56 373 OFFCURVE",
"56 292 CURVE",
"56 183 OFFCURVE",
"135 131 OFFCURVE",
"218 131 CURVE",
"313 131 OFFCURVE",
"368 193 OFFCURVE",
"418 232 CURVE SMOOTH",
"447 259 LINE SMOOTH",
"516 330 OFFCURVE",
"571 369 OFFCURVE",
"625 369 CURVE",
"673 369 OFFCURVE",
"717 325 OFFCURVE",
"717 264 CURVE",
"717 193 OFFCURVE",
"664 122 OFFCURVE",
"643 99 CURVE SMOOTH",
"686 55 LINE SMOOTH",
"712 93 OFFCURVE",
"762 171 OFFCURVE",
"762 238 CURVE",
"762 348 OFFCURVE",
"697 419 OFFCURVE",
"609 419 CURVE",
"548 419 OFFCURVE",
"479 361 OFFCURVE",
"441 320 CURVE",
"413 294 LINE",
"355 238 OFFCURVE",
"282 181 OFFCURVE",
"198 181 CURVE",
"143 181 OFFCURVE",
"101 217 OFFCURVE",
"101 271 CURVE",
"101 344 OFFCURVE",
"164 392 OFFCURVE",
"231 393 CURVE",
"298 394 OFFCURVE",
"365 337 OFFCURVE",
"408 275 CURVE",
"407 340 LINE",
"371 381 OFFCURVE",
"297 443 OFFCURVE",
"211 443 CURVE"
);
}
);
width = 818;
},
{
layerId = "B26750D4-52C5-4F85-819B-BFB2F142DAD5";
name = Bold;
paths = (
{
closed = 1;
nodes = (
"-54 669 LINE",
"-54 647 LINE",
"-7 556 LINE",
"389 556 LINE",
"388 163 LINE",
"398 159 LINE",
"385 29 LINE",
"503 -37 LINE",
"525 -37 LINE",
"525 556 LINE",
"875 556 LINE",
"875 577 LINE",
"826 669 LINE"
);
},
{
closed = 1;
nodes = (
"94 479 OFFCURVE",
"45 387 OFFCURVE",
"45 297 CURVE SMOOTH",
"45 169 OFFCURVE",
"136 99 OFFCURVE",
"237 99 CURVE SMOOTH",
"323 99 OFFCURVE",
"382 153 OFFCURVE",
"439 192 CURVE",
"490 232 LINE",
"549 287 OFFCURVE",
"625 346 OFFCURVE",
"693 346 CURVE SMOOTH",
"730 346 OFFCURVE",
"751 333 OFFCURVE",
"751 308 CURVE SMOOTH",
"751 272 OFFCURVE",
"700 167 OFFCURVE",
"662 111 CURVE",
"787 42 LINE",
"823 132 OFFCURVE",
"834 199 OFFCURVE",
"834 252 CURVE SMOOTH",
"834 352 OFFCURVE",
"738 445 OFFCURVE",
"641 445 CURVE SMOOTH",
"588 445 OFFCURVE",
"526 404 OFFCURVE",
"486 365 CURVE",
"428 316 LINE SMOOTH",
"363 260 OFFCURVE",
"285 211 OFFCURVE",
"200 211 CURVE SMOOTH",
"139 211 OFFCURVE",
"93 240 OFFCURVE",
"93 273 CURVE SMOOTH",
"93 329 OFFCURVE",
"180 358 OFFCURVE",
"238 358 CURVE SMOOTH",
"303 358 OFFCURVE",
"366 317 OFFCURVE",
"389 289 CURVE",
"401 332 LINE",
"365 399 OFFCURVE",
"297 479 OFFCURVE",
"207 479 CURVE SMOOTH"
);
}
);
width = 875;
}
);
unicode = 0915;
},
{
glyphname = "kha-deva";
lastChange = "2014-07-17 11:45:42 +0100";
layers = (
{
anchors = (
{
name = _nukta;
position = "{194, 111}";
},
{
name = bottom;
position = "{707, 0}";
},
{
name = top;
position = "{707, 650}";
}
);
background = {
anchors = (
{
name = top;
position = "{637, 634}";
},
{
name = bottom;
position = "{637, 0}";
}
);
paths = (
{
closed = 1;
nodes = (
"-44 634 LINE",
"-44 624 LINE",
"-26 590 LINE",
"611 590 LINE",
"611 393 LINE",
"602 393 LINE",
"611 367 LINE",
"611 275 LINE",
"603 270 LINE",
"611 265 LINE",
"612 103 LINE",
"610 13 LINE",
"653 -11 LINE",
"665 -11 LINE",
"665 590 LINE",
"796 590 LINE",
"796 601 LINE",
"778 634 LINE"
);
},
{
closed = 1;
nodes = (
"356 482 OFFCURVE",
"290 421 OFFCURVE",
"290 328 CURVE SMOOTH",
"290 258 OFFCURVE",
"340 187 OFFCURVE",
"445 187 CURVE SMOOTH",
"510 187 OFFCURVE",
"571 236 OFFCURVE",
"615 274 CURVE",
"613 336 LINE",
"563 284 OFFCURVE",
"486 237 OFFCURVE",
"426 237 CURVE SMOOTH",
"363 237 OFFCURVE",
"336 271 OFFCURVE",
"336 308 CURVE SMOOTH",
"336 378 OFFCURVE",
"384 433 OFFCURVE",
"456 432 CURVE SMOOTH",
"518 431 OFFCURVE",
"579 383 OFFCURVE",
"620 323 CURVE",
"620 383 LINE",
"589 421 OFFCURVE",
"516 482 OFFCURVE",
"436 482 CURVE SMOOTH"
);
},
{
closed = 1;
nodes = (
"157 601 LINE",
"169 557 OFFCURVE",
"176 484 OFFCURVE",
"176 440 CURVE SMOOTH",
"176 399 OFFCURVE",
"167 366 OFFCURVE",
"144 330 CURVE",
"96 372 LINE",
"80 366 OFFCURVE",
"57 346 OFFCURVE",
"57 323 CURVE SMOOTH",
"57 286 OFFCURVE",
"72 250 OFFCURVE",
"122 193 CURVE SMOOTH",
"193 112 OFFCURVE",
"282 29 OFFCURVE",
"387 29 CURVE SMOOTH",
"479 29 OFFCURVE",
"573 70 OFFCURVE",
"622 99 CURVE",
"623 157 LINE",
"558 113 OFFCURVE",
"481 79 OFFCURVE",
"387 79 CURVE SMOOTH",
"274 79 OFFCURVE",
"171 188 OFFCURVE",
"133 236 CURVE",
"182 278 OFFCURVE",
"226 321 OFFCURVE",
"226 412 CURVE SMOOTH",
"226 450 OFFCURVE",
"220 535 OFFCURVE",
"207 601 CURVE"
);
},
{
closed = 1;
nodes = (
"-31 650 LINE",
"-31 634 LINE",
"0 575 LINE",
"663 575 LINE",
"663 425 LINE",
"644 425 LINE",
"662 394 LINE",
"664 287 LINE",
"645 257 LINE",
"665 257 LINE",
"665 84 LINE",
"661 0 LINE",
"735 -42 LINE",
"751 -42 LINE",
"751 575 LINE",
"861 575 LINE",
"861 590 LINE",
"829 650 LINE"
);
},
{
closed = 1;
nodes = (
"413 507 OFFCURVE",
"341 445 OFFCURVE",
"341 346 CURVE SMOOTH",
"341 249 OFFCURVE",
"426 180 OFFCURVE",
"513 180 CURVE SMOOTH",
"579 180 OFFCURVE",
"630 231 OFFCURVE",
"674 265 CURVE",
"672 378 LINE",
"630 313 OFFCURVE",
"549 251 OFFCURVE",
"482 251 CURVE SMOOTH",
"427 251 OFFCURVE",
"388 284 OFFCURVE",
"388 318 CURVE SMOOTH",
"388 376 OFFCURVE",
"454 427 OFFCURVE",
"533 427 CURVE SMOOTH",
"583 427 OFFCURVE",
"647 403 OFFCURVE",
"673 346 CURVE",
"671 414 LINE",
"641 449 OFFCURVE",
"586 507 OFFCURVE",
"505 507 CURVE SMOOTH"
);
},
{
closed = 1;
nodes = (
"178 585 LINE",
"185 545 OFFCURVE",
"189 482 OFFCURVE",
"189 450 CURVE SMOOTH",
"189 407 OFFCURVE",
"176 358 OFFCURVE",
"164 340 CURVE",
"109 382 LINE",
"90 370 OFFCURVE",
"58 340 OFFCURVE",
"58 306 CURVE SMOOTH",
"58 271 OFFCURVE",
"84 242 OFFCURVE",
"135 186 CURVE SMOOTH",
"213 101 OFFCURVE",
"335 -9 OFFCURVE",
"443 -9 CURVE SMOOTH",
"518 -9 OFFCURVE",
"618 30 OFFCURVE",
"673 69 CURVE",
"674 165 LINE",
"616 102 OFFCURVE",
"506 59 OFFCURVE",
"442 59 CURVE SMOOTH",
"324 59 OFFCURVE",
"219 166 OFFCURVE",
"179 211 CURVE",
"222 252 OFFCURVE",
"271 307 OFFCURVE",
"271 404 CURVE SMOOTH",
"271 448 OFFCURVE",
"264 529 OFFCURVE",
"252 585 CURVE"
);
}
);
};
layerId = "39185045-6A8C-415A-8312-7B8F11386A4C";
name = Regular;
paths = (
{
closed = 1;
nodes = (
"-31 650 LINE",
"-31 634 LINE",
"0 575 LINE",
"663 575 LINE",
"663 425 LINE",
"644 425 LINE",
"662 394 LINE",
"664 287 LINE",
"645 257 LINE",
"665 257 LINE",
"665 84 LINE",
"661 0 LINE",
"735 -42 LINE",
"751 -42 LINE",
"751 575 LINE",
"861 575 LINE",
"861 590 LINE",
"829 650 LINE"
);
},
{
closed = 1;
nodes = (
"413 507 OFFCURVE",
"341 445 OFFCURVE",
"341 346 CURVE SMOOTH",
"341 249 OFFCURVE",
"426 180 OFFCURVE",
"513 180 CURVE SMOOTH",
"579 180 OFFCURVE",
"630 231 OFFCURVE",
"674 265 CURVE",
"672 378 LINE",
"630 313 OFFCURVE",
"549 251 OFFCURVE",
"482 251 CURVE SMOOTH",
"427 251 OFFCURVE",
"388 284 OFFCURVE",
"388 318 CURVE SMOOTH",
"388 376 OFFCURVE",
"454 427 OFFCURVE",
"533 427 CURVE SMOOTH",
"583 427 OFFCURVE",
"647 403 OFFCURVE",
"673 346 CURVE",
"671 414 LINE",
"641 449 OFFCURVE",
"586 507 OFFCURVE",
"505 507 CURVE SMOOTH"
);
},
{
closed = 1;
nodes = (
"178 585 LINE",
"185 545 OFFCURVE",
"189 482 OFFCURVE",
"189 450 CURVE SMOOTH",
"189 407 OFFCURVE",
"176 358 OFFCURVE",
"164 340 CURVE",
"109 382 LINE",
"90 370 OFFCURVE",
"58 340 OFFCURVE",
"58 306 CURVE SMOOTH",
"58 271 OFFCURVE",
"84 242 OFFCURVE",
"135 186 CURVE SMOOTH",
"213 101 OFFCURVE",
"335 -9 OFFCURVE",
"443 -9 CURVE SMOOTH",
"518 -9 OFFCURVE",
"618 30 OFFCURVE",
"673 69 CURVE",
"674 165 LINE",
"616 102 OFFCURVE",
"506 59 OFFCURVE",
"442 59 CURVE SMOOTH",
"324 59 OFFCURVE",
"219 166 OFFCURVE",
"179 211 CURVE",
"222 252 OFFCURVE",
"271 307 OFFCURVE",
"271 404 CURVE SMOOTH",
"271 448 OFFCURVE",
"264 529 OFFCURVE",
"252 585 CURVE"
);
}
);
width = 861;
},
{
anchors = (
{
name = bottom;
position = "{637, 0}";
},
{
name = top;
position = "{637, 634}";
}
);
background = {
paths = (
{
closed = 0;
nodes = (
"625 268 LINE",
"628 266 LINE"
);
},
{
closed = 1;
nodes = (
"341 490 OFFCURVE",
"280 420 OFFCURVE",
"280 339 CURVE",
"280 230 OFFCURVE",
"359 178 OFFCURVE",
"442 178 CURVE",
"537 178 OFFCURVE",
"592 240 OFFCURVE",
"642 279 CURVE SMOOTH",
"671 306 LINE SMOOTH",
"740 377 OFFCURVE",
"795 416 OFFCURVE",
"849 416 CURVE",
"897 416 OFFCURVE",
"941 372 OFFCURVE",
"941 311 CURVE",
"941 240 OFFCURVE",
"888 169 OFFCURVE",
"867 146 CURVE SMOOTH",
"910 102 LINE SMOOTH",
"936 140 OFFCURVE",
"986 218 OFFCURVE",
"986 285 CURVE",
"986 395 OFFCURVE",
"921 466 OFFCURVE",
"833 466 CURVE",
"772 466 OFFCURVE",
"703 408 OFFCURVE",
"665 367 CURVE",
"637 341 LINE",
"579 285 OFFCURVE",
"506 228 OFFCURVE",
"422 228 CURVE",
"367 228 OFFCURVE",
"325 264 OFFCURVE",
"325 318 CURVE",
"325 391 OFFCURVE",
"388 439 OFFCURVE",
"455 440 CURVE",
"522 441 OFFCURVE",
"589 384 OFFCURVE",
"632 322 CURVE",
"631 387 LINE",
"595 428 OFFCURVE",
"521 490 OFFCURVE",
"435 490 CURVE"
);
}
);
};
layerId = "E777F328-EA17-4AE7-9EBA-8002E537BA4F";
name = Light;
paths = (
{
closed = 1;
nodes = (
"-29 634 LINE",
"-29 624 LINE",
"-11 590 LINE",
"611 590 LINE",
"611 393 LINE",
"602 393 LINE",
"611 367 LINE",
"611 275 LINE",
"603 270 LINE",
"611 265 LINE",
"612 103 LINE",
"610 13 LINE",
"653 -11 LINE",
"665 -11 LINE",
"665 590 LINE",
"796 590 LINE",
"796 601 LINE",
"778 634 LINE"
);
},
{
closed = 1;
nodes = (
"356 482 OFFCURVE",
"290 421 OFFCURVE",
"290 328 CURVE SMOOTH",
"290 258 OFFCURVE",
"340 187 OFFCURVE",
"445 187 CURVE SMOOTH",
"510 187 OFFCURVE",
"571 236 OFFCURVE",
"615 274 CURVE",
"613 336 LINE",
"563 284 OFFCURVE",
"486 237 OFFCURVE",
"426 237 CURVE SMOOTH",
"363 237 OFFCURVE",
"336 271 OFFCURVE",
"336 308 CURVE SMOOTH",
"336 378 OFFCURVE",
"384 433 OFFCURVE",
"456 432 CURVE SMOOTH",
"518 431 OFFCURVE",
"579 383 OFFCURVE",
"620 323 CURVE",
"620 383 LINE",
"589 421 OFFCURVE",
"516 482 OFFCURVE",
"436 482 CURVE SMOOTH"
);
},
{
closed = 1;
nodes = (
"157 601 LINE",
"169 557 OFFCURVE",
"176 484 OFFCURVE",
"176 440 CURVE SMOOTH",
"176 399 OFFCURVE",
"167 366 OFFCURVE",
"144 330 CURVE",
"96 372 LINE",
"80 366 OFFCURVE",
"57 346 OFFCURVE",
"57 323 CURVE SMOOTH",
"57 286 OFFCURVE",
"72 250 OFFCURVE",
"122 193 CURVE SMOOTH",
"193 112 OFFCURVE",
"282 29 OFFCURVE",
"387 29 CURVE SMOOTH",
"479 29 OFFCURVE",
"573 70 OFFCURVE",
"622 99 CURVE",
"623 157 LINE",
"558 113 OFFCURVE",
"481 79 OFFCURVE",
"387 79 CURVE SMOOTH",
"274 79 OFFCURVE",
"171 188 OFFCURVE",
"133 236 CURVE",
"182 278 OFFCURVE",
"226 321 OFFCURVE",
"226 412 CURVE SMOOTH",
"226 450 OFFCURVE",
"220 535 OFFCURVE",
"207 601 CURVE"
);
}
);
width = 778;
},
{
background = {
paths = (
{
closed = 1;
nodes = (
"-67 634 LINE",
"-67 624 LINE",
"-49 590 LINE",
"588 590 LINE",
"588 393 LINE",
"579 393 LINE",
"588 367 LINE",
"588 275 LINE",
"580 270 LINE",
"588 265 LINE",
"589 103 LINE",
"587 13 LINE",
"630 -11 LINE",
"642 -11 LINE",
"642 590 LINE",
"773 590 LINE",
"773 601 LINE",
"755 634 LINE"
);
},
{
closed = 1;
nodes = (
"333 482 OFFCURVE",
"267 421 OFFCURVE",
"267 328 CURVE SMOOTH",
"267 258 OFFCURVE",
"317 187 OFFCURVE",
"422 187 CURVE SMOOTH",
"487 187 OFFCURVE",
"548 236 OFFCURVE",
"592 274 CURVE",
"590 336 LINE",
"540 284 OFFCURVE",
"463 237 OFFCURVE",
"403 237 CURVE SMOOTH",
"340 237 OFFCURVE",
"313 271 OFFCURVE",
"313 308 CURVE SMOOTH",
"313 378 OFFCURVE",
"361 433 OFFCURVE",
"433 432 CURVE SMOOTH",
"495 431 OFFCURVE",
"556 383 OFFCURVE",
"597 323 CURVE",
"597 383 LINE",
"566 421 OFFCURVE",
"493 482 OFFCURVE",
"413 482 CURVE SMOOTH"
);
},
{
closed = 1;
nodes = (
"134 601 LINE",
"146 557 OFFCURVE",
"153 484 OFFCURVE",
"153 440 CURVE SMOOTH",
"153 399 OFFCURVE",
"144 366 OFFCURVE",
"121 330 CURVE",
"73 372 LINE",
"57 366 OFFCURVE",
"34 346 OFFCURVE",
"34 323 CURVE SMOOTH",
"34 286 OFFCURVE",
"49 250 OFFCURVE",
"99 193 CURVE SMOOTH",
"170 112 OFFCURVE",
"259 29 OFFCURVE",
"364 29 CURVE SMOOTH",
"456 29 OFFCURVE",
"550 70 OFFCURVE",
"599 99 CURVE",
"600 157 LINE",
"535 113 OFFCURVE",
"458 79 OFFCURVE",
"364 79 CURVE SMOOTH",
"251 79 OFFCURVE",
"148 188 OFFCURVE",
"110 236 CURVE",
"159 278 OFFCURVE",
"203 321 OFFCURVE",
"203 412 CURVE SMOOTH",
"203 450 OFFCURVE",
"197 535 OFFCURVE",
"184 601 CURVE"
);
},
{
closed = 1;
nodes = (
"-54 650 LINE",
"-54 634 LINE",
"-23 575 LINE",
"640 575 LINE",
"640 425 LINE",
"621 425 LINE",
"639 394 LINE",
"641 287 LINE",
"622 257 LINE",
"642 257 LINE",
"642 84 LINE",
"638 0 LINE",
"712 -42 LINE",
"728 -42 LINE",
"728 575 LINE",
"838 575 LINE",
"838 590 LINE",
"806 650 LINE"
);
},
{
closed = 1;
nodes = (
"390 507 OFFCURVE",
"318 445 OFFCURVE",
"318 346 CURVE SMOOTH",
"318 249 OFFCURVE",
"403 180 OFFCURVE",
"490 180 CURVE SMOOTH",
"556 180 OFFCURVE",
"607 231 OFFCURVE",
"651 265 CURVE",
"649 378 LINE",
"607 313 OFFCURVE",
"526 251 OFFCURVE",
"459 251 CURVE SMOOTH",
"404 251 OFFCURVE",
"365 284 OFFCURVE",
"365 318 CURVE SMOOTH",
"365 376 OFFCURVE",
"431 427 OFFCURVE",
"510 427 CURVE SMOOTH",
"560 427 OFFCURVE",
"624 403 OFFCURVE",
"650 346 CURVE",
"648 414 LINE",
"618 449 OFFCURVE",
"563 507 OFFCURVE",
"482 507 CURVE SMOOTH"
);
},
{
closed = 1;
nodes = (
"155 585 LINE",
"162 545 OFFCURVE",
"166 482 OFFCURVE",
"166 450 CURVE SMOOTH",
"166 407 OFFCURVE",
"153 358 OFFCURVE",
"141 340 CURVE",
"86 382 LINE",
"67 370 OFFCURVE",
"35 340 OFFCURVE",
"35 306 CURVE SMOOTH",
"35 271 OFFCURVE",
"61 242 OFFCURVE",
"112 186 CURVE SMOOTH",
"190 101 OFFCURVE",
"312 -9 OFFCURVE",
"420 -9 CURVE SMOOTH",
"495 -9 OFFCURVE",
"595 30 OFFCURVE",
"650 69 CURVE",
"651 165 LINE",
"593 102 OFFCURVE",
"483 59 OFFCURVE",
"419 59 CURVE SMOOTH",
"301 59 OFFCURVE",
"196 166 OFFCURVE",
"156 211 CURVE",
"199 252 OFFCURVE",
"248 307 OFFCURVE",
"248 404 CURVE SMOOTH",
"248 448 OFFCURVE",
"241 529 OFFCURVE",
"229 585 CURVE"
);
}
);
};
layerId = "B26750D4-52C5-4F85-819B-BFB2F142DAD5";
name = Bold;
paths = (
{
closed = 1;
nodes = (
"-56 669 LINE",
"-56 647 LINE",
"-9 556 LINE",
"656 556 LINE",
"656 431 LINE",
"633 431 LINE",
"656 390 LINE",
"656 281 LINE",
"633 237 LINE",
"656 224 LINE",
"656 92 LINE",
"650 29 LINE",
"768 -37 LINE",
"791 -37 LINE",
"791 556 LINE",
"880 556 LINE",
"880 577 LINE",
"831 669 LINE"
);
},
{
closed = 1;
nodes = (
"416 522 OFFCURVE",
"338 456 OFFCURVE",
"338 350 CURVE SMOOTH",
"338 241 OFFCURVE",
"428 167 OFFCURVE",
"518 167 CURVE SMOOTH",
"576 167 OFFCURVE",
"630 207 OFFCURVE",
"675 242 CURVE",
"674 386 LINE",
"627 324 OFFCURVE",
"546 273 OFFCURVE",
"483 273 CURVE SMOOTH",
"423 273 OFFCURVE",
"386 299 OFFCURVE",
"386 323 CURVE SMOOTH",
"386 370 OFFCURVE",
"449 412 OFFCURVE",
"533 412 CURVE SMOOTH",
"577 412 OFFCURVE",
"641 393 OFFCURVE",
"672 349 CURVE",
"673 409 LINE",
"643 440 OFFCURVE",
"584 522 OFFCURVE",
"508 522 CURVE SMOOTH"
);
},
{
closed = 1;
nodes = (
"152 590 LINE",
"158 550 OFFCURVE",
"163 497 OFFCURVE",
"163 466 CURVE SMOOTH",
"163 424 OFFCURVE",
"153 386 OFFCURVE",
"143 369 CURVE",
"84 400 LINE",
"64 388 OFFCURVE",
"30 355 OFFCURVE",
"30 322 CURVE SMOOTH",
"30 286 OFFCURVE",
"61 253 OFFCURVE",
"108 191 CURVE SMOOTH",
"178 101 OFFCURVE",
"285 -20 OFFCURVE",
"374 -20 CURVE SMOOTH",
"488 -20 OFFCURVE",
"614 38 OFFCURVE",
"677 92 CURVE",
"676 220 LINE",
"609 145 OFFCURVE",
"474 81 OFFCURVE",
"371 81 CURVE SMOOTH",
"282 81 OFFCURVE",
"202 157 OFFCURVE",
"173 195 CURVE",
"217 236 OFFCURVE",
"291 312 OFFCURVE",
"291 409 CURVE SMOOTH",
"291 454 OFFCURVE",
"284 524 OFFCURVE",
"272 580 CURVE"
);
}
);
width = 880;
}
);
unicode = 0916;
},
{
glyphname = "ga-deva";
lastChange = "2014-07-15 13:39:01 +0100";
layers = (
{
anchors = (
{
name = _nukta;
position = "{255, 184}";
},
{
name = bottom;
position = "{472, 0}";
},
{
name = top;
position = "{473, 650}";
}
);
background = {
paths = (
{
closed = 1;
nodes = (
"256 -28 LINE",
"332 51 LINE",
"255 129 LINE",
"178 50 LINE"
);
},
{
closed = 1;
nodes = (
"429 -1 LINE",
"502 -42 LINE",
"518 -42 LINE",
"518 575 LINE",
"628 575 LINE",
"628 590 LINE",
"596 650 LINE",
"-31 650 LINE",
"-31 634 LINE",
"0 575 LINE",
"143 575 LINE",
"143 328 LINE",
"45 341 LINE",
"41 330 OFFCURVE",
"39 316 OFFCURVE",
"39 300 CURVE SMOOTH",
"39 256 OFFCURVE",
"73 177 OFFCURVE",
"153 177 CURVE SMOOTH",
"225 177 OFFCURVE",
"236 248 OFFCURVE",
"236 284 CURVE SMOOTH",
"236 372 OFFCURVE",
"229 485 OFFCURVE",
"220 575 CURVE",
"429 575 LINE"
);
}
);
};
layerId = "39185045-6A8C-415A-8312-7B8F11386A4C";
name = Regular;
paths = (
{
closed = 1;
nodes = (
"-31 650 LINE",
"-31 634 LINE",
"0 575 LINE",
"429 575 LINE",
"429 -1 LINE",
"502 -42 LINE",
"518 -42 LINE",
"518 575 LINE",
"628 575 LINE",
"628 590 LINE",
"596 650 LINE"
);
},
{
closed = 1;
nodes = (
"143 328 LINE",
"45 341 LINE",
"41 330 OFFCURVE",
"39 316 OFFCURVE",
"39 300 CURVE SMOOTH",
"39 256 OFFCURVE",
"73 177 OFFCURVE",
"153 177 CURVE SMOOTH",
"225 177 OFFCURVE",
"236 248 OFFCURVE",
"236 284 CURVE SMOOTH",
"236 372 OFFCURVE",
"228 495 OFFCURVE",
"219 585 CURVE",
"143 604 LINE"
);
}
);
width = 628;
},
{
anchors = (
{
name = bottom;
position = "{432, 0}";
},
{
name = top;
position = "{432, 634}";
}
);
background = {
paths = (
{
closed = 1;
nodes = (
"414 -1 LINE",
"487 -42 LINE",
"503 -42 LINE",
"503 575 LINE",
"613 575 LINE",
"613 590 LINE",
"581 650 LINE",
"-46 650 LINE",
"-46 634 LINE",
"-15 575 LINE",
"128 575 LINE",
"128 328 LINE",
"30 341 LINE",
"26 330 OFFCURVE",
"24 316 OFFCURVE",
"24 300 CURVE SMOOTH",
"24 256 OFFCURVE",
"58 177 OFFCURVE",
"138 177 CURVE SMOOTH",
"210 177 OFFCURVE",
"221 248 OFFCURVE",
"221 284 CURVE SMOOTH",
"221 372 OFFCURVE",
"214 485 OFFCURVE",
"205 575 CURVE",
"414 575 LINE"
);
}
);
};
layerId = "E777F328-EA17-4AE7-9EBA-8002E537BA4F";
name = Light;
paths = (
{
closed = 1;
nodes = (
"-29 634 LINE",
"-29 624 LINE",
"-12 590 LINE",
"405 590 LINE",
"404 13 LINE",
"447 -11 LINE",
"459 -11 LINE",
"459 590 LINE",
"575 590 LINE",
"575 601 LINE",
"556 634 LINE"
);
},
{
closed = 1;
nodes = (
"153 324 LINE",
"58 339 LINE",
"55 331 OFFCURVE",
"54 322 OFFCURVE",
"54 311 CURVE SMOOTH",
"54 280 OFFCURVE",
"78 214 OFFCURVE",
"145 214 CURVE SMOOTH",
"208 214 OFFCURVE",
"212 275 OFFCURVE",
"212 307 CURVE SMOOTH",
"212 381 OFFCURVE",
"207 499 OFFCURVE",
"200 606 CURVE",
"153 612 LINE"
);
}
);
width = 575;
},
{
layerId = "B26750D4-52C5-4F85-819B-BFB2F142DAD5";
name = Bold;
paths = (
{
closed = 1;
nodes = (
"-56 669 LINE",
"-56 647 LINE",
"-9 556 LINE",
"437 556 LINE",
"437 26 LINE",
"549 -37 LINE",
"572 -37 LINE",
"572 556 LINE",
"662 556 LINE",
"662 577 LINE",
"612 669 LINE"
);
},
{
closed = 1;
nodes = (
"142 333 LINE",
"43 346 LINE",
"40 332 OFFCURVE",
"38 314 OFFCURVE",
"38 294 CURVE SMOOTH",
"38 246 OFFCURVE",
"72 159 OFFCURVE",
"152 159 CURVE SMOOTH",
"258 159 OFFCURVE",
"264 239 OFFCURVE",
"264 284 CURVE SMOOTH",
"264 378 OFFCURVE",
"242 514 OFFCURVE",
"233 577 CURVE",
"142 608 LINE"
);
}
);
width = 662;
}
);
unicode = 0917;
},
{
glyphname = "gha-deva";
lastChange = "2014-07-08 15:29:21 +0100";
layers = (
{
anchors = (
{
name = bottom;
position = "{521, 0}";
},
{
name = top;
position = "{521, 650}";
}
);
background = {
anchors = (
{
name = top;
position = "{521, 650}";
},
{
name = bottom;
position = "{521, 0}";
}
);
paths = (
{
closed = 1;
nodes = (
"674 575 LINE",
"674 590 LINE",
"643 650 LINE",
"-31 650 LINE",
"-31 634 LINE",
"0 575 LINE",
"66 575 LINE",
"63 557 OFFCURVE",
"61 540 OFFCURVE",
"61 527 CURVE SMOOTH",
"61 459 OFFCURVE",
"119 430 OFFCURVE",
"180 402 CURVE",
"132 371 OFFCURVE",
"99 316 OFFCURVE",
"99 261 CURVE SMOOTH",
"99 218 OFFCURVE",
"142 171 OFFCURVE",
"178 142 CURVE SMOOTH",
"218 110 OFFCURVE",
"264 102 OFFCURVE",
"309 102 CURVE SMOOTH",
"352 102 OFFCURVE",
"413 131 OFFCURVE",
"475 178 CURVE",
"478 176 LINE",
"475 0 LINE",
"549 -42 LINE",
"565 -42 LINE",
"565 575 LINE"
);
},
{
closed = 1;
nodes = (
"374 376 LINE",
"367 394 OFFCURVE",
"358 415 OFFCURVE",
"358 415 CURVE",
"336 426 OFFCURVE",
"294 428 OFFCURVE",
"265 428 CURVE SMOOTH",
"260 428 OFFCURVE",
"255 427 OFFCURVE",
"249 427 CURVE SMOOTH",
"211 428 OFFCURVE",
"143 461 OFFCURVE",
"143 504 CURVE SMOOTH",
"143 536 OFFCURVE",
"156 560 OFFCURVE",
"178 575 CURVE",
"477 575 LINE",
"477 314 LINE",
"441 252 OFFCURVE",
"327 174 OFFCURVE",
"258 174 CURVE SMOOTH",
"224 174 OFFCURVE",
"175 189 OFFCURVE",
"175 233 CURVE SMOOTH",
"175 286 OFFCURVE",
"217 358 OFFCURVE",
"292 358 CURVE SMOOTH",
"316 358 OFFCURVE",
"340 356 OFFCURVE",
"364 350 CURVE"
);
}
);
};
layerId = "39185045-6A8C-415A-8312-7B8F11386A4C";
name = Regular;
paths = (
{
closed = 1;
nodes = (
"-31 650 LINE",
"-31 634 LINE",
"0 575 LINE",
"477 575 LINE",
"477 204 LINE",
"436 204 LINE",
"478 176 LINE",
"475 0 LINE",
"549 -42 LINE",
"565 -42 LINE",
"565 575 LINE",
"674 575 LINE",
"674 590 LINE",
"643 650 LINE"
);
},
{
closed = 1;
nodes = (
"63 559 OFFCURVE",
"61 541 OFFCURVE",
"61 527 CURVE SMOOTH",
"61 459 OFFCURVE",
"119 430 OFFCURVE",
"180 402 CURVE",
"132 371 OFFCURVE",
"99 316 OFFCURVE",
"99 261 CURVE SMOOTH",
"99 218 OFFCURVE",
"142 171 OFFCURVE",
"178 142 CURVE SMOOTH",
"218 110 OFFCURVE",
"264 102 OFFCURVE",
"309 102 CURVE SMOOTH",
"357 102 OFFCURVE",
"425 138 OFFCURVE",
"488 188 CURVE",
"487 332 LINE",
"451 254 OFFCURVE",
"326 174 OFFCURVE",
"258 174 CURVE SMOOTH",
"224 174 OFFCURVE",
"175 189 OFFCURVE",
"175 233 CURVE SMOOTH",
"175 286 OFFCURVE",
"217 358 OFFCURVE",
"292 358 CURVE SMOOTH",
"316 358 OFFCURVE",
"340 356 OFFCURVE",
"364 350 CURVE",
"374 376 LINE",
"367 394 OFFCURVE",
"358 415 OFFCURVE",
"358 415 CURVE",
"336 426 OFFCURVE",
"294 428 OFFCURVE",
"265 428 CURVE SMOOTH",
"260 428 OFFCURVE",
"255 427 OFFCURVE",
"249 427 CURVE SMOOTH",
"211 428 OFFCURVE",
"143 461 OFFCURVE",
"143 504 CURVE SMOOTH",
"143 540 OFFCURVE",
"159 563 OFFCURVE",
"181 577 CURVE",
"67 580 LINE"
);
}
);
width = 647;
},
{
anchors = (
{
name = bottom;
position = "{513, 0}";
},
{
name = top;
position = "{513, 634}";
}
);
background = {
paths = (
{
closed = 1;
nodes = (
"650 584 LINE",
"650 599 LINE",
"619 659 LINE",
"-55 659 LINE",
"-55 643 LINE",
"-24 584 LINE",
"42 584 LINE",
"39 566 OFFCURVE",
"37 549 OFFCURVE",
"37 536 CURVE SMOOTH",
"37 468 OFFCURVE",
"95 439 OFFCURVE",
"156 411 CURVE",
"108 380 OFFCURVE",
"75 325 OFFCURVE",
"75 270 CURVE SMOOTH",
"75 227 OFFCURVE",
"118 180 OFFCURVE",
"154 151 CURVE SMOOTH",
"194 119 OFFCURVE",
"240 111 OFFCURVE",
"285 111 CURVE SMOOTH",
"328 111 OFFCURVE",
"389 140 OFFCURVE",
"451 187 CURVE",
"454 185 LINE",
"451 9 LINE",
"525 -33 LINE",
"541 -33 LINE",
"541 584 LINE"
);
},
{
closed = 1;
nodes = (
"350 385 LINE",
"343 403 OFFCURVE",
"334 424 OFFCURVE",
"334 424 CURVE",
"312 435 OFFCURVE",
"270 437 OFFCURVE",
"241 437 CURVE SMOOTH",
"236 437 OFFCURVE",
"231 436 OFFCURVE",
"225 436 CURVE SMOOTH",
"187 437 OFFCURVE",
"119 470 OFFCURVE",
"119 513 CURVE SMOOTH",
"119 545 OFFCURVE",
"132 569 OFFCURVE",
"154 584 CURVE",
"453 584 LINE",
"453 323 LINE",
"417 261 OFFCURVE",
"303 183 OFFCURVE",
"234 183 CURVE SMOOTH",
"200 183 OFFCURVE",
"151 198 OFFCURVE",
"151 242 CURVE SMOOTH",
"151 295 OFFCURVE",
"193 367 OFFCURVE",
"268 367 CURVE SMOOTH",
"292 367 OFFCURVE",
"316 365 OFFCURVE",
"340 359 CURVE"
);
}
);
};
layerId = "E777F328-EA17-4AE7-9EBA-8002E537BA4F";
name = Light;
paths = (
{
closed = 1;
nodes = (
"-29 634 LINE",
"-29 625 LINE",
"-12 590 LINE",
"487 590 LINE",
"487 232 LINE",
"445 232 LINE",
"487 216 LINE",
"487 13 LINE",
"529 -11 LINE",
"541 -11 LINE",
"541 590 LINE",
"657 590 LINE",
"657 601 LINE",
"638 634 LINE"
);
},
{
closed = 1;
nodes = (
"90 589 OFFCURVE",
"73 560 OFFCURVE",
"73 522 CURVE SMOOTH",
"73 448 OFFCURVE",
"113 424 OFFCURVE",
"178 394 CURVE",
"131 362 OFFCURVE",
"104 313 OFFCURVE",
"104 256 CURVE SMOOTH",
"104 201 OFFCURVE",
"130 165 OFFCURVE",
"167 139 CURVE SMOOTH",
"197 118 OFFCURVE",
"229 110 OFFCURVE",
"264 110 CURVE SMOOTH",
"347 110 OFFCURVE",
"416 154 OFFCURVE",
"497 227 CURVE",
"496 293 LINE",
"413 211 OFFCURVE",
"337 160 OFFCURVE",
"244 160 CURVE SMOOTH",
"202 160 OFFCURVE",
"149 178 OFFCURVE",
"149 233 CURVE SMOOTH",
"149 292 OFFCURVE",
"188 372 OFFCURVE",
"292 373 CURVE SMOOTH",
"316 373 OFFCURVE",
"326 372 OFFCURVE",
"345 367 CURVE",
"348 376 LINE",
"341 392 OFFCURVE",
"330 414 OFFCURVE",
"330 414 CURVE",
"312 419 OFFCURVE",
"287 423 OFFCURVE",
"262 423 CURVE SMOOTH",
"254 423 OFFCURVE",
"245 422 OFFCURVE",
"239 422 CURVE SMOOTH",
"203 422 OFFCURVE",
"123 455 OFFCURVE",
"123 514 CURVE SMOOTH",
"123 551 OFFCURVE",
"140 585 OFFCURVE",
"165 607 CURVE",
"104 610 LINE"
);
}
);
width = 657;
},
{
layerId = "B26750D4-52C5-4F85-819B-BFB2F142DAD5";
name = Bold;
paths = (
{
closed = 1;
nodes = (
"-31 650 LINE",
"-31 634 LINE",
"0 575 LINE",
"477 575 LINE",
"477 204 LINE",
"436 204 LINE",
"478 176 LINE",
"475 0 LINE",
"549 -42 LINE",
"565 -42 LINE",
"565 575 LINE",
"674 575 LINE",
"674 590 LINE",
"643 650 LINE"
);
},
{
closed = 1;
nodes = (
"63 559 OFFCURVE",
"61 541 OFFCURVE",
"61 527 CURVE SMOOTH",
"61 459 OFFCURVE",
"119 430 OFFCURVE",
"180 402 CURVE",
"132 371 OFFCURVE",
"99 316 OFFCURVE",
"99 261 CURVE SMOOTH",
"99 218 OFFCURVE",
"142 171 OFFCURVE",
"178 142 CURVE SMOOTH",
"218 110 OFFCURVE",
"264 102 OFFCURVE",
"309 102 CURVE SMOOTH",
"357 102 OFFCURVE",
"425 138 OFFCURVE",
"488 188 CURVE",
"487 332 LINE",
"451 254 OFFCURVE",
"326 174 OFFCURVE",
"258 174 CURVE SMOOTH",
"224 174 OFFCURVE",
"175 189 OFFCURVE",
"175 233 CURVE SMOOTH",
"175 286 OFFCURVE",
"217 358 OFFCURVE",
"292 358 CURVE SMOOTH",
"316 358 OFFCURVE",
"340 356 OFFCURVE",
"364 350 CURVE",
"374 376 LINE",
"367 394 OFFCURVE",
"358 415 OFFCURVE",
"358 415 CURVE",
"336 426 OFFCURVE",
"294 428 OFFCURVE",
"265 428 CURVE SMOOTH",
"260 428 OFFCURVE",
"255 427 OFFCURVE",
"249 427 CURVE SMOOTH",
"211 428 OFFCURVE",
"143 461 OFFCURVE",
"143 504 CURVE SMOOTH",
"143 540 OFFCURVE",
"159 563 OFFCURVE",
"181 577 CURVE",
"67 580 LINE"
);
}
);
width = 674;
}
);
unicode = 0918;
},
{
glyphname = "nga-deva";
lastChange = "2014-07-10 11:12:38 +0100";
layers = (
{
anchors = (
{
name = bottom;
position = "{371, -16}";
},
{
name = top;
position = "{420, 650}";
}
);
background = {
paths = (
{
closed = 1;
nodes = (
"-31 650 LINE",
"-31 634 LINE",
"0 575 LINE",
"394 575 LINE",
"394 471 LINE",
"204 471 LINE SMOOTH",
"145 471 OFFCURVE",
"97 428 OFFCURVE",
"97 346 CURVE SMOOTH",
"97 267 OFFCURVE",
"203 179 OFFCURVE",
"251 179 CURVE SMOOTH",
"323 179 OFFCURVE",
"370 218 OFFCURVE",
"457 218 CURVE",
"476 209 OFFCURVE",
"491 178 OFFCURVE",
"491 152 CURVE SMOOTH",
"491 80 OFFCURVE",
"411 49 OFFCURVE",
"343 49 CURVE SMOOTH",
"264 49 OFFCURVE",
"173 82 OFFCURVE",
"63 199 CURVE",
"28 167 LINE",
"157 19 OFFCURVE",
"274 -30 OFFCURVE",
"381 -30 CURVE SMOOTH",
"487 -30 OFFCURVE",
"544 39 OFFCURVE",
"544 130 CURVE SMOOTH",
"544 203 OFFCURVE",
"481 300 OFFCURVE",
"427 300 CURVE SMOOTH",
"355 300 OFFCURVE",
"278 258 OFFCURVE",
"204 258 CURVE SMOOTH",
"184 258 OFFCURVE",
"162 290 OFFCURVE",
"162 318 CURVE SMOOTH",
"162 346 OFFCURVE",
"169 391 OFFCURVE",
"237 391 CURVE SMOOTH",
"483 391 LINE",
"483 575 LINE",
"601 575 LINE",
"601 590 LINE",
"570 650 LINE"
);
}
);
};
layerId = "39185045-6A8C-415A-8312-7B8F11386A4C";
name = Regular;
paths = (
{
closed = 1;
nodes = (
"-31 650 LINE",
"-31 634 LINE",
"0 575 LINE",
"376 575 LINE",
"376 471 LINE",
"204 471 LINE SMOOTH",
"145 471 OFFCURVE",
"97 428 OFFCURVE",
"97 346 CURVE SMOOTH",
"97 267 OFFCURVE",
"203 179 OFFCURVE",
"251 179 CURVE SMOOTH",
"323 179 OFFCURVE",
"351 218 OFFCURVE",
"438 218 CURVE",
"458 209 OFFCURVE",
"472 178 OFFCURVE",
"472 152 CURVE SMOOTH",
"472 80 OFFCURVE",
"402 49 OFFCURVE",
"333 49 CURVE SMOOTH",
"256 49 OFFCURVE",
"173 82 OFFCURVE",
"63 199 CURVE",
"28 167 LINE",
"157 19 OFFCURVE",
"265 -30 OFFCURVE",
"371 -30 CURVE SMOOTH",
"478 -30 OFFCURVE",
"525 39 OFFCURVE",
"525 130 CURVE SMOOTH",
"525 203 OFFCURVE",
"463 300 OFFCURVE",
"409 300 CURVE SMOOTH",
"337 300 OFFCURVE",
"278 258 OFFCURVE",
"204 258 CURVE SMOOTH",
"184 258 OFFCURVE",
"162 290 OFFCURVE",
"162 318 CURVE SMOOTH",
"162 346 OFFCURVE",
"169 391 OFFCURVE",
"237 391 CURVE SMOOTH",
"465 391 LINE",
"465 575 LINE",
"713 575 LINE",
"713 590 LINE",
"682 650 LINE"
);
},
{
closed = 1;
nodes = (
"540 343 LINE",
"617 264 LINE",
"694 344 LINE",
"616 422 LINE"
);
}
);
width = 713;
},
{
anchors = (
{
name = bottom;
position = "{400, 0}";
},
{
name = top;
position = "{400, 634}";
}
);
background = {
paths = (
{
closed = 1;
nodes = (
"-34 636 LINE",
"-34 626 LINE",
"-17 592 LINE",
"389 592 LINE",
"389 462 LINE",
"201 462 LINE SMOOTH",
"142 462 OFFCURVE",
"99 419 OFFCURVE",
"99 358 CURVE SMOOTH",
"99 292 OFFCURVE",
"167 221 OFFCURVE",
"238 221 CURVE SMOOTH",
"307 221 OFFCURVE",
"348 261 OFFCURVE",
"430 261 CURVE",
"443 254 OFFCURVE",
"466 223 OFFCURVE",
"466 178 CURVE SMOOTH",
"466 98 OFFCURVE",
"392 62 OFFCURVE",
"329 62 CURVE SMOOTH",
"248 62 OFFCURVE",
"163 99 OFFCURVE",
"59 218 CURVE",
"32 192 LINE",
"152 62 OFFCURVE",
"240 17 OFFCURVE",
"354 17 CURVE SMOOTH",
"459 17 OFFCURVE",
"516 79 OFFCURVE",
"516 162 CURVE SMOOTH",
"516 225 OFFCURVE",
"466 305 OFFCURVE",
"409 305 CURVE SMOOTH",
"344 305 OFFCURVE",
"278 265 OFFCURVE",
"212 265 CURVE SMOOTH",
"183 265 OFFCURVE",
"149 300 OFFCURVE",
"149 332 CURVE SMOOTH",
"149 376 OFFCURVE",
"166 418 OFFCURVE",
"224 418 CURVE SMOOTH",
"443 418 LINE",
"443 592 LINE",
"546 592 LINE",
"546 603 LINE",
"527 636 LINE"
);
}
);
};
layerId = "E777F328-EA17-4AE7-9EBA-8002E537BA4F";
name = Light;
paths = (
{
closed = 1;
nodes = (
"-29 634 LINE",
"-29 624 LINE",
"-12 590 LINE",
"374 590 LINE",
"374 460 LINE",
"204 460 LINE SMOOTH",
"145 460 OFFCURVE",
"102 417 OFFCURVE",
"102 356 CURVE SMOOTH",
"102 290 OFFCURVE",
"171 219 OFFCURVE",
"243 219 CURVE SMOOTH",
"293 219 OFFCURVE",
"352 259 OFFCURVE",
"411 259 CURVE",
"425 252 OFFCURVE",
"452 221 OFFCURVE",
"452 176 CURVE SMOOTH",
"452 96 OFFCURVE",
"397 60 OFFCURVE",
"334 60 CURVE SMOOTH",
"260 60 OFFCURVE",
"167 97 OFFCURVE",
"62 216 CURVE",
"35 190 LINE",
"156 57 OFFCURVE",
"261 15 OFFCURVE",
"359 15 CURVE SMOOTH",
"440 15 OFFCURVE",
"502 77 OFFCURVE",
"502 160 CURVE SMOOTH",
"502 223 OFFCURVE",
"452 303 OFFCURVE",
"394 303 CURVE SMOOTH",
"345 303 OFFCURVE",
"262 263 OFFCURVE",
"217 263 CURVE SMOOTH",
"190 263 OFFCURVE",
"152 297 OFFCURVE",
"152 330 CURVE SMOOTH",
"152 374 OFFCURVE",
"169 416 OFFCURVE",
"227 416 CURVE SMOOTH",
"428 416 LINE",
"428 590 LINE",
"673 590 LINE",
"673 601 LINE",
"654 634 LINE"
);
},
{
closed = 1;
nodes = (
"535 353 LINE",
"598 290 LINE",
"661 353 LINE",
"598 416 LINE"
);
}
);
width = 673;
},
{
background = {
paths = (
{
closed = 1;
nodes = (
"713 575 LINE",
"713 590 LINE",
"682 650 LINE",
"-31 650 LINE",
"-31 634 LINE",
"0 575 LINE",
"376 575 LINE",
"376 471 LINE",
"204 471 LINE SMOOTH",
"145 471 OFFCURVE",
"97 428 OFFCURVE",
"97 346 CURVE SMOOTH",
"97 267 OFFCURVE",
"203 179 OFFCURVE",
"251 179 CURVE SMOOTH",
"323 179 OFFCURVE",
"351 218 OFFCURVE",
"438 218 CURVE",
"458 209 OFFCURVE",
"472 178 OFFCURVE",
"472 152 CURVE SMOOTH",
"472 80 OFFCURVE",
"402 49 OFFCURVE",
"333 49 CURVE SMOOTH",
"256 49 OFFCURVE",
"173 82 OFFCURVE",
"63 199 CURVE",
"28 167 LINE",
"157 19 OFFCURVE",
"265 -30 OFFCURVE",
"371 -30 CURVE SMOOTH",
"478 -30 OFFCURVE",
"525 39 OFFCURVE",
"525 130 CURVE SMOOTH",
"525 203 OFFCURVE",
"463 300 OFFCURVE",
"409 300 CURVE SMOOTH",
"337 300 OFFCURVE",
"278 258 OFFCURVE",
"204 258 CURVE SMOOTH",
"184 258 OFFCURVE",
"162 290 OFFCURVE",
"162 318 CURVE SMOOTH",
"162 346 OFFCURVE",
"169 391 OFFCURVE",
"237 391 CURVE SMOOTH",
"465 391 LINE",
"465 575 LINE"
);
},
{
closed = 1;
nodes = (
"617 264 LINE",
"694 344 LINE",
"616 422 LINE",
"540 343 LINE"
);
}
);
};
layerId = "B26750D4-52C5-4F85-819B-BFB2F142DAD5";
name = Bold;
paths = (
{
closed = 1;
nodes = (
"-55 669 LINE",
"-55 647 LINE",
"-9 556 LINE",
"362 556 LINE",
"362 489 LINE",
"191 489 LINE SMOOTH",
"133 489 OFFCURVE",
"84 458 OFFCURVE",
"84 351 CURVE SMOOTH",
"84 250 OFFCURVE",
"190 150 OFFCURVE",
"238 150 CURVE SMOOTH",
"328 150 OFFCURVE",
"404 199 OFFCURVE",
"485 199 CURVE",
"496 190 OFFCURVE",
"504 164 OFFCURVE",
"504 147 CURVE SMOOTH",
"504 84 OFFCURVE",
"426 61 OFFCURVE",
"367 61 CURVE SMOOTH",
"289 61 OFFCURVE",
"160 95 OFFCURVE",
"51 203 CURVE",
"19 171 LINE",
"147 23 OFFCURVE",
"299 -55 OFFCURVE",
"405 -55 CURVE SMOOTH",
"499 -55 OFFCURVE",
"557 11 OFFCURVE",
"557 125 CURVE SMOOTH",
"557 222 OFFCURVE",
"494 318 OFFCURVE",
"441 318 CURVE SMOOTH",
"373 318 OFFCURVE",
"259 266 OFFCURVE",
"191 266 CURVE SMOOTH",
"172 266 OFFCURVE",
"149 301 OFFCURVE",
"149 320 CURVE SMOOTH",
"149 340 OFFCURVE",
"156 372 OFFCURVE",
"224 372 CURVE SMOOTH",
"495 372 LINE",
"495 556 LINE",
"787 556 LINE",
"787 577 LINE",
"739 669 LINE"
);
},
{
closed = 1;
nodes = (
"670 231 LINE",
"781 343 LINE",
"670 454 LINE",
"558 343 LINE"
);
}
);
width = 787;
}
);
unicode = 0919;
},
{
glyphname = "ca-deva";
lastChange = "2014-07-08 15:41:24 +0100";
layers = (
{
background = {
paths = (
{
closed = 1;
nodes = (
"-31 650 LINE",
"-31 634 LINE",
"0 575 LINE",
"464 575 LINE",
"464 357 LINE",
"432 357 LINE",
"464 326 LINE",
"464 246 LINE",
"430 198 LINE",
"465 176 LINE",
"462 0 LINE",
"536 -42 LINE",
"551 -42 LINE",
"551 575 LINE",
"661 575 LINE",
"661 590 LINE",
"630 650 LINE"
);
},
{
closed = 1;
nodes = (
"162 485 OFFCURVE",
"66 410 OFFCURVE",
"66 278 CURVE SMOOTH",
"66 159 OFFCURVE",
"170 93 OFFCURVE",
"272 93 CURVE SMOOTH",
"346 93 OFFCURVE",
"415 143 OFFCURVE",
"481 192 CURVE",
"482 319 LINE",
"434 247 OFFCURVE",
"320 164 OFFCURVE",
"231 164 CURVE SMOOTH",
"167 164 OFFCURVE",
"115 201 OFFCURVE",
"115 256 CURVE SMOOTH",
"115 320 OFFCURVE",
"189 397 OFFCURVE",
"296 397 CURVE SMOOTH",
"362 397 OFFCURVE",
"448 334 OFFCURVE",
"483 266 CURVE",
"480 332 LINE",
"436 398 OFFCURVE",
"345 485 OFFCURVE",
"245 485 CURVE SMOOTH"
);
}
);
};
layerId = "39185045-6A8C-415A-8312-7B8F11386A4C";
name = Regular;
paths = (
{
closed = 1;
nodes = (
"-31 650 LINE",
"-31 634 LINE",
"0 575 LINE",
"468 575 LINE",
"468 185 LINE",
"409 185 LINE",
"469 145 LINE",
"466 0 LINE",
"540 -42 LINE",
"556 -42 LINE",
"556 575 LINE",
"666 575 LINE",
"666 590 LINE",
"634 650 LINE"
);
},
{
closed = 1;
nodes = (
"167 400 LINE",
"167 361 LINE",
"146 335 OFFCURVE",
"127 300 OFFCURVE",
"127 257 CURVE SMOOTH",
"127 208 OFFCURVE",
"160 164 OFFCURVE",
"186 138 CURVE SMOOTH",
"214 110 OFFCURVE",
"258 91 OFFCURVE",
"309 91 CURVE SMOOTH",
"368 91 OFFCURVE",
"434 120 OFFCURVE",
"479 157 CURVE",
"478 280 LINE",
"444 222 OFFCURVE",
"340 143 OFFCURVE",
"277 143 CURVE SMOOTH",
"234 143 OFFCURVE",
"194 188 OFFCURVE",
"194 232 CURVE SMOOTH",
"194 297 OFFCURVE",
"238 357 OFFCURVE",
"318 358 CURVE",
"318 400 LINE"
);
},
{
closed = 1;
nodes = (
"32 431 LINE",
"32 416 LINE",
"64 356 LINE",
"410 356 LINE",
"410 372 LINE",
"379 431 LINE"
);
}
);
width = 666;
},
{
anchors = (
{
name = bottom;
position = "{495, 0}";
},
{
name = top;
position = "{495, 634}";
}
);
background = {
paths = (
{
closed = 1;
nodes = (
"145 480 LINE",
"145 441 LINE",
"122 421 OFFCURVE",
"98 380 OFFCURVE",
"98 338 CURVE SMOOTH",
"98 280 OFFCURVE",
"125 246 OFFCURVE",
"151 220 CURVE SMOOTH",
"179 192 OFFCURVE",
"219 176 OFFCURVE",
"268 176 CURVE SMOOTH",
"336 176 OFFCURVE",
"409 237 OFFCURVE",
"456 280 CURVE",
"455 350 LINE",
"419 313 OFFCURVE",
"334 226 OFFCURVE",
"241 226 CURVE SMOOTH",
"197 226 OFFCURVE",
"148 255 OFFCURVE",
"148 315 CURVE SMOOTH",
"148 369 OFFCURVE",
"192 441 OFFCURVE",
"271 442 CURVE",
"271 480 LINE"
);
}
);
};
layerId = "E777F328-EA17-4AE7-9EBA-8002E537BA4F";
name = Light;
paths = (
{
closed = 1;
nodes = (
"-29 634 LINE",
"-29 624 LINE",
"-12 590 LINE",
"469 590 LINE",
"469 238 LINE",
"444 238 LINE",
"469 222 LINE",
"468 11 LINE",
"513 -11 LINE",
"524 -11 LINE",
"524 590 LINE",
"639 590 LINE",
"639 601 LINE",
"620 634 LINE"
);
},
{
closed = 1;
nodes = (
"165 430 LINE",
"165 391 LINE",
"142 371 OFFCURVE",
"118 330 OFFCURVE",
"118 288 CURVE SMOOTH",
"118 230 OFFCURVE",
"145 196 OFFCURVE",
"171 170 CURVE SMOOTH",
"199 142 OFFCURVE",
"239 126 OFFCURVE",
"288 126 CURVE SMOOTH",
"356 126 OFFCURVE",
"429 187 OFFCURVE",
"476 230 CURVE",
"475 300 LINE",
"437 262 OFFCURVE",
"353 176 OFFCURVE",
"261 176 CURVE SMOOTH",
"217 176 OFFCURVE",
"168 205 OFFCURVE",
"167 265 CURVE SMOOTH",
"168 319 OFFCURVE",
"212 391 OFFCURVE",
"291 392 CURVE",
"291 430 LINE"
);
},
{
closed = 1;
nodes = (
"42 436 LINE",
"42 426 LINE",
"59 392 LINE",
"382 392 LINE",
"382 403 LINE",
"363 436 LINE"
);
}
);
width = 639;
},
{
layerId = "B26750D4-52C5-4F85-819B-BFB2F142DAD5";
name = Bold;
paths = (
{
closed = 1;
nodes = (
"-31 650 LINE",
"-31 634 LINE",
"0 575 LINE",
"468 575 LINE",
"468 185 LINE",
"409 185 LINE",
"469 145 LINE",
"466 0 LINE",
"540 -42 LINE",
"556 -42 LINE",
"556 575 LINE",
"666 575 LINE",
"666 590 LINE",
"634 650 LINE"
);
},
{
closed = 1;
nodes = (
"167 400 LINE",
"167 361 LINE",
"146 335 OFFCURVE",
"127 300 OFFCURVE",
"127 257 CURVE SMOOTH",
"127 208 OFFCURVE",
"160 164 OFFCURVE",
"186 138 CURVE SMOOTH",
"214 110 OFFCURVE",
"258 91 OFFCURVE",
"309 91 CURVE SMOOTH",
"368 91 OFFCURVE",
"434 120 OFFCURVE",
"479 157 CURVE",
"478 280 LINE",
"444 222 OFFCURVE",
"340 143 OFFCURVE",
"277 143 CURVE SMOOTH",
"234 143 OFFCURVE",
"194 188 OFFCURVE",
"194 232 CURVE SMOOTH",
"194 297 OFFCURVE",
"238 357 OFFCURVE",
"318 358 CURVE",
"318 400 LINE"
);
},
{
closed = 1;
nodes = (
"32 431 LINE",
"32 416 LINE",
"64 356 LINE",
"410 356 LINE",
"410 372 LINE",
"379 431 LINE"
);
}
);
width = 666;
}
);
unicode = 091A;
},
{
glyphname = "cha-deva";
lastChange = "2014-07-15 08:07:37 +0100";
layers = (
{
anchors = (
{
name = bottom;
position = "{557, 0}";
},
{
name = top;
position = "{557, 650}";
}
);
background = {
paths = (
{
closed = 1;
nodes = (
"767 575 LINE",
"767 590 LINE",
"735 650 LINE",
"-31 650 LINE",
"-31 634 LINE",
"0 575 LINE",
"513 575 LINE",
"513 483 LINE",
"453 480 OFFCURVE",
"407 445 OFFCURVE",
"407 379 CURVE SMOOTH",
"407 286 OFFCURVE",
"492 206 OFFCURVE",
"578 169 CURVE",
"512 92 OFFCURVE",
"407 45 OFFCURVE",
"307 45 CURVE SMOOTH",
"251 45 OFFCURVE",
"206 89 OFFCURVE",
"206 122 CURVE SMOOTH",
"206 159 OFFCURVE",
"233 215 OFFCURVE",
"294 215 CURVE SMOOTH",
"317 215 OFFCURVE",
"345 212 OFFCURVE",
"365 207 CURVE",
"375 233 LINE",
"356 278 LINE",
"333 283 OFFCURVE",
"302 285 OFFCURVE",
"268 285 CURVE SMOOTH",
"248 285 OFFCURVE",
"227 280 OFFCURVE",
"210 273 CURVE",
"176 273 OFFCURVE",
"134 301 OFFCURVE",
"134 335 CURVE SMOOTH",
"134 383 OFFCURVE",
"173 408 OFFCURVE",
"212 408 CURVE SMOOTH",
"242 408 OFFCURVE",
"286 397 OFFCURVE",
"317 380 CURVE",
"284 458 LINE",
"269 465 OFFCURVE",
"234 474 OFFCURVE",
"195 474 CURVE SMOOTH",
"117 474 OFFCURVE",
"59 416 OFFCURVE",
"59 358 CURVE SMOOTH",
"59 312 OFFCURVE",
"100 280 OFFCURVE",
"159 238 CURVE",
"134 213 OFFCURVE",
"119 180 OFFCURVE",
"119 148 CURVE SMOOTH",
"119 97 OFFCURVE",
"254 -27 OFFCURVE",
"358 -27 CURVE SMOOTH",
"536 -27 OFFCURVE",
"713 133 OFFCURVE",
"713 303 CURVE SMOOTH",
"713 397 OFFCURVE",
"657 445 OFFCURVE",
"601 467 CURVE",
"601 575 LINE"
);
},
{
closed = 1;
nodes = (
"483 400 OFFCURVE",
"510 422 OFFCURVE",
"547 422 CURVE SMOOTH",
"589 422 OFFCURVE",
"641 398 OFFCURVE",
"641 334 CURVE SMOOTH",
"641 290 OFFCURVE",
"629 249 OFFCURVE",
"608 212 CURVE",
"550 234 OFFCURVE",
"483 292 OFFCURVE",
"483 354 CURVE SMOOTH"
);
}
);
};
layerId = "39185045-6A8C-415A-8312-7B8F11386A4C";
name = Regular;
paths = (
{
closed = 1;
nodes = (
"473 484 OFFCURVE",
"407 460 OFFCURVE",
"407 379 CURVE SMOOTH",
"407 280 OFFCURVE",
"502 199 OFFCURVE",
"588 165 CURVE",
"618 209 LINE",
"559 227 OFFCURVE",
"483 287 OFFCURVE",
"483 354 CURVE SMOOTH",
"483 400 OFFCURVE",
"510 422 OFFCURVE",
"547 422 CURVE SMOOTH",
"589 422 OFFCURVE",
"641 398 OFFCURVE",
"641 334 CURVE SMOOTH",
"641 178 OFFCURVE",
"483 45 OFFCURVE",
"307 45 CURVE SMOOTH",
"251 45 OFFCURVE",
"206 89 OFFCURVE",
"206 122 CURVE SMOOTH",
"206 159 OFFCURVE",
"233 215 OFFCURVE",
"294 215 CURVE SMOOTH",
"317 215 OFFCURVE",
"345 212 OFFCURVE",
"365 207 CURVE",
"375 233 LINE",
"356 278 LINE",
"333 283 OFFCURVE",
"302 285 OFFCURVE",
"268 285 CURVE SMOOTH",
"194 285 OFFCURVE",
"119 222 OFFCURVE",
"119 148 CURVE SMOOTH",
"119 97 OFFCURVE",
"254 -27 OFFCURVE",
"358 -27 CURVE SMOOTH",
"536 -27 OFFCURVE",
"713 133 OFFCURVE",
"713 303 CURVE SMOOTH",
"713 444 OFFCURVE",
"584 484 OFFCURVE",
"526 484 CURVE"
);
},
{
closed = 1;
nodes = (
"117 474 OFFCURVE",
"59 416 OFFCURVE",
"59 358 CURVE SMOOTH",
"59 309 OFFCURVE",
"106 276 OFFCURVE",
"165 234 CURVE",
"216 274 LINE",
"185 269 OFFCURVE",
"134 297 OFFCURVE",
"134 335 CURVE SMOOTH",
"134 383 OFFCURVE",
"173 408 OFFCURVE",
"212 408 CURVE SMOOTH",
"242 408 OFFCURVE",
"286 397 OFFCURVE",
"317 380 CURVE",
"284 458 LINE",
"269 465 OFFCURVE",
"234 474 OFFCURVE",
"195 474 CURVE SMOOTH"
);
},
{
closed = 1;
nodes = (
"-31 650 LINE",
"-31 634 LINE",
"0 575 LINE",
"767 575 LINE",
"767 590 LINE",
"735 650 LINE"
);
},
{
closed = 1;
nodes = (
"513 595 LINE",
"513 453 LINE",
"601 437 LINE",
"601 595 LINE"
);
}
);
width = 767;
},
{
anchors = (
{
name = bottom;
position = "{489, 0}";
},
{
name = top;
position = "{489, 634}";
}
);
background = {
paths = (
{
closed = 1;
nodes = (
"473 484 OFFCURVE",
"407 460 OFFCURVE",
"407 379 CURVE SMOOTH",
"407 280 OFFCURVE",
"502 199 OFFCURVE",
"588 165 CURVE",
"618 209 LINE",
"559 227 OFFCURVE",
"483 287 OFFCURVE",
"483 354 CURVE SMOOTH",
"483 400 OFFCURVE",
"510 422 OFFCURVE",
"547 422 CURVE SMOOTH",
"589 422 OFFCURVE",
"641 398 OFFCURVE",
"641 334 CURVE SMOOTH",
"641 178 OFFCURVE",
"483 45 OFFCURVE",
"307 45 CURVE SMOOTH",
"251 45 OFFCURVE",
"206 89 OFFCURVE",
"206 122 CURVE SMOOTH",
"206 159 OFFCURVE",
"233 215 OFFCURVE",
"294 215 CURVE SMOOTH",
"317 215 OFFCURVE",
"345 212 OFFCURVE",
"365 207 CURVE",
"375 233 LINE",
"356 278 LINE",
"333 283 OFFCURVE",
"302 285 OFFCURVE",
"268 285 CURVE SMOOTH",
"194 285 OFFCURVE",
"119 222 OFFCURVE",
"119 148 CURVE SMOOTH",
"119 97 OFFCURVE",
"254 -27 OFFCURVE",
"358 -27 CURVE SMOOTH",
"536 -27 OFFCURVE",
"713 133 OFFCURVE",
"713 303 CURVE SMOOTH",
"713 444 OFFCURVE",
"584 484 OFFCURVE",
"526 484 CURVE"
);
},
{
closed = 1;
nodes = (
"117 474 OFFCURVE",
"59 416 OFFCURVE",
"59 358 CURVE SMOOTH",
"59 309 OFFCURVE",
"106 276 OFFCURVE",
"165 234 CURVE",
"216 274 LINE",
"185 269 OFFCURVE",
"134 297 OFFCURVE",
"134 335 CURVE SMOOTH",
"134 383 OFFCURVE",
"173 408 OFFCURVE",
"212 408 CURVE SMOOTH",
"242 408 OFFCURVE",
"286 397 OFFCURVE",
"317 380 CURVE",
"284 458 LINE",
"269 465 OFFCURVE",
"234 474 OFFCURVE",
"195 474 CURVE SMOOTH"
);
},
{
closed = 1;
nodes = (
"-31 650 LINE",
"-31 634 LINE",
"0 575 LINE",
"767 575 LINE",
"767 590 LINE",
"735 650 LINE"
);
},
{
closed = 1;
nodes = (
"513 595 LINE",
"513 453 LINE",
"601 437 LINE",
"601 595 LINE"
);
}
);
};
layerId = "E777F328-EA17-4AE7-9EBA-8002E537BA4F";
name = Light;
paths = (
{
closed = 1;
nodes = (
"413 477 OFFCURVE",
"367 442 OFFCURVE",
"367 374 CURVE SMOOTH",
"367 259 OFFCURVE",
"481 201 OFFCURVE",
"569 165 CURVE",
"590 208 LINE",
"518 224 OFFCURVE",
"417 288 OFFCURVE",
"417 362 CURVE SMOOTH",
"417 416 OFFCURVE",
"457 433 OFFCURVE",
"489 434 CURVE SMOOTH",
"546 433 OFFCURVE",
"592 388 OFFCURVE",
"592 328 CURVE SMOOTH",
"592 178 OFFCURVE",
"438 58 OFFCURVE",
"258 57 CURVE SMOOTH",
"207 57 OFFCURVE",
"160 79 OFFCURVE",
"160 122 CURVE SMOOTH",
"160 174 OFFCURVE",
"205 225 OFFCURVE",
"279 225 CURVE SMOOTH",
"295 225 OFFCURVE",
"311 224 OFFCURVE",
"328 219 CURVE",
"331 228 LINE",
"312 266 LINE",
"294 271 OFFCURVE",
"268 275 OFFCURVE",
"247 275 CURVE SMOOTH",
"184 275 OFFCURVE",
"115 223 OFFCURVE",
"115 145 CURVE SMOOTH",
"115 63 OFFCURVE",
"202 6 OFFCURVE",
"283 7 CURVE SMOOTH",
"459 9 OFFCURVE",
"642 157 OFFCURVE",
"642 308 CURVE SMOOTH",
"641 416 OFFCURVE",
"551 478 OFFCURVE",
"469 478 CURVE"
);
},
{
closed = 1;
nodes = (
"104 470 OFFCURVE",
"51 413 OFFCURVE",
"51 358 CURVE SMOOTH",
"51 281 OFFCURVE",
"95 256 OFFCURVE",
"166 221 CURVE",
"202 258 LINE",
"170 263 OFFCURVE",
"95 292 OFFCURVE",
"95 345 CURVE SMOOTH",
"95 395 OFFCURVE",
"147 420 OFFCURVE",
"189 420 CURVE SMOOTH",
"215 419 OFFCURVE",
"234 417 OFFCURVE",
"265 403 CURVE",
"242 458 LINE",
"228 464 OFFCURVE",
"200 470 OFFCURVE",
"169 470 CURVE SMOOTH"
);
},
{
closed = 1;
nodes = (
"-29 634 LINE",
"-29 624 LINE",
"-12 590 LINE",
"708 590 LINE",
"708 601 LINE",
"689 634 LINE"
);
},
{
closed = 1;
nodes = (
"462 615 LINE",
"462 447 LINE",
"516 447 LINE",
"516 615 LINE"
);
}
);
width = 708;
},
{
layerId = "B26750D4-52C5-4F85-819B-BFB2F142DAD5";
name = Bold;
paths = (
{
closed = 1;
nodes = (
"473 484 OFFCURVE",
"407 460 OFFCURVE",
"407 379 CURVE SMOOTH",
"407 280 OFFCURVE",
"502 199 OFFCURVE",
"588 165 CURVE",
"618 209 LINE",
"559 227 OFFCURVE",
"483 287 OFFCURVE",
"483 354 CURVE SMOOTH",
"483 400 OFFCURVE",
"510 422 OFFCURVE",
"547 422 CURVE SMOOTH",
"589 422 OFFCURVE",
"641 398 OFFCURVE",
"641 334 CURVE SMOOTH",
"641 178 OFFCURVE",
"483 45 OFFCURVE",
"307 45 CURVE SMOOTH",
"251 45 OFFCURVE",
"206 89 OFFCURVE",
"206 122 CURVE SMOOTH",
"206 159 OFFCURVE",
"233 215 OFFCURVE",
"294 215 CURVE SMOOTH",
"317 215 OFFCURVE",
"345 212 OFFCURVE",
"365 207 CURVE",
"375 233 LINE",
"356 278 LINE",
"333 283 OFFCURVE",
"302 285 OFFCURVE",
"268 285 CURVE SMOOTH",
"194 285 OFFCURVE",
"119 222 OFFCURVE",
"119 148 CURVE SMOOTH",
"119 97 OFFCURVE",
"254 -27 OFFCURVE",
"358 -27 CURVE SMOOTH",
"536 -27 OFFCURVE",
"713 133 OFFCURVE",
"713 303 CURVE SMOOTH",
"713 444 OFFCURVE",
"584 484 OFFCURVE",
"526 484 CURVE"
);
},
{
closed = 1;
nodes = (
"117 474 OFFCURVE",
"59 416 OFFCURVE",
"59 358 CURVE SMOOTH",
"59 309 OFFCURVE",
"106 276 OFFCURVE",
"165 234 CURVE",
"216 274 LINE",
"185 269 OFFCURVE",
"134 297 OFFCURVE",
"134 335 CURVE SMOOTH",
"134 383 OFFCURVE",
"173 408 OFFCURVE",
"212 408 CURVE SMOOTH",
"242 408 OFFCURVE",
"286 397 OFFCURVE",
"317 380 CURVE",
"284 458 LINE",
"269 465 OFFCURVE",
"234 474 OFFCURVE",
"195 474 CURVE SMOOTH"
);
},
{
closed = 1;
nodes = (
"-31 650 LINE",
"-31 634 LINE",
"0 575 LINE",
"767 575 LINE",
"767 590 LINE",
"735 650 LINE"
);
},
{
closed = 1;
nodes = (
"513 595 LINE",
"513 453 LINE",
"601 437 LINE",
"601 595 LINE"
);
}
);
width = 767;
}
);
unicode = 091B;
},
{
glyphname = "ja-deva";
lastChange = "2014-07-04 14:47:56 +0100";
layers = (
{
anchors = (
{
name = bottom;
position = "{586, 0}";
},
{
name = nukta;
position = "{419, 83}";
},
{
name = top;
position = "{586, 650}";
}
);
background = {
paths = (
{
closed = 1;
nodes = (
"420 -140 LINE",
"497 -61 LINE",
"419 18 LINE",
"342 -61 LINE"
);
},
{
closed = 1;
nodes = (
"740 575 LINE",
"740 590 LINE",
"709 650 LINE",
"-31 650 LINE",
"-31 634 LINE",
"0 575 LINE",
"542 575 LINE",
"542 441 LINE",
"214 441 LINE",
"200 408 LINE",
"261 374 OFFCURVE",
"354 300 OFFCURVE",
"354 228 CURVE SMOOTH",
"354 189 OFFCURVE",
"327 148 OFFCURVE",
"286 148 CURVE SMOOTH",
"180 148 OFFCURVE",
"100 340 OFFCURVE",
"63 428 CURVE",
"20 412 LINE",
"65 289 OFFCURVE",
"143 63 OFFCURVE",
"305 63 CURVE SMOOTH",
"374 63 OFFCURVE",
"432 125 OFFCURVE",
"432 208 CURVE SMOOTH",
"432 260 OFFCURVE",
"388 319 OFFCURVE",
"337 366 CURVE",
"542 366 LINE",
"542 -1 LINE",
"615 -42 LINE",
"630 -42 LINE",
"630 575 LINE"
);
}
);
};
layerId = "39185045-6A8C-415A-8312-7B8F11386A4C";
name = Regular;
paths = (
{
closed = 1;
nodes = (
"200 408 LINE",
"261 374 OFFCURVE",
"354 300 OFFCURVE",
"354 228 CURVE SMOOTH",
"354 189 OFFCURVE",
"327 148 OFFCURVE",
"286 148 CURVE SMOOTH",
"180 148 OFFCURVE",
"100 340 OFFCURVE",
"63 428 CURVE",
"20 412 LINE",
"65 289 OFFCURVE",
"143 63 OFFCURVE",
"305 63 CURVE SMOOTH",
"374 63 OFFCURVE",
"432 125 OFFCURVE",
"432 208 CURVE SMOOTH",
"432 280 OFFCURVE",
"337 394 OFFCURVE",
"214 441 CURVE"
);
},
{
closed = 1;
nodes = (
"214 441 LINE",
"297 366 LINE",
"572 366 LINE",
"572 441 LINE"
);
},
{
closed = 1;
nodes = (
"542 605 LINE",
"542 -1 LINE",
"615 -42 LINE",
"630 -42 LINE",
"630 605 LINE"
);
},
{
closed = 1;
nodes = (
"-31 650 LINE",
"-31 634 LINE",
"0 575 LINE",
"740 575 LINE",
"740 590 LINE",
"709 650 LINE"
);
}
);
width = 740;
},
{
anchors = (
{
name = bottom;
position = "{535, 0}";
},
{
name = top;
position = "{535, 634}";
}
);
background = {
paths = (
{
closed = 1;
nodes = (
"28 409 LINE",
"72 302 OFFCURVE",
"153 103 OFFCURVE",
"305 103 CURVE SMOOTH",
"364 103 OFFCURVE",
"402 146 OFFCURVE",
"402 198 CURVE SMOOTH",
"402 279 OFFCURVE",
"298 389 OFFCURVE",
"214 425 CURVE",
"200 392 LINE",
"256 359 OFFCURVE",
"343 287 OFFCURVE",
"343 218 CURVE SMOOTH",
"343 187 OFFCURVE",
"327 166 OFFCURVE",
"286 166 CURVE SMOOTH",
"180 166 OFFCURVE",
"93 348 OFFCURVE",
"58 428 CURVE"
);
},
{
closed = 1;
nodes = (
"214 425 LINE",
"267 382 LINE",
"522 382 LINE",
"522 425 LINE"
);
},
{
closed = 1;
nodes = (
"511 605 LINE",
"510 11 LINE",
"549 -11 LINE",
"561 -11 LINE",
"561 605 LINE"
);
},
{
closed = 1;
nodes = (
"-29 634 LINE",
"-29 624 LINE",
"-12 590 LINE",
"679 590 LINE",
"679 601 LINE",
"660 634 LINE"
);
}
);
};
layerId = "E777F328-EA17-4AE7-9EBA-8002E537BA4F";
name = Light;
paths = (
{
closed = 1;
nodes = (
"28 409 LINE",
"72 304 OFFCURVE",
"153 110 OFFCURVE",
"305 110 CURVE SMOOTH",
"361 110 OFFCURVE",
"397 150 OFFCURVE",
"397 198 CURVE SMOOTH",
"397 293 OFFCURVE",
"286 390 OFFCURVE",
"214 425 CURVE",
"200 392 LINE",
"258 359 OFFCURVE",
"347 287 OFFCURVE",
"347 218 CURVE SMOOTH",
"347 183 OFFCURVE",
"330 160 OFFCURVE",
"286 160 CURVE SMOOTH",
"180 160 OFFCURVE",
"93 346 OFFCURVE",
"58 428 CURVE"
);
},
{
closed = 1;
nodes = (
"214 425 LINE",
"267 382 LINE",
"522 382 LINE",
"522 425 LINE"
);
},
{
closed = 1;
nodes = (
"509 605 LINE",
"508 13 LINE",
"551 -11 LINE",
"563 -11 LINE",
"563 605 LINE"
);
},
{
closed = 1;
nodes = (
"-29 634 LINE",
"-29 624 LINE",
"-12 590 LINE",
"679 590 LINE",
"679 601 LINE",
"660 634 LINE"
);
}
);
width = 679;
},
{
layerId = "B26750D4-52C5-4F85-819B-BFB2F142DAD5";
name = Bold;
paths = (
{
closed = 1;
nodes = (
"200 408 LINE",
"261 374 OFFCURVE",
"354 300 OFFCURVE",
"354 228 CURVE SMOOTH",
"354 189 OFFCURVE",
"327 148 OFFCURVE",
"286 148 CURVE SMOOTH",
"180 148 OFFCURVE",
"100 340 OFFCURVE",
"63 428 CURVE",
"20 412 LINE",
"65 289 OFFCURVE",
"143 63 OFFCURVE",
"305 63 CURVE SMOOTH",
"374 63 OFFCURVE",
"432 125 OFFCURVE",
"432 208 CURVE SMOOTH",
"432 280 OFFCURVE",
"337 394 OFFCURVE",
"214 441 CURVE"
);
},
{
closed = 1;
nodes = (
"214 441 LINE",
"297 366 LINE",
"572 366 LINE",
"572 441 LINE"
);
},
{
closed = 1;
nodes = (
"542 605 LINE",
"542 -1 LINE",
"615 -42 LINE",
"630 -42 LINE",
"630 605 LINE"
);
},
{
closed = 1;
nodes = (
"-31 650 LINE",
"-31 634 LINE",
"0 575 LINE",
"740 575 LINE",
"740 590 LINE",
"709 650 LINE"
);
}
);
width = 740;
}
);
unicode = 091C;
},
{
glyphname = "jha-deva";
lastChange = "2014-07-08 15:45:06 +0100";
layers = (
{
anchors = (
{
name = bottom;
position = "{633, 0}";
},
{
name = top;
position = "{633, 650}";
}
);
layerId = "39185045-6A8C-415A-8312-7B8F11386A4C";
name = Regular;
paths = (
{
closed = 1;
nodes = (
"-31 650 LINE",
"-31 634 LINE",
"0 575 LINE",
"319 575 LINE",
"319 495 LINE",
"175 495 LINE SMOOTH",
"116 495 OFFCURVE",
"82 447 OFFCURVE",
"82 373 CURVE SMOOTH",
"82 305 OFFCURVE",
"180 214 OFFCURVE",
"226 214 CURVE SMOOTH",
"275 214 OFFCURVE",
"339 244 OFFCURVE",
"372 244 CURVE",
"388 237 OFFCURVE",
"397 201 OFFCURVE",
"397 177 CURVE SMOOTH",
"397 104 OFFCURVE",
"289 72 OFFCURVE",
"175 72 CURVE",
"187 147 LINE",
"180 150 OFFCURVE",
"166 152 OFFCURVE",
"154 152 CURVE SMOOTH",
"119 152 OFFCURVE",
"61 136 OFFCURVE",
"61 81 CURVE SMOOTH",
"61 23 OFFCURVE",
"158 -3 OFFCURVE",
"222 -3 CURVE SMOOTH",
"336 -3 OFFCURVE",
"441 67 OFFCURVE",
"441 149 CURVE SMOOTH",
"441 220 OFFCURVE",
"393 319 OFFCURVE",
"334 319 CURVE SMOOTH",
"296 319 OFFCURVE",
"231 289 OFFCURVE",
"180 289 CURVE SMOOTH",
"161 289 OFFCURVE",
"139 317 OFFCURVE",
"139 346 CURVE SMOOTH",
"139 374 OFFCURVE",
"151 415 OFFCURVE",
"198 415 CURVE SMOOTH",
"407 415 LINE",
"407 575 LINE",
"590 575 LINE",
"590 -1 LINE",
"662 -42 LINE",
"677 -42 LINE",
"677 575 LINE",
"787 575 LINE",
"787 590 LINE",
"755 650 LINE"
);
},
{
closed = 1;
nodes = (
"126 24 LINE",
"294 -168 LINE",
"340 -134 LINE",
"170 25 LINE"
);
},
{
closed = 1;
nodes = (
"582 297 OFFCURVE",
"544 280 OFFCURVE",
"494 280 CURVE SMOOTH",
"451 280 OFFCURVE",
"416 287 OFFCURVE",
"384 295 CURVE",
"393 256 LINE",
"416 256 LINE",
"456 225 OFFCURVE",
"490 202 OFFCURVE",
"534 202 CURVE SMOOTH",
"550 202 OFFCURVE",
"576 207 OFFCURVE",
"588 210 CURVE",
"609 210 LINE",
"600 312 LINE"
);
}
);
width = 787;
},
{
anchors = (
{
name = bottom;
position = "{598, 0}";
},
{
name = top;
position = "{598, 634}";
}
);
background = {
paths = (
{
closed = 1;
nodes = (
"-53 659 LINE",
"-53 643 LINE",
"-22 584 LINE",
"297 584 LINE",
"297 504 LINE",
"153 504 LINE SMOOTH",
"94 504 OFFCURVE",
"60 456 OFFCURVE",
"60 382 CURVE SMOOTH",
"60 314 OFFCURVE",
"158 223 OFFCURVE",
"204 223 CURVE SMOOTH",
"253 223 OFFCURVE",
"317 253 OFFCURVE",
"350 253 CURVE",
"366 246 OFFCURVE",
"375 210 OFFCURVE",
"375 186 CURVE SMOOTH",
"375 113 OFFCURVE",
"267 81 OFFCURVE",
"153 81 CURVE",
"165 156 LINE",
"158 159 OFFCURVE",
"144 161 OFFCURVE",
"132 161 CURVE SMOOTH",
"97 161 OFFCURVE",
"39 145 OFFCURVE",
"39 90 CURVE SMOOTH",
"39 32 OFFCURVE",
"136 6 OFFCURVE",
"200 6 CURVE SMOOTH",
"314 6 OFFCURVE",
"419 76 OFFCURVE",
"419 158 CURVE SMOOTH",
"419 229 OFFCURVE",
"371 328 OFFCURVE",
"312 328 CURVE SMOOTH",
"274 328 OFFCURVE",
"209 298 OFFCURVE",
"158 298 CURVE SMOOTH",
"139 298 OFFCURVE",
"117 326 OFFCURVE",
"117 355 CURVE SMOOTH",
"117 383 OFFCURVE",
"129 424 OFFCURVE",
"176 424 CURVE SMOOTH",
"385 424 LINE",
"385 584 LINE",
"568 584 LINE",
"568 8 LINE",
"640 -33 LINE",
"655 -33 LINE",
"655 584 LINE",
"765 584 LINE",
"765 599 LINE",
"733 659 LINE"
);
},
{
closed = 1;
nodes = (
"104 33 LINE",
"272 -159 LINE",
"318 -125 LINE",
"148 34 LINE"
);
},
{
closed = 1;
nodes = (
"560 306 OFFCURVE",
"522 289 OFFCURVE",
"472 289 CURVE SMOOTH",
"429 289 OFFCURVE",
"394 296 OFFCURVE",
"362 304 CURVE",
"371 265 LINE",
"394 265 LINE",
"434 234 OFFCURVE",
"468 211 OFFCURVE",
"512 211 CURVE SMOOTH",
"528 211 OFFCURVE",
"554 216 OFFCURVE",
"566 219 CURVE",
"587 219 LINE",
"578 321 LINE"
);
}
);
};
layerId = "E777F328-EA17-4AE7-9EBA-8002E537BA4F";
name = Light;
paths = (
{
closed = 1;
nodes = (
"-29 634 LINE",
"-29 624 LINE",
"-12 590 LINE",
"316 590 LINE",
"316 481 LINE",
"165 481 LINE SMOOTH",
"109 481 OFFCURVE",
"76 443 OFFCURVE",
"76 383 CURVE SMOOTH",
"76 329 OFFCURVE",
"143 245 OFFCURVE",
"197 245 CURVE SMOOTH",
"245 245 OFFCURVE",
"304 273 OFFCURVE",
"337 273 CURVE",
"349 267 OFFCURVE",
"372 241 OFFCURVE",
"372 196 CURVE SMOOTH",
"372 115 OFFCURVE",
"263 87 OFFCURVE",
"158 87 CURVE",
"170 161 LINE",
"162 164 OFFCURVE",
"152 165 OFFCURVE",
"143 165 CURVE SMOOTH",
"110 165 OFFCURVE",
"66 144 OFFCURVE",
"66 102 CURVE SMOOTH",
"66 57 OFFCURVE",
"136 43 OFFCURVE",
"209 43 CURVE SMOOTH",
"320 43 OFFCURVE",
"422 104 OFFCURVE",
"422 171 CURVE SMOOTH",
"422 234 OFFCURVE",
"381 317 OFFCURVE",
"321 317 CURVE SMOOTH",
"286 317 OFFCURVE",
"228 289 OFFCURVE",
"180 289 CURVE SMOOTH",
"160 289 OFFCURVE",
"126 324 OFFCURVE",
"126 362 CURVE SMOOTH",
"126 397 OFFCURVE",
"139 437 OFFCURVE",
"186 437 CURVE SMOOTH",
"370 437 LINE",
"370 590 LINE",
"572 590 LINE",
"571 11 LINE",
"614 -11 LINE",
"626 -11 LINE",
"626 590 LINE",
"742 590 LINE",
"742 601 LINE",
"723 634 LINE"
);
},
{
closed = 1;
nodes = (
"107 63 LINE",
"277 -131 LINE SMOOTH",
"321 -98 LINE SMOOTH",
"151 60 LINE"
);
},
{
closed = 1;
nodes = (
"548 297 OFFCURVE",
"505 285 OFFCURVE",
"472 285 CURVE SMOOTH",
"426 285 OFFCURVE",
"381 298 OFFCURVE",
"353 307 CURVE",
"386 265 LINE",
"398 265 LINE",
"417 257 OFFCURVE",
"456 235 OFFCURVE",
"505 235 CURVE SMOOTH",
"532 235 OFFCURVE",
"556 245 OFFCURVE",
"569 251 CURVE",
"581 251 LINE",
"575 316 LINE"
);
}
);
width = 742;
},
{
layerId = "B26750D4-52C5-4F85-819B-BFB2F142DAD5";
name = Bold;
paths = (
{
closed = 1;
nodes = (
"-55 669 LINE",
"-55 647 LINE",
"-9 556 LINE",
"320 556 LINE",
"320 489 LINE",
"191 489 LINE SMOOTH",
"133 489 OFFCURVE",
"84 458 OFFCURVE",
"84 351 CURVE SMOOTH",
"84 250 OFFCURVE",
"190 170 OFFCURVE",
"238 170 CURVE SMOOTH",
"274 170 OFFCURVE",
"334 199 OFFCURVE",
"421 199 CURVE",
"432 190 OFFCURVE",
"440 164 OFFCURVE",
"440 147 CURVE SMOOTH",
"440 94 OFFCURVE",
"313 59 OFFCURVE",
"205 59 CURVE",
"219 140 LINE",
"211 145 OFFCURVE",
"186 149 OFFCURVE",
"174 149 CURVE SMOOTH",
"117 149 OFFCURVE",
"74 126 OFFCURVE",
"74 71 CURVE SMOOTH",
"74 14 OFFCURVE",
"149 -48 OFFCURVE",
"264 -48 CURVE",
"371 -48 OFFCURVE",
"493 20 OFFCURVE",
"493 125 CURVE SMOOTH",
"493 222 OFFCURVE",
"430 318 OFFCURVE",
"377 318 CURVE SMOOTH",
"305 318 OFFCURVE",
"265 286 OFFCURVE",
"191 286 CURVE SMOOTH",
"172 286 OFFCURVE",
"149 301 OFFCURVE",
"149 320 CURVE SMOOTH",
"149 340 OFFCURVE",
"156 372 OFFCURVE",
"224 372 CURVE SMOOTH",
"454 372 LINE",
"454 556 LINE",
"647 556 LINE",
"647 26 LINE",
"758 -37 LINE",
"781 -37 LINE",
"781 556 LINE",
"868 556 LINE",
"868 577 LINE",
"819 669 LINE"
);
},
{
closed = 1;
nodes = (
"156 15 LINE",
"324 -178 LINE",
"396 -124 LINE",
"200 16 LINE"
);
},
{
closed = 1;
nodes = (
"651 278 OFFCURVE",
"613 260 OFFCURVE",
"544 260 CURVE SMOOTH",
"500 260 OFFCURVE",
"449 279 OFFCURVE",
"418 301 CURVE",
"416 217 LINE",
"477 217 LINE",
"507 166 OFFCURVE",
"556 134 OFFCURVE",
"587 134 CURVE SMOOTH",
"613 134 OFFCURVE",
"631 141 OFFCURVE",
"645 146 CURVE",
"676 146 LINE",
"675 296 LINE"
);
}
);
width = 868;
}
);
unicode = 091D;
},
{
glyphname = "nya-deva";
lastChange = "2014-07-04 20:16:03 +0100";
layers = (
{
anchors = (
{
name = bottom;
position = "{619, 0}";
},
{
name = top;
position = "{619, 650}";
}
);
background = {
paths = (
{
closed = 1;
nodes = (
"772 575 LINE",
"772 590 LINE",
"741 650 LINE",
"-31 650 LINE",
"-31 634 LINE",
"0 575 LINE",
"575 575 LINE",
"575 340 LINE",
"548 317 OFFCURVE",
"502 312 OFFCURVE",
"473 313 CURVE",
"448 388 OFFCURVE",
"354 451 OFFCURVE",
"293 451 CURVE SMOOTH",
"264 451 OFFCURVE",
"224 433 OFFCURVE",
"184 406 CURVE",
"245 331 LINE",
"272 352 OFFCURVE",
"312 376 OFFCURVE",
"340 376 CURVE SMOOTH",
"386 376 OFFCURVE",
"408 332 OFFCURVE",
"408 300 CURVE SMOOTH",
"408 245 OFFCURVE",
"361 203 OFFCURVE",
"297 203 CURVE SMOOTH",
"218 203 OFFCURVE",
"148 259 OFFCURVE",
"48 359 CURVE",
"14 331 LINE",
"122 202 OFFCURVE",
"227 119 OFFCURVE",
"326 119 CURVE SMOOTH",
"416 119 OFFCURVE",
"470 188 OFFCURVE",
"479 260 CURVE",
"482 260 LINE",
"495 254 OFFCURVE",
"518 239 OFFCURVE",
"538 239 CURVE SMOOTH",
"549 239 OFFCURVE",
"560 242 OFFCURVE",
"573 252 CURVE",
"575 252 LINE",
"575 -1 LINE",
"647 -42 LINE",
"663 -42 LINE",
"663 575 LINE"
);
}
);
};
layerId = "39185045-6A8C-415A-8312-7B8F11386A4C";
name = Regular;
paths = (
{
closed = 1;
nodes = (
"264 451 OFFCURVE",
"224 433 OFFCURVE",
"184 406 CURVE",
"245 331 LINE",
"272 352 OFFCURVE",
"312 376 OFFCURVE",
"340 376 CURVE SMOOTH",
"386 376 OFFCURVE",
"408 332 OFFCURVE",
"408 300 CURVE SMOOTH",
"408 245 OFFCURVE",
"361 203 OFFCURVE",
"297 203 CURVE SMOOTH",
"218 203 OFFCURVE",
"148 259 OFFCURVE",
"48 359 CURVE",
"14 331 LINE",
"122 202 OFFCURVE",
"227 119 OFFCURVE",
"326 119 CURVE SMOOTH",
"422 119 OFFCURVE",
"480 199 OFFCURVE",
"480 278 CURVE",
"480 359 OFFCURVE",
"369 451 OFFCURVE",
"293 451 CURVE SMOOTH"
);
},
{
closed = 1;
nodes = (
"553 319 OFFCURVE",
"509 312 OFFCURVE",
"473 313 CURVE",
"439 260 LINE",
"482 260 LINE",
"495 254 OFFCURVE",
"518 239 OFFCURVE",
"538 239 CURVE SMOOTH",
"558 239 OFFCURVE",
"572 250 OFFCURVE",
"584 262 CURVE",
"580 344 LINE"
);
},
{
closed = 1;
nodes = (
"575 615 LINE",
"575 300 LINE",
"543 252 LINE",
"575 252 LINE",
"575 -1 LINE",
"647 -42 LINE",
"663 -42 LINE",
"663 615 LINE"
);
},
{
closed = 1;
nodes = (
"-31 650 LINE",
"-31 634 LINE",
"0 575 LINE",
"772 575 LINE",
"772 590 LINE",
"741 650 LINE"
);
}
);
width = 772;
},
{
anchors = (
{
name = bottom;
position = "{535, 0}";
},
{
name = top;
position = "{535, 634}";
}
);
background = {
paths = (
{
closed = 1;
nodes = (
"223 442 OFFCURVE",
"183 424 OFFCURVE",
"147 395 CURVE",
"187 346 LINE",
"221 370 OFFCURVE",
"259 384 OFFCURVE",
"294 384 CURVE SMOOTH",
"328 384 OFFCURVE",
"370 346 OFFCURVE",
"370 301 CURVE SMOOTH",
"370 253 OFFCURVE",
"329 196 OFFCURVE",
"249 195 CURVE SMOOTH",
"166 194 OFFCURVE",
"108 250 OFFCURVE",
"29 350 CURVE",
"3 330 LINE",
"67 239 OFFCURVE",
"148 145 OFFCURVE",
"268 145 CURVE SMOOTH",
"337 145 OFFCURVE",
"415 190 OFFCURVE",
"415 278 CURVE SMOOTH",
"415 397 OFFCURVE",
"304 442 OFFCURVE",
"250 442 CURVE SMOOTH"
);
},
{
closed = 1;
nodes = (
"488 312 OFFCURVE",
"444 297 OFFCURVE",
"408 308 CURVE",
"374 269 LINE",
"417 269 LINE",
"430 263 OFFCURVE",
"453 248 OFFCURVE",
"473 248 CURVE SMOOTH",
"493 248 OFFCURVE",
"507 259 OFFCURVE",
"519 271 CURVE",
"515 328 LINE"
);
},
{
closed = 1;
nodes = (
"511 605 LINE",
"510 308 LINE",
"460 261 LINE",
"510 261 LINE",
"510 11 LINE",
"549 -11 LINE",
"561 -11 LINE",
"561 605 LINE"
);
},
{
closed = 1;
nodes = (
"-29 634 LINE",
"-29 624 LINE",
"-12 590 LINE",
"679 590 LINE",
"679 601 LINE",
"660 634 LINE"
);
},
{
closed = 1;
nodes = (
"0 331 LINE",
"44 226 OFFCURVE",
"125 32 OFFCURVE",
"277 32 CURVE SMOOTH",
"333 32 OFFCURVE",
"369 72 OFFCURVE",
"369 120 CURVE SMOOTH",
"369 215 OFFCURVE",
"258 312 OFFCURVE",
"186 347 CURVE",
"172 314 LINE",
"230 281 OFFCURVE",
"319 209 OFFCURVE",
"319 140 CURVE SMOOTH",
"319 105 OFFCURVE",
"302 82 OFFCURVE",
"258 82 CURVE SMOOTH",
"152 82 OFFCURVE",
"65 268 OFFCURVE",
"30 350 CURVE"
);
}
);
};
layerId = "E777F328-EA17-4AE7-9EBA-8002E537BA4F";
name = Light;
paths = (
{
closed = 1;
nodes = (
"223 438 OFFCURVE",
"186 417 OFFCURVE",
"152 393 CURVE",
"185 352 LINE",
"219 372 OFFCURVE",
"257 388 OFFCURVE",
"292 388 CURVE SMOOTH",
"328 388 OFFCURVE",
"373 348 OFFCURVE",
"373 301 CURVE SMOOTH",
"373 253 OFFCURVE",
"330 196 OFFCURVE",
"247 195 CURVE SMOOTH",
"165 194 OFFCURVE",
"105 252 OFFCURVE",
"30 350 CURVE",
"0 331 LINE",
"64 240 OFFCURVE",
"146 145 OFFCURVE",
"266 145 CURVE SMOOTH",
"335 145 OFFCURVE",
"413 190 OFFCURVE",
"413 278 CURVE SMOOTH",
"413 394 OFFCURVE",
"302 438 OFFCURVE",
"248 438 CURVE SMOOTH"
);
},
{
closed = 1;
nodes = (
"476 307 OFFCURVE",
"443 299 OFFCURVE",
"406 308 CURVE",
"371 265 LINE",
"414 265 LINE",
"427 261 OFFCURVE",
"451 254 OFFCURVE",
"471 254 CURVE SMOOTH",
"491 254 OFFCURVE",
"505 260 OFFCURVE",
"517 266 CURVE",
"513 328 LINE"
);
},
{
closed = 1;
nodes = (
"509 605 LINE",
"508 308 LINE",
"468 308 LINE",
"508 261 LINE",
"508 13 LINE",
"551 -11 LINE",
"563 -11 LINE",
"563 605 LINE"
);
},
{
closed = 1;
nodes = (
"-29 634 LINE",
"-29 624 LINE",
"-12 590 LINE",
"679 590 LINE",
"679 601 LINE",
"660 634 LINE"
);
}
);
width = 679;
},
{
layerId = "B26750D4-52C5-4F85-819B-BFB2F142DAD5";
name = Bold;
paths = (
{
closed = 1;
nodes = (
"264 451 OFFCURVE",
"224 433 OFFCURVE",
"184 406 CURVE",
"245 331 LINE",
"272 352 OFFCURVE",
"312 376 OFFCURVE",
"340 376 CURVE SMOOTH",
"386 376 OFFCURVE",
"408 332 OFFCURVE",
"408 300 CURVE SMOOTH",
"408 245 OFFCURVE",
"361 203 OFFCURVE",
"297 203 CURVE SMOOTH",
"218 203 OFFCURVE",
"148 259 OFFCURVE",
"48 359 CURVE",
"14 331 LINE",
"122 202 OFFCURVE",
"227 119 OFFCURVE",
"326 119 CURVE SMOOTH",
"422 119 OFFCURVE",
"480 199 OFFCURVE",
"480 278 CURVE",
"480 359 OFFCURVE",
"369 451 OFFCURVE",
"293 451 CURVE SMOOTH"
);
},
{
closed = 1;
nodes = (
"553 319 OFFCURVE",
"509 312 OFFCURVE",
"473 313 CURVE",
"439 260 LINE",
"482 260 LINE",
"495 254 OFFCURVE",
"518 239 OFFCURVE",
"538 239 CURVE SMOOTH",
"558 239 OFFCURVE",
"572 250 OFFCURVE",
"584 262 CURVE",
"580 344 LINE"
);
},
{
closed = 1;
nodes = (
"575 615 LINE",
"575 300 LINE",
"543 252 LINE",
"575 252 LINE",
"575 -1 LINE",
"647 -42 LINE",
"663 -42 LINE",
"663 615 LINE"
);
},
{
closed = 1;
nodes = (
"-31 650 LINE",
"-31 634 LINE",
"0 575 LINE",
"772 575 LINE",
"772 590 LINE",
"741 650 LINE"
);
}
);
width = 772;
}
);
unicode = 091E;
},
{
glyphname = "tta-deva";
lastChange = "2014-07-10 11:19:55 +0100";
layers = (
{
background = {
paths = (
{
closed = 1;
nodes = (
"219 436 OFFCURVE",
"56 416 OFFCURVE",
"56 229 CURVE SMOOTH",
"56 104 OFFCURVE",
"149 -10 OFFCURVE",
"277 -10 CURVE SMOOTH",
"450 -10 OFFCURVE",
"538 85 OFFCURVE",
"538 205 CURVE SMOOTH",
"538 314 OFFCURVE",
"458 378 OFFCURVE",
"345 443 CURVE"
);
},
{
closed = 1;
nodes = (
"406 352 OFFCURVE",
"465 306 OFFCURVE",
"465 247 CURVE SMOOTH",
"465 157 OFFCURVE",
"407 67 OFFCURVE",
"245 67 CURVE SMOOTH",
"190 67 OFFCURVE",
"108 104 OFFCURVE",
"108 200 CURVE SMOOTH",
"108 326 OFFCURVE",
"256 366 OFFCURVE",
"366 366 CURVE"
);
},
{
closed = 1;
nodes = (
"313 559 OFFCURVE",
"329 532 OFFCURVE",
"329 508 CURVE SMOOTH",
"329 478 OFFCURVE",
"318 448 OFFCURVE",
"309 435 CURVE",
"392 412 LINE",
"406 438 OFFCURVE",
"418 468 OFFCURVE",
"418 493 CURVE SMOOTH",
"418 522 OFFCURVE",
"403 550 OFFCURVE",
"384 578 CURVE",
"299 579 LINE"
);
},
{
closed = 1;
nodes = (
"-31 650 LINE",
"-31 634 LINE",
"0 575 LINE",
"612 575 LINE",
"612 590 LINE",
"580 650 LINE"
);
}
);
};
layerId = "39185045-6A8C-415A-8312-7B8F11386A4C";
name = Regular;
paths = (
{
closed = 1;
nodes = (
"-31 650 LINE",
"-31 634 LINE",
"0 575 LINE",
"314 575 LINE",
"314 440 LINE",
"203 427 OFFCURVE",
"69 386 OFFCURVE",
"69 228 CURVE SMOOTH",
"69 114 OFFCURVE",
"163 10 OFFCURVE",
"292 10 CURVE SMOOTH",
"358 10 OFFCURVE",
"436 23 OFFCURVE",
"529 75 CURVE",
"487 157 LINE",
"393 99 OFFCURVE",
"312 86 OFFCURVE",
"259 86 CURVE SMOOTH",
"204 86 OFFCURVE",
"123 114 OFFCURVE",
"123 199 CURVE SMOOTH",
"123 304 OFFCURVE",
"259 349 OFFCURVE",
"403 358 CURVE",
"403 575 LINE",
"554 575 LINE",
"554 590 LINE",
"522 650 LINE"
);
}
);
width = 554;
},
{
anchors = (
{
name = bottom;
position = "{334, 0}";
},
{
name = top;
position = "{334, 634}";
}
);
background = {
paths = (
{
closed = 1;
nodes = (
"-41 696 LINE",
"-41 680 LINE",
"-10 621 LINE",
"304 621 LINE",
"304 486 LINE",
"193 473 OFFCURVE",
"59 432 OFFCURVE",
"59 274 CURVE SMOOTH",
"59 160 OFFCURVE",
"153 56 OFFCURVE",
"282 56 CURVE SMOOTH",
"348 56 OFFCURVE",
"426 69 OFFCURVE",
"519 121 CURVE",
"477 203 LINE",
"383 145 OFFCURVE",
"302 132 OFFCURVE",
"249 132 CURVE SMOOTH",
"194 132 OFFCURVE",
"113 160 OFFCURVE",
"113 245 CURVE SMOOTH",
"113 350 OFFCURVE",
"249 395 OFFCURVE",
"393 404 CURVE",
"393 621 LINE",
"544 621 LINE",
"544 636 LINE",
"512 696 LINE"
);
}
);
};
layerId = "E777F328-EA17-4AE7-9EBA-8002E537BA4F";
name = Light;
paths = (
{
closed = 1;
nodes = (
"-29 634 LINE",
"-29 624 LINE",
"-12 590 LINE",
"308 590 LINE",
"308 459 LINE",
"213 443 OFFCURVE",
"64 402 OFFCURVE",
"64 266 CURVE SMOOTH",
"64 159 OFFCURVE",
"144 70 OFFCURVE",
"264 70 CURVE SMOOTH",
"323 70 OFFCURVE",
"399 84 OFFCURVE",
"479 128 CURVE",
"453 179 LINE",
"369 134 OFFCURVE",
"295 120 OFFCURVE",
"247 120 CURVE SMOOTH",
"193 120 OFFCURVE",
"108 151 OFFCURVE",
"108 239 CURVE SMOOTH",
"108 347 OFFCURVE",
"241 400 OFFCURVE",
"362 409 CURVE",
"362 590 LINE",
"525 590 LINE",
"525 601 LINE",
"506 634 LINE"
);
}
);
width = 503;
},
{
layerId = "B26750D4-52C5-4F85-819B-BFB2F142DAD5";
name = Bold;
paths = (
{
closed = 1;
nodes = (
"-56 669 LINE",
"-56 647 LINE",
"-9 556 LINE",
"308 556 LINE",
"308 459 LINE",
"189 445 OFFCURVE",
"66 385 OFFCURVE",
"66 238 CURVE SMOOTH",
"66 103 OFFCURVE",
"170 -9 OFFCURVE",
"318 -9 CURVE SMOOTH",
"417 -9 OFFCURVE",
"474 14 OFFCURVE",
"568 61 CURVE",
"507 180 LINE",
"419 126 OFFCURVE",
"339 104 OFFCURVE",
"275 104 CURVE SMOOTH",
"211 104 OFFCURVE",
"120 120 OFFCURVE",
"120 199 CURVE SMOOTH",
"120 295 OFFCURVE",
"273 331 OFFCURVE",
"442 340 CURVE",
"442 556 LINE",
"581 556 LINE",
"581 577 LINE",
"532 669 LINE"
);
}
);
width = 581;
}
);
unicode = 091F;
},
{
glyphname = "ttha-deva";
lastChange = "2014-07-10 13:25:03 +0100";
layers = (
{
anchors = (
{
name = bottom;
position = "{277, 0}";
},
{
name = top;
position = "{346, 650}";
}
);
background = {
paths = (
{
closed = 1;
nodes = (
"-44 650 LINE",
"-44 634 LINE",
"-13 575 LINE",
"301 575 LINE",
"301 440 LINE",
"190 427 OFFCURVE",
"56 386 OFFCURVE",
"56 228 CURVE SMOOTH",
"56 114 OFFCURVE",
"150 10 OFFCURVE",
"279 10 CURVE SMOOTH",
"345 10 OFFCURVE",
"423 23 OFFCURVE",
"516 75 CURVE",
"474 157 LINE",
"380 99 OFFCURVE",
"299 86 OFFCURVE",
"246 86 CURVE SMOOTH",
"191 86 OFFCURVE",
"110 114 OFFCURVE",
"110 199 CURVE SMOOTH",
"110 304 OFFCURVE",
"246 349 OFFCURVE",
"390 358 CURVE",
"390 575 LINE",
"541 575 LINE",
"541 590 LINE",
"509 650 LINE"
);
}
);
};
layerId = "39185045-6A8C-415A-8312-7B8F11386A4C";
name = Regular;
paths = (
{
closed = 1;
nodes = (
"219 436 OFFCURVE",
"56 416 OFFCURVE",
"56 229 CURVE SMOOTH",
"56 104 OFFCURVE",
"149 -10 OFFCURVE",
"277 -10 CURVE SMOOTH",
"450 -10 OFFCURVE",
"538 85 OFFCURVE",
"538 205 CURVE SMOOTH",
"538 314 OFFCURVE",
"458 378 OFFCURVE",
"345 443 CURVE"
);
},
{
closed = 1;
nodes = (
"406 352 OFFCURVE",
"465 306 OFFCURVE",
"465 247 CURVE SMOOTH",
"465 157 OFFCURVE",
"407 67 OFFCURVE",
"245 67 CURVE SMOOTH",
"190 67 OFFCURVE",
"108 104 OFFCURVE",
"108 200 CURVE SMOOTH",
"108 326 OFFCURVE",
"256 366 OFFCURVE",
"366 366 CURVE"
);
},
{
closed = 1;
nodes = (
"313 559 OFFCURVE",
"329 532 OFFCURVE",
"329 508 CURVE SMOOTH",
"329 478 OFFCURVE",
"318 448 OFFCURVE",
"309 435 CURVE",
"392 412 LINE",
"406 438 OFFCURVE",
"418 468 OFFCURVE",
"418 493 CURVE SMOOTH",
"418 522 OFFCURVE",
"403 550 OFFCURVE",
"384 578 CURVE",
"299 579 LINE"
);
},
{
closed = 1;
nodes = (
"-31 650 LINE",
"-31 634 LINE",
"0 575 LINE",
"612 575 LINE",
"612 590 LINE",
"580 650 LINE"
);
}
);
width = 612;
},
{
anchors = (
{
name = bottom;
position = "{270, 56}";
},
{
name = top;
position = "{306, 634}";
}
);
background = {
paths = (
{
closed = 1;
nodes = (
"219 477 OFFCURVE",
"56 457 OFFCURVE",
"56 270 CURVE SMOOTH",
"56 145 OFFCURVE",
"149 31 OFFCURVE",
"277 31 CURVE SMOOTH",
"450 31 OFFCURVE",
"538 126 OFFCURVE",
"538 246 CURVE SMOOTH",
"538 355 OFFCURVE",
"458 419 OFFCURVE",
"345 484 CURVE"
);
},
{
closed = 1;
nodes = (
"406 393 OFFCURVE",
"465 347 OFFCURVE",
"465 288 CURVE SMOOTH",
"465 198 OFFCURVE",
"407 108 OFFCURVE",
"245 108 CURVE SMOOTH",
"190 108 OFFCURVE",
"108 145 OFFCURVE",
"108 241 CURVE SMOOTH",
"108 367 OFFCURVE",
"256 407 OFFCURVE",
"366 407 CURVE"
);
},
{
closed = 1;
nodes = (
"313 600 OFFCURVE",
"329 573 OFFCURVE",
"329 549 CURVE SMOOTH",
"329 519 OFFCURVE",
"318 489 OFFCURVE",
"309 476 CURVE",
"392 453 LINE",
"406 479 OFFCURVE",
"418 509 OFFCURVE",
"418 534 CURVE SMOOTH",
"418 563 OFFCURVE",
"403 591 OFFCURVE",
"384 619 CURVE",
"299 620 LINE"
);
},
{
closed = 1;
nodes = (
"-31 691 LINE",
"-31 675 LINE",
"0 616 LINE",
"612 616 LINE",
"612 631 LINE",
"580 691 LINE"
);
},
{
closed = 1;
nodes = (
"214 446 OFFCURVE",
"51 426 OFFCURVE",
"51 239 CURVE SMOOTH",
"51 114 OFFCURVE",
"144 0 OFFCURVE",
"272 0 CURVE SMOOTH",
"445 0 OFFCURVE",
"533 95 OFFCURVE",
"533 215 CURVE SMOOTH",
"533 324 OFFCURVE",
"453 388 OFFCURVE",
"340 453 CURVE"
);
}
);
};
layerId = "E777F328-EA17-4AE7-9EBA-8002E537BA4F";
name = Light;
paths = (
{
closed = 1;
nodes = (
"206 444 OFFCURVE",
"58 417 OFFCURVE",
"58 266 CURVE SMOOTH",
"58 156 OFFCURVE",
"142 53 OFFCURVE",
"270 53 CURVE SMOOTH",
"389 53 OFFCURVE",
"484 149 OFFCURVE",
"484 247 CURVE SMOOTH",
"484 332 OFFCURVE",
"416 399 OFFCURVE",
"319 452 CURVE"
);
},
{
closed = 1;
nodes = (
"363 385 OFFCURVE",
"434 327 OFFCURVE",
"434 261 CURVE SMOOTH",
"434 175 OFFCURVE",
"356 97 OFFCURVE",
"238 97 CURVE SMOOTH",
"180 97 OFFCURVE",
"108 145 OFFCURVE",
"108 242 CURVE SMOOTH",
"108 348 OFFCURVE",
"230 401 OFFCURVE",
"323 402 CURVE"
);
},
{
closed = 1;
nodes = (
"293 577 OFFCURVE",
"309 548 OFFCURVE",
"309 522 CURVE SMOOTH",
"309 489 OFFCURVE",
"298 455 OFFCURVE",
"289 442 CURVE",
"338 419 LINE",
"352 445 OFFCURVE",
"364 480 OFFCURVE",
"364 507 CURVE SMOOTH",
"364 538 OFFCURVE",
"349 568 OFFCURVE",
"330 598 CURVE",
"279 599 LINE"
);
},
{
closed = 1;
nodes = (
"-29 634 LINE",
"-29 624 LINE",
"-12 590 LINE",
"552 590 LINE",
"552 601 LINE",
"533 634 LINE"
);
}
);
width = 552;
},
{
layerId = "B26750D4-52C5-4F85-819B-BFB2F142DAD5";
name = Bold;
paths = (
{
closed = 1;
nodes = (
"219 436 OFFCURVE",
"56 416 OFFCURVE",
"56 229 CURVE SMOOTH",
"56 104 OFFCURVE",
"149 -10 OFFCURVE",
"277 -10 CURVE SMOOTH",
"450 -10 OFFCURVE",
"538 85 OFFCURVE",
"538 205 CURVE SMOOTH",
"538 314 OFFCURVE",
"458 378 OFFCURVE",
"345 443 CURVE"
);
},
{
closed = 1;
nodes = (
"406 352 OFFCURVE",
"465 306 OFFCURVE",
"465 247 CURVE SMOOTH",
"465 157 OFFCURVE",
"407 67 OFFCURVE",
"245 67 CURVE SMOOTH",
"190 67 OFFCURVE",
"108 104 OFFCURVE",
"108 200 CURVE SMOOTH",
"108 326 OFFCURVE",
"256 366 OFFCURVE",
"366 366 CURVE"
);
},
{
closed = 1;
nodes = (
"313 559 OFFCURVE",
"329 532 OFFCURVE",
"329 508 CURVE SMOOTH",
"329 478 OFFCURVE",
"318 448 OFFCURVE",
"309 435 CURVE",
"392 412 LINE",
"406 438 OFFCURVE",
"418 468 OFFCURVE",
"418 493 CURVE SMOOTH",
"418 522 OFFCURVE",
"403 550 OFFCURVE",
"384 578 CURVE",
"299 579 LINE"
);
},
{
closed = 1;
nodes = (
"-31 650 LINE",
"-31 634 LINE",
"0 575 LINE",
"612 575 LINE",
"612 590 LINE",
"580 650 LINE"
);
}
);
width = 612;
}
);
unicode = 0920;
},
{
color = 1;
glyphname = "dda-deva";
lastChange = "2014-07-15 15:05:18 +0100";
layers = (
{
anchors = (
{
name = bottom;
position = "{381, -16}";
},
{
name = nukta;
position = "{278, 0}";
},
{
name = top;
position = "{438, 650}";
}
);
background = {
paths = (
{
closed = 1;
nodes = (
"-29 634 LINE",
"-29 624 LINE",
"-12 590 LINE",
"394 590 LINE",
"394 460 LINE",
"206 460 LINE SMOOTH",
"147 460 OFFCURVE",
"104 417 OFFCURVE",
"104 356 CURVE SMOOTH",
"104 290 OFFCURVE",
"172 219 OFFCURVE",
"243 219 CURVE SMOOTH",
"312 219 OFFCURVE",
"353 259 OFFCURVE",
"435 259 CURVE",
"448 252 OFFCURVE",
"471 221 OFFCURVE",
"471 176 CURVE SMOOTH",
"471 96 OFFCURVE",
"397 60 OFFCURVE",
"334 60 CURVE SMOOTH",
"253 60 OFFCURVE",
"168 97 OFFCURVE",
"64 216 CURVE",
"37 190 LINE",
"157 60 OFFCURVE",
"245 15 OFFCURVE",
"359 15 CURVE SMOOTH",
"464 15 OFFCURVE",
"521 77 OFFCURVE",
"521 160 CURVE SMOOTH",
"521 223 OFFCURVE",
"471 303 OFFCURVE",
"414 303 CURVE SMOOTH",
"349 303 OFFCURVE",
"283 263 OFFCURVE",
"217 263 CURVE SMOOTH",
"188 263 OFFCURVE",
"154 298 OFFCURVE",
"154 330 CURVE SMOOTH",
"154 374 OFFCURVE",
"171 416 OFFCURVE",
"229 416 CURVE SMOOTH",
"448 416 LINE",
"448 590 LINE",
"551 590 LINE",
"551 601 LINE",
"532 634 LINE"
);
},
{
closed = 1;
nodes = (
"-31 650 LINE",
"-31 634 LINE",
"0 575 LINE",
"394 575 LINE",
"394 471 LINE",
"204 471 LINE SMOOTH",
"145 471 OFFCURVE",
"97 428 OFFCURVE",
"97 346 CURVE SMOOTH",
"97 267 OFFCURVE",
"203 179 OFFCURVE",
"251 179 CURVE SMOOTH",
"323 179 OFFCURVE",
"370 218 OFFCURVE",
"457 218 CURVE",
"476 209 OFFCURVE",
"491 178 OFFCURVE",
"491 152 CURVE SMOOTH",
"491 80 OFFCURVE",
"411 49 OFFCURVE",
"343 49 CURVE SMOOTH",
"264 49 OFFCURVE",
"173 82 OFFCURVE",
"63 199 CURVE",
"28 167 LINE",
"157 19 OFFCURVE",
"274 -30 OFFCURVE",
"381 -30 CURVE SMOOTH",
"487 -30 OFFCURVE",
"544 39 OFFCURVE",
"544 130 CURVE SMOOTH",
"544 203 OFFCURVE",
"481 300 OFFCURVE",
"427 300 CURVE SMOOTH",
"355 300 OFFCURVE",
"278 258 OFFCURVE",
"204 258 CURVE SMOOTH",
"184 258 OFFCURVE",
"162 290 OFFCURVE",
"162 318 CURVE SMOOTH",
"162 346 OFFCURVE",
"169 391 OFFCURVE",
"237 391 CURVE SMOOTH",
"483 391 LINE",
"483 575 LINE",
"601 575 LINE",
"601 590 LINE",
"570 650 LINE"
);
}
);
};
layerId = "39185045-6A8C-415A-8312-7B8F11386A4C";
name = Regular;
paths = (
{
closed = 1;
nodes = (
"-31 650 LINE",
"-31 634 LINE",
"0 575 LINE",
"394 575 LINE",
"394 471 LINE",
"204 471 LINE SMOOTH",
"145 471 OFFCURVE",
"97 428 OFFCURVE",
"97 346 CURVE SMOOTH",
"97 267 OFFCURVE",
"203 179 OFFCURVE",
"251 179 CURVE SMOOTH",
"323 179 OFFCURVE",
"370 218 OFFCURVE",
"457 218 CURVE",
"476 209 OFFCURVE",
"491 178 OFFCURVE",
"491 152 CURVE SMOOTH",
"491 80 OFFCURVE",
"411 49 OFFCURVE",
"343 49 CURVE SMOOTH",
"264 49 OFFCURVE",
"173 82 OFFCURVE",
"63 199 CURVE",
"28 167 LINE",
"157 19 OFFCURVE",
"274 -30 OFFCURVE",
"381 -30 CURVE SMOOTH",
"487 -30 OFFCURVE",
"544 39 OFFCURVE",
"544 130 CURVE SMOOTH",
"544 203 OFFCURVE",
"481 300 OFFCURVE",
"427 300 CURVE SMOOTH",
"355 300 OFFCURVE",
"278 258 OFFCURVE",
"204 258 CURVE SMOOTH",
"184 258 OFFCURVE",
"162 290 OFFCURVE",
"162 318 CURVE SMOOTH",
"162 346 OFFCURVE",
"169 391 OFFCURVE",
"237 391 CURVE SMOOTH",
"483 391 LINE",
"483 575 LINE",
"601 575 LINE",
"601 590 LINE",
"570 650 LINE"
);
}
);
width = 601;
},
{
anchors = (
{
name = bottom;
position = "{359, 18}";
},
{
name = top;
position = "{420, 634}";
}
);
background = {
paths = (
{
closed = 0;
nodes = (
"218 263 LINE SMOOTH",
"188 263 OFFCURVE",
"154 298 OFFCURVE",
"154 329 CURVE SMOOTH"
);
}
);
};
layerId = "E777F328-EA17-4AE7-9EBA-8002E537BA4F";
name = Light;
paths = (
{
closed = 1;
nodes = (
"-29 634 LINE",
"-29 624 LINE",
"-12 590 LINE",
"394 590 LINE",
"394 460 LINE",
"206 460 LINE SMOOTH",
"147 460 OFFCURVE",
"104 417 OFFCURVE",
"104 356 CURVE SMOOTH",
"104 290 OFFCURVE",
"172 219 OFFCURVE",
"243 219 CURVE SMOOTH",
"312 219 OFFCURVE",
"353 259 OFFCURVE",
"435 259 CURVE",
"448 252 OFFCURVE",
"471 221 OFFCURVE",
"471 176 CURVE SMOOTH",
"471 96 OFFCURVE",
"397 60 OFFCURVE",
"334 60 CURVE SMOOTH",
"253 60 OFFCURVE",
"168 97 OFFCURVE",
"64 216 CURVE",
"37 190 LINE",
"157 60 OFFCURVE",
"245 15 OFFCURVE",
"359 15 CURVE SMOOTH",
"464 15 OFFCURVE",
"521 77 OFFCURVE",
"521 160 CURVE SMOOTH",
"521 223 OFFCURVE",
"471 303 OFFCURVE",
"414 303 CURVE SMOOTH",
"349 303 OFFCURVE",
"283 263 OFFCURVE",
"217 263 CURVE SMOOTH",
"188 263 OFFCURVE",
"154 298 OFFCURVE",
"154 330 CURVE SMOOTH",
"154 374 OFFCURVE",
"171 416 OFFCURVE",
"229 416 CURVE SMOOTH",
"448 416 LINE",
"448 590 LINE",
"551 590 LINE",
"551 601 LINE",
"532 634 LINE"
);
}
);
width = 551;
},
{
background = {
paths = (
{
closed = 1;
nodes = (
"-29 634 LINE",
"-29 624 LINE",
"-12 590 LINE",
"394 590 LINE",
"394 460 LINE",
"206 460 LINE SMOOTH",
"147 460 OFFCURVE",
"104 417 OFFCURVE",
"104 356 CURVE SMOOTH",
"104 290 OFFCURVE",
"172 219 OFFCURVE",
"243 219 CURVE SMOOTH",
"312 219 OFFCURVE",
"353 259 OFFCURVE",
"435 259 CURVE",
"448 252 OFFCURVE",
"471 221 OFFCURVE",
"471 176 CURVE SMOOTH",
"471 96 OFFCURVE",
"397 60 OFFCURVE",
"334 60 CURVE SMOOTH",
"253 60 OFFCURVE",
"168 97 OFFCURVE",
"64 216 CURVE",
"37 190 LINE",
"157 60 OFFCURVE",
"245 15 OFFCURVE",
"359 15 CURVE SMOOTH",
"464 15 OFFCURVE",
"521 77 OFFCURVE",
"521 160 CURVE SMOOTH",
"521 223 OFFCURVE",
"471 303 OFFCURVE",
"414 303 CURVE SMOOTH",
"349 303 OFFCURVE",
"283 263 OFFCURVE",
"217 263 CURVE SMOOTH",
"188 263 OFFCURVE",
"154 298 OFFCURVE",
"154 330 CURVE SMOOTH",
"154 374 OFFCURVE",
"171 416 OFFCURVE",
"229 416 CURVE SMOOTH",
"448 416 LINE",
"448 590 LINE",
"551 590 LINE",
"551 601 LINE",
"532 634 LINE"
);
},
{
closed = 1;
nodes = (
"-31 650 LINE",
"-31 634 LINE",
"0 575 LINE",
"394 575 LINE",
"394 471 LINE",
"204 471 LINE SMOOTH",
"145 471 OFFCURVE",
"97 428 OFFCURVE",
"97 346 CURVE SMOOTH",
"97 267 OFFCURVE",
"203 179 OFFCURVE",
"251 179 CURVE SMOOTH",
"323 179 OFFCURVE",
"370 218 OFFCURVE",
"457 218 CURVE",
"476 209 OFFCURVE",
"491 178 OFFCURVE",
"491 152 CURVE SMOOTH",
"491 80 OFFCURVE",
"411 49 OFFCURVE",
"343 49 CURVE SMOOTH",
"264 49 OFFCURVE",
"173 82 OFFCURVE",
"63 199 CURVE",
"28 167 LINE",
"157 19 OFFCURVE",
"274 -30 OFFCURVE",
"381 -30 CURVE SMOOTH",
"487 -30 OFFCURVE",
"544 39 OFFCURVE",
"544 130 CURVE SMOOTH",
"544 203 OFFCURVE",
"481 300 OFFCURVE",
"427 300 CURVE SMOOTH",
"355 300 OFFCURVE",
"278 258 OFFCURVE",
"204 258 CURVE SMOOTH",
"184 258 OFFCURVE",
"162 290 OFFCURVE",
"162 318 CURVE SMOOTH",
"162 346 OFFCURVE",
"169 391 OFFCURVE",
"237 391 CURVE SMOOTH",
"483 391 LINE",
"483 575 LINE",
"601 575 LINE",
"601 590 LINE",
"570 650 LINE"
);
}
);
};
layerId = "B26750D4-52C5-4F85-819B-BFB2F142DAD5";
name = Bold;
paths = (
{
closed = 1;
nodes = (
"-55 669 LINE",
"-55 647 LINE",
"-9 556 LINE",
"394 556 LINE",
"394 483 LINE",
"204 483 LINE SMOOTH",
"146 483 OFFCURVE",
"97 453 OFFCURVE",
"97 351 CURVE SMOOTH",
"97 250 OFFCURVE",
"203 150 OFFCURVE",
"251 150 CURVE SMOOTH",
"344 150 OFFCURVE",
"422 199 OFFCURVE",
"505 199 CURVE",
"516 190 OFFCURVE",
"524 164 OFFCURVE",
"524 147 CURVE SMOOTH",
"524 69 OFFCURVE",
"425 36 OFFCURVE",
"357 36 CURVE SMOOTH",
"281 36 OFFCURVE",
"156 71 OFFCURVE",
"51 173 CURVE",
"19 141 LINE",
"144 -3 OFFCURVE",
"292 -80 OFFCURVE",
"395 -80 CURVE SMOOTH",
"508 -80 OFFCURVE",
"577 -4 OFFCURVE",
"577 125 CURVE SMOOTH",
"577 222 OFFCURVE",
"514 318 OFFCURVE",
"461 318 CURVE SMOOTH",
"392 318 OFFCURVE",
"278 266 OFFCURVE",
"204 266 CURVE SMOOTH",
"185 266 OFFCURVE",
"162 301 OFFCURVE",
"162 320 CURVE SMOOTH",
"162 338 OFFCURVE",
"169 366 OFFCURVE",
"237 366 CURVE SMOOTH",
"527 366 LINE",
"527 556 LINE",
"624 556 LINE",
"624 577 LINE",
"576 669 LINE"
);
}
);
width = 624;
}
);
unicode = 0921;
},
{
color = 1;
glyphname = "ddha-deva";
lastChange = "2014-07-15 15:05:18 +0100";
layers = (
{
anchors = (
{
name = bottom;
position = "{339, -16}";
},
{
name = nukta;
position = "{293, -3}";
},
{
name = top;
position = "{391, 650}";
}
);
background = {
paths = (
{
closed = 1;
nodes = (
"-31 650 LINE",
"-31 634 LINE",
"0 575 LINE",
"314 575 LINE",
"314 440 LINE",
"203 427 OFFCURVE",
"69 386 OFFCURVE",
"69 228 CURVE SMOOTH",
"69 114 OFFCURVE",
"163 10 OFFCURVE",
"292 10 CURVE SMOOTH",
"358 10 OFFCURVE",
"436 23 OFFCURVE",
"529 75 CURVE",
"487 157 LINE",
"393 99 OFFCURVE",
"312 86 OFFCURVE",
"259 86 CURVE SMOOTH",
"204 86 OFFCURVE",
"123 114 OFFCURVE",
"123 199 CURVE SMOOTH",
"123 304 OFFCURVE",
"259 349 OFFCURVE",
"403 358 CURVE",
"403 575 LINE",
"554 575 LINE",
"554 590 LINE",
"522 650 LINE"
);
}
);
};
layerId = "39185045-6A8C-415A-8312-7B8F11386A4C";
name = Regular;
paths = (
{
closed = 1;
nodes = (
"-31 650 LINE",
"-31 634 LINE",
"0 575 LINE",
"347 575 LINE",
"347 460 LINE",
"250 460 LINE SMOOTH",
"148 460 OFFCURVE",
"52 414 OFFCURVE",
"52 268 CURVE SMOOTH",
"52 66 OFFCURVE",
"229 -30 OFFCURVE",
"339 -30 CURVE SMOOTH",
"412 -30 OFFCURVE",
"512 20 OFFCURVE",
"512 121 CURVE SMOOTH",
"512 213 OFFCURVE",
"444 282 OFFCURVE",
"361 282 CURVE SMOOTH",
"302 282 OFFCURVE",
"233 254 OFFCURVE",
"233 160 CURVE SMOOTH",
"233 111 OFFCURVE",
"258 68 OFFCURVE",
"279 39 CURVE",
"312 39 LINE",
"305 55 OFFCURVE",
"291 79 OFFCURVE",
"291 116 CURVE SMOOTH",
"291 183 OFFCURVE",
"351 217 OFFCURVE",
"393 217 CURVE SMOOTH",
"427 217 OFFCURVE",
"468 189 OFFCURVE",
"468 142 CURVE SMOOTH",
"468 90 OFFCURVE",
"394 51 OFFCURVE",
"307 49 CURVE",
"246 49 OFFCURVE",
"102 112 OFFCURVE",
"102 241 CURVE SMOOTH",
"102 329 OFFCURVE",
"174 375 OFFCURVE",
"273 375 CURVE SMOOTH",
"435 375 LINE",
"435 575 LINE",
"573 575 LINE",
"573 590 LINE",
"541 650 LINE"
);
}
);
width = 573;
},
{
anchors = (
{
name = bottom;
position = "{326, 18}";
},
{
name = top;
position = "{380, 634}";
}
);
background = {
paths = (
{
closed = 1;
nodes = (
"-19 634 LINE",
"-19 624 LINE",
"-2 590 LINE",
"344 590 LINE",
"344 460 LINE",
"241 460 LINE SMOOTH",
"112 460 OFFCURVE",
"50 398 OFFCURVE",
"50 298 CURVE SMOOTH",
"50 139 OFFCURVE",
"190 31 OFFCURVE",
"308 31 CURVE SMOOTH",
"380 31 OFFCURVE",
"485 77 OFFCURVE",
"485 159 CURVE SMOOTH",
"485 242 OFFCURVE",
"420 303 OFFCURVE",
"347 303 CURVE SMOOTH",
"294 303 OFFCURVE",
"226 264 OFFCURVE",
"225 185 CURVE SMOOTH",
"224 138 OFFCURVE",
"248 94 OFFCURVE",
"269 70 CURVE",
"299 73 LINE",
"279 98 OFFCURVE",
"269 128 OFFCURVE",
"269 152 CURVE SMOOTH",
"269 223 OFFCURVE",
"329 259 OFFCURVE",
"368 259 CURVE SMOOTH",
"400 259 OFFCURVE",
"439 231 OFFCURVE",
"441 180 CURVE SMOOTH",
"443 117 OFFCURVE",
"371 75 OFFCURVE",
"288 75 CURVE SMOOTH",
"236 75 OFFCURVE",
"97 149 OFFCURVE",
"97 273 CURVE SMOOTH",
"97 360 OFFCURVE",
"145 416 OFFCURVE",
"255 416 CURVE SMOOTH",
"398 416 LINE",
"398 590 LINE",
"537 590 LINE",
"537 601 LINE",
"517 634 LINE"
);
}
);
};
layerId = "E777F328-EA17-4AE7-9EBA-8002E537BA4F";
name = Light;
paths = (
{
closed = 1;
nodes = (
"-29 634 LINE",
"-29 624 LINE",
"-12 590 LINE",
"344 590 LINE",
"344 460 LINE",
"241 460 LINE SMOOTH",
"112 460 OFFCURVE",
"50 398 OFFCURVE",
"50 298 CURVE SMOOTH",
"50 139 OFFCURVE",
"190 31 OFFCURVE",
"308 31 CURVE SMOOTH",
"376 31 OFFCURVE",
"475 77 OFFCURVE",
"475 159 CURVE SMOOTH",
"475 242 OFFCURVE",
"412 303 OFFCURVE",
"342 303 CURVE SMOOTH",
"291 303 OFFCURVE",
"227 264 OFFCURVE",
"225 185 CURVE SMOOTH",
"224 138 OFFCURVE",
"248 94 OFFCURVE",
"269 70 CURVE",
"299 73 LINE",
"279 98 OFFCURVE",
"269 128 OFFCURVE",
"269 152 CURVE SMOOTH",
"269 223 OFFCURVE",
"326 259 OFFCURVE",
"363 259 CURVE SMOOTH",
"393 259 OFFCURVE",
"429 231 OFFCURVE",
"431 180 CURVE SMOOTH",
"433 117 OFFCURVE",
"366 75 OFFCURVE",
"288 75 CURVE SMOOTH",
"236 75 OFFCURVE",
"97 149 OFFCURVE",
"97 273 CURVE SMOOTH",
"97 360 OFFCURVE",
"145 416 OFFCURVE",
"255 416 CURVE SMOOTH",
"398 416 LINE",
"398 590 LINE",
"527 590 LINE",
"527 601 LINE",
"507 634 LINE"
);
}
);
width = 527;
},
{
background = {
paths = (
{
closed = 1;
nodes = (
"-74 711 LINE",
"-74 689 LINE",
"-27 598 LINE",
"290 598 LINE",
"290 501 LINE",
"171 487 OFFCURVE",
"48 427 OFFCURVE",
"48 280 CURVE SMOOTH",
"48 145 OFFCURVE",
"152 33 OFFCURVE",
"300 33 CURVE SMOOTH",
"399 33 OFFCURVE",
"456 56 OFFCURVE",
"550 103 CURVE",
"489 222 LINE",
"401 168 OFFCURVE",
"321 146 OFFCURVE",
"257 146 CURVE SMOOTH",
"193 146 OFFCURVE",
"102 162 OFFCURVE",
"102 241 CURVE SMOOTH",
"102 337 OFFCURVE",
"255 373 OFFCURVE",
"424 382 CURVE",
"424 598 LINE",
"563 598 LINE",
"563 619 LINE",
"514 711 LINE"
);
}
);
};
layerId = "B26750D4-52C5-4F85-819B-BFB2F142DAD5";
name = Bold;
paths = (
{
closed = 1;
nodes = (
"-46 669 LINE",
"-46 647 LINE",
"0 556 LINE",
"326 556 LINE",
"326 476 LINE",
"250 476 LINE SMOOTH",
"147 476 OFFCURVE",
"50 426 OFFCURVE",
"50 268 CURVE SMOOTH",
"50 54 OFFCURVE",
"234 -47 OFFCURVE",
"349 -48 CURVE SMOOTH",
"426 -48 OFFCURVE",
"532 9 OFFCURVE",
"532 121 CURVE SMOOTH",
"531 223 OFFCURVE",
"459 301 OFFCURVE",
"371 301 CURVE SMOOTH",
"311 301 OFFCURVE",
"240 267 OFFCURVE",
"238 160 CURVE SMOOTH",
"238 111 OFFCURVE",
"263 68 OFFCURVE",
"284 39 CURVE",
"321 39 LINE",
"310 55 OFFCURVE",
"296 79 OFFCURVE",
"300 116 CURVE SMOOTH",
"302 170 OFFCURVE",
"361 199 OFFCURVE",
"403 199 CURVE SMOOTH",
"439 199 OFFCURVE",
"483 176 OFFCURVE",
"484 142 CURVE SMOOTH",
"484 102 OFFCURVE",
"407 68 OFFCURVE",
"317 68 CURVE SMOOTH",
"253 68 OFFCURVE",
"104 126 OFFCURVE",
"104 241 CURVE SMOOTH",
"104 318 OFFCURVE",
"175 359 OFFCURVE",
"273 359 CURVE SMOOTH",
"459 359 LINE",
"459 556 LINE",
"573 556 LINE",
"573 577 LINE",
"525 669 LINE"
);
}
);
width = 573;
}
);
unicode = 0922;
},
{
color = 1;
glyphname = "nna-deva";
lastChange = "2014-07-15 15:05:18 +0100";
layers = (
{
anchors = (
{
name = bottom;
position = "{638, 0}";
},
{
name = top;
position = "{638, 650}";
}
);
background = {
paths = (
{
closed = 1;
nodes = (
"348 575 LINE",
"348 322 LINE SMOOTH",
"348 283 OFFCURVE",
"326 229 OFFCURVE",
"263 229 CURVE SMOOTH",
"218 229 OFFCURVE",
"176 234 OFFCURVE",
"176 303 CURVE SMOOTH",
"176 575 LINE",
"87 575 LINE",
"87 318 LINE SMOOTH",
"87 281 OFFCURVE",
"111 253 OFFCURVE",
"147 218 CURVE SMOOTH",
"186 180 OFFCURVE",
"224 152 OFFCURVE",
"270 152 CURVE SMOOTH",
"358 152 OFFCURVE",
"436 216 OFFCURVE",
"436 303 CURVE SMOOTH",
"436 575 LINE"
);
},
{
closed = 1;
nodes = (
"608 575 LINE",
"608 322 LINE SMOOTH",
"608 283 OFFCURVE",
"586 229 OFFCURVE",
"523 229 CURVE SMOOTH",
"478 229 OFFCURVE",
"436 234 OFFCURVE",
"436 303 CURVE SMOOTH",
"436 575 LINE",
"347 575 LINE",
"347 318 LINE SMOOTH",
"347 281 OFFCURVE",
"371 253 OFFCURVE",
"407 218 CURVE SMOOTH",
"446 180 OFFCURVE",
"484 152 OFFCURVE",
"530 152 CURVE SMOOTH",
"618 152 OFFCURVE",
"696 216 OFFCURVE",
"696 303 CURVE SMOOTH",
"696 575 LINE"
);
}
);
};
layerId = "39185045-6A8C-415A-8312-7B8F11386A4C";
name = Regular;
paths = (
{
closed = 1;
nodes = (
"348 605 LINE",
"348 322 LINE SMOOTH",
"348 283 OFFCURVE",
"326 229 OFFCURVE",
"263 229 CURVE SMOOTH",
"218 229 OFFCURVE",
"176 234 OFFCURVE",
"176 303 CURVE SMOOTH",
"176 605 LINE",
"87 605 LINE",
"87 318 LINE SMOOTH",
"87 281 OFFCURVE",
"111 253 OFFCURVE",
"147 218 CURVE SMOOTH",
"186 180 OFFCURVE",
"224 152 OFFCURVE",
"270 152 CURVE SMOOTH",
"358 152 OFFCURVE",
"436 216 OFFCURVE",
"436 303 CURVE SMOOTH",
"436 605 LINE"
);
},
{
closed = 1;
nodes = (
"594 605 LINE",
"594 -1 LINE",
"667 -42 LINE",
"682 -42 LINE",
"682 605 LINE"
);
},
{
closed = 1;
nodes = (
"-31 650 LINE",
"-31 634 LINE",
"0 575 LINE",
"792 575 LINE",
"792 590 LINE",
"760 650 LINE"
);
}
);
width = 792;
},
{
anchors = (
{
name = bottom;
position = "{598, 0}";
},
{
name = top;
position = "{598, 634}";
}
);
background = {
paths = (
{
closed = 1;
nodes = (
"327 605 LINE",
"327 352 LINE SMOOTH",
"327 307 OFFCURVE",
"299 242 OFFCURVE",
"233 242 CURVE SMOOTH",
"186 242 OFFCURVE",
"137 250 OFFCURVE",
"137 333 CURVE SMOOTH",
"137 605 LINE",
"86 605 LINE",
"86 348 LINE SMOOTH",
"86 311 OFFCURVE",
"99 276 OFFCURVE",
"127 248 CURVE SMOOTH",
"167 213 OFFCURVE",
"199 192 OFFCURVE",
"240 192 CURVE SMOOTH",
"311 192 OFFCURVE",
"377 252 OFFCURVE",
"377 333 CURVE SMOOTH",
"377 605 LINE"
);
},
{
closed = 1;
nodes = (
"573 605 LINE",
"572 11 LINE",
"611 -11 LINE",
"623 -11 LINE",
"623 605 LINE"
);
},
{
closed = 1;
nodes = (
"-29 634 LINE",
"-29 624 LINE",
"-12 590 LINE",
"741 590 LINE",
"741 601 LINE",
"722 634 LINE"
);
},
{
closed = 1;
nodes = (
"573 605 LINE",
"573 352 LINE SMOOTH",
"573 307 OFFCURVE",
"546 242 OFFCURVE",
"481 242 CURVE SMOOTH",
"435 242 OFFCURVE",
"387 250 OFFCURVE",
"387 333 CURVE SMOOTH",
"387 605 LINE",
"333 605 LINE",
"333 348 LINE SMOOTH",
"333 311 OFFCURVE",
"345 274 OFFCURVE",
"375 248 CURVE SMOOTH",
"415 213 OFFCURVE",
"447 192 OFFCURVE",
"488 192 CURVE SMOOTH",
"560 192 OFFCURVE",
"627 252 OFFCURVE",
"627 333 CURVE SMOOTH",
"627 605 LINE"
);
}
);
};
layerId = "E777F328-EA17-4AE7-9EBA-8002E537BA4F";
name = Light;
paths = (
{
closed = 1;
nodes = (
"333 605 LINE",
"333 352 LINE SMOOTH",
"333 307 OFFCURVE",
"306 242 OFFCURVE",
"241 242 CURVE SMOOTH",
"195 242 OFFCURVE",
"147 250 OFFCURVE",
"147 333 CURVE SMOOTH",
"147 605 LINE",
"93 605 LINE",
"93 348 LINE SMOOTH",
"93 311 OFFCURVE",
"105 274 OFFCURVE",
"135 248 CURVE SMOOTH",
"175 213 OFFCURVE",
"207 192 OFFCURVE",
"248 192 CURVE SMOOTH",
"320 192 OFFCURVE",
"387 252 OFFCURVE",
"387 333 CURVE SMOOTH",
"387 605 LINE"
);
},
{
closed = 1;
nodes = (
"565 605 LINE",
"564 13 LINE",
"607 -11 LINE",
"619 -11 LINE",
"619 605 LINE"
);
},
{
closed = 1;
nodes = (
"-29 634 LINE",
"-29 624 LINE",
"-12 590 LINE",
"737 590 LINE",
"737 601 LINE",
"718 634 LINE"
);
}
);
width = 737;
},
{
anchors = (
{
name = bottom;
position = "{638, 0}";
},
{
name = top;
position = "{638, 669}";
}
);
background = {
anchors = (
{
name = top;
position = "{638, 650}";
},
{
name = bottom;
position = "{638, 0}";
}
);
paths = (
{
closed = 1;
nodes = (
"348 605 LINE",
"348 322 LINE SMOOTH",
"348 283 OFFCURVE",
"326 229 OFFCURVE",
"263 229 CURVE SMOOTH",
"218 229 OFFCURVE",
"176 234 OFFCURVE",
"176 303 CURVE SMOOTH",
"176 605 LINE",
"87 605 LINE",
"87 318 LINE SMOOTH",
"87 281 OFFCURVE",
"111 253 OFFCURVE",
"147 218 CURVE SMOOTH",
"186 180 OFFCURVE",
"224 152 OFFCURVE",
"270 152 CURVE SMOOTH",
"358 152 OFFCURVE",
"436 216 OFFCURVE",
"436 303 CURVE SMOOTH",
"436 605 LINE"
);
},
{
closed = 1;
nodes = (
"594 605 LINE",
"594 -1 LINE",
"667 -42 LINE",
"682 -42 LINE",
"682 605 LINE"
);
},
{
closed = 1;
nodes = (
"-31 650 LINE",
"-31 634 LINE",
"0 575 LINE",
"792 575 LINE",
"792 590 LINE",
"760 650 LINE"
);
},
{
closed = 0;
nodes = (
"296 333 LINE",
"514 286 LINE"
);
},
{
closed = 0;
nodes = (
"261 252 LINE",
"272 129 LINE"
);
}
);
};
layerId = "B26750D4-52C5-4F85-819B-BFB2F142DAD5";
name = Bold;
paths = (
{
closed = 1;
nodes = (
"320 605 LINE",
"320 328 LINE SMOOTH",
"320 294 OFFCURVE",
"313 229 OFFCURVE",
"263 229 CURVE SMOOTH",
"230 229 OFFCURVE",
"196 234 OFFCURVE",
"196 303 CURVE SMOOTH",
"196 605 LINE",
"62 605 LINE",
"62 362 LINE SMOOTH",
"62 310 OFFCURVE",
"84 283 OFFCURVE",
"124 238 CURVE SMOOTH",
"170 187 OFFCURVE",
"209 152 OFFCURVE",
"270 152 CURVE SMOOTH",
"368 152 OFFCURVE",
"456 214 OFFCURVE",
"456 299 CURVE SMOOTH",
"456 605 LINE"
);
},
{
closed = 1;
nodes = (
"567 605 LINE",
"567 26 LINE",
"679 -37 LINE",
"702 -37 LINE",
"702 605 LINE"
);
},
{
closed = 1;
nodes = (
"-54 669 LINE",
"-54 647 LINE",
"-7 556 LINE",
"875 556 LINE",
"875 577 LINE",
"826 669 LINE"
);
}
);
width = 792;
}
);
unicode = 0923;
},
{
glyphname = "ta-deva";
lastChange = "2014-07-17 11:48:35 +0100";
layers = (
{
anchors = (
{
name = bottom;
position = "{466, 0}";
},
{
name = top;
position = "{466, 650}";
}
);
background = {
paths = (
{
closed = 1;
nodes = (
"285 6 LINE",
"201 89 OFFCURVE",
"138 177 OFFCURVE",
"138 253 CURVE SMOOTH",
"138 327 OFFCURVE",
"174 362 OFFCURVE",
"259 362 CURVE SMOOTH",
"422 362 LINE",
"422 -1 LINE",
"494 -42 LINE",
"509 -42 LINE",
"509 575 LINE",
"619 575 LINE",
"619 590 LINE",
"588 650 LINE",
"-31 650 LINE",
"-31 634 LINE",
"0 575 LINE",
"422 575 LINE",
"422 442 LINE",
"234 442 LINE SMOOTH",
"98 442 OFFCURVE",
"58 377 OFFCURVE",
"58 290 CURVE SMOOTH",
"58 168 OFFCURVE",
"171 52 OFFCURVE",
"256 -25 CURVE"
);
}
);
};
layerId = "39185045-6A8C-415A-8312-7B8F11386A4C";
name = Regular;
paths = (
{
closed = 1;
nodes = (
"234 442 LINE SMOOTH",
"98 442 OFFCURVE",
"58 377 OFFCURVE",
"58 290 CURVE SMOOTH",
"58 168 OFFCURVE",
"171 52 OFFCURVE",
"256 -25 CURVE",
"285 6 LINE",
"201 89 OFFCURVE",
"138 177 OFFCURVE",
"138 253 CURVE SMOOTH",
"138 327 OFFCURVE",
"174 362 OFFCURVE",
"259 362 CURVE SMOOTH",
"462 362 LINE",
"462 442 LINE"
);
},
{
closed = 1;
nodes = (
"422 605 LINE",
"422 -1 LINE",
"494 -42 LINE",
"509 -42 LINE",
"509 605 LINE"
);
},
{
closed = 1;
nodes = (
"-31 650 LINE",
"-31 634 LINE",
"0 575 LINE",
"619 575 LINE",
"619 590 LINE",
"588 650 LINE"
);
}
);
width = 619;
},
{
anchors = (
{
name = bottom;
position = "{431, 0}";
},
{
name = top;
position = "{431, 634}";
}
);
background = {
paths = (
{
closed = 1;
nodes = (
"204 442 LINE SMOOTH",
"68 442 OFFCURVE",
"28 377 OFFCURVE",
"28 290 CURVE SMOOTH",
"28 168 OFFCURVE",
"141 52 OFFCURVE",
"226 -25 CURVE",
"255 6 LINE",
"171 89 OFFCURVE",
"108 177 OFFCURVE",
"108 253 CURVE SMOOTH",
"108 327 OFFCURVE",
"144 362 OFFCURVE",
"229 362 CURVE SMOOTH",
"432 362 LINE",
"432 442 LINE"
);
},
{
closed = 1;
nodes = (
"392 605 LINE",
"392 -1 LINE",
"464 -42 LINE",
"479 -42 LINE",
"479 605 LINE"
);
},
{
closed = 1;
nodes = (
"-61 650 LINE",
"-61 634 LINE",
"-30 575 LINE",
"589 575 LINE",
"589 590 LINE",
"558 650 LINE"
);
}
);
};
layerId = "E777F328-EA17-4AE7-9EBA-8002E537BA4F";
name = Light;
paths = (
{
closed = 1;
nodes = (
"230 424 LINE SMOOTH",
"106 424 OFFCURVE",
"68 366 OFFCURVE",
"69 290 CURVE SMOOTH",
"70 178 OFFCURVE",
"160 74 OFFCURVE",
"237 1 CURVE",
"256 21 LINE",
"174 102 OFFCURVE",
"120 190 OFFCURVE",
"119 266 CURVE SMOOTH",
"118 343 OFFCURVE",
"161 380 OFFCURVE",
"255 380 CURVE SMOOTH",
"428 380 LINE",
"428 424 LINE"
);
},
{
closed = 1;
nodes = (
"404 605 LINE",
"403 13 LINE",
"446 -11 LINE",
"458 -11 LINE",
"458 605 LINE"
);
},
{
closed = 1;
nodes = (
"-29 634 LINE",
"-29 624 LINE",
"-12 590 LINE",
"574 590 LINE",
"574 601 LINE",
"555 634 LINE"
);
}
);
width = 574;
},
{
anchors = (
{
name = bottom;
position = "{466, 0}";
},
{
name = top;
position = "{466, 650}";
}
);
layerId = "B26750D4-52C5-4F85-819B-BFB2F142DAD5";
name = Bold;
paths = (
{
closed = 1;
nodes = (
"234 442 LINE SMOOTH",
"98 442 OFFCURVE",
"58 377 OFFCURVE",
"58 290 CURVE SMOOTH",
"58 168 OFFCURVE",
"171 52 OFFCURVE",
"256 -25 CURVE",
"285 6 LINE",
"201 89 OFFCURVE",
"138 177 OFFCURVE",
"138 253 CURVE SMOOTH",
"138 327 OFFCURVE",
"174 362 OFFCURVE",
"259 362 CURVE SMOOTH",
"462 362 LINE",
"462 442 LINE"
);
},
{
closed = 1;
nodes = (
"422 605 LINE",
"422 -1 LINE",
"494 -42 LINE",
"509 -42 LINE",
"509 605 LINE"
);
},
{
closed = 1;
nodes = (
"-31 650 LINE",
"-31 634 LINE",
"0 575 LINE",
"619 575 LINE",
"619 590 LINE",
"588 650 LINE"
);
}
);
width = 619;
}
);
unicode = 0924;
},
{
glyphname = "tha-deva";
lastChange = "2014-07-17 14:20:51 +0100";
layers = (
{
anchors = (
{
name = bottom;
position = "{530, 0}";
},
{
name = top;
position = "{530, 650}";
}
);
layerId = "39185045-6A8C-415A-8312-7B8F11386A4C";
name = Regular;
paths = (
{
closed = 1;
nodes = (
"364 650 LINE",
"364 634 LINE",
"395 575 LINE",
"486 575 LINE",
"486 244 LINE",
"489 198 LINE",
"484 0 LINE",
"559 -42 LINE",
"575 -42 LINE",
"575 575 LINE",
"684 575 LINE",
"684 590 LINE",
"653 650 LINE"
);
},
{
closed = 1;
nodes = (
"98 659 OFFCURVE",
"47 625 OFFCURVE",
"47 555 CURVE SMOOTH",
"47 464 OFFCURVE",
"129 385 OFFCURVE",
"217 346 CURVE",
"256 386 LINE",
"195 404 OFFCURVE",
"123 467 OFFCURVE",
"123 531 CURVE SMOOTH",
"123 577 OFFCURVE",
"150 597 OFFCURVE",
"186 597 CURVE SMOOTH",
"247 597 OFFCURVE",
"281 549 OFFCURVE",
"281 502 CURVE SMOOTH",
"281 406 OFFCURVE",
"228 325 OFFCURVE",
"101 297 CURVE",
"151 167 OFFCURVE",
"220 104 OFFCURVE",
"333 104 CURVE SMOOTH",
"393 104 OFFCURVE",
"446 133 OFFCURVE",
"484 160 CURVE",
"514 144 LINE",
"496 285 LINE SMOOTH",
"467 244 OFFCURVE",
"380 183 OFFCURVE",
"294 183 CURVE SMOOTH",
"238 183 OFFCURVE",
"199 209 OFFCURVE",
"186 245 CURVE",
"283 292 OFFCURVE",
"353 384 OFFCURVE",
"353 479 CURVE SMOOTH",
"353 604 OFFCURVE",
"246 659 OFFCURVE",
"161 659 CURVE SMOOTH"
);
}
);
width = 684;
},
{
anchors = (
{
name = bottom;
position = "{502, 0}";
},
{
name = top;
position = "{502, 634}";
}
);
background = {
paths = (
{
closed = 1;
nodes = (
"354 670 LINE",
"354 654 LINE",
"385 595 LINE",
"476 595 LINE",
"476 264 LINE",
"479 218 LINE",
"474 20 LINE",
"549 -22 LINE",
"565 -22 LINE",
"565 595 LINE",
"674 595 LINE",
"674 610 LINE",
"643 670 LINE"
);
},
{
closed = 1;
nodes = (
"88 679 OFFCURVE",
"37 645 OFFCURVE",
"37 575 CURVE SMOOTH",
"37 484 OFFCURVE",
"119 405 OFFCURVE",
"207 366 CURVE",
"246 406 LINE",
"185 424 OFFCURVE",
"113 487 OFFCURVE",
"113 551 CURVE SMOOTH",
"113 597 OFFCURVE",
"140 617 OFFCURVE",
"176 617 CURVE SMOOTH",
"237 617 OFFCURVE",
"271 569 OFFCURVE",
"271 522 CURVE SMOOTH",
"271 426 OFFCURVE",
"218 345 OFFCURVE",
"91 317 CURVE",
"141 187 OFFCURVE",
"210 124 OFFCURVE",
"323 124 CURVE SMOOTH",
"383 124 OFFCURVE",
"436 153 OFFCURVE",
"474 180 CURVE",
"504 164 LINE",
"486 305 LINE SMOOTH",
"457 264 OFFCURVE",
"370 203 OFFCURVE",
"284 203 CURVE SMOOTH",
"228 203 OFFCURVE",
"189 229 OFFCURVE",
"176 265 CURVE",
"273 312 OFFCURVE",
"343 404 OFFCURVE",
"343 499 CURVE SMOOTH",
"343 624 OFFCURVE",
"236 679 OFFCURVE",
"151 679 CURVE SMOOTH"
);
}
);
};
layerId = "E777F328-EA17-4AE7-9EBA-8002E537BA4F";
name = Light;
paths = (
{
closed = 1;
nodes = (
"362 634 LINE",
"362 624 LINE",
"380 590 LINE",
"476 590 LINE",
"476 274 LINE",
"476 213 LINE",
"475 13 LINE",
"518 -11 LINE",
"530 -11 LINE",
"530 590 LINE",
"646 590 LINE",
"646 601 LINE",
"626 634 LINE"
);
},
{
closed = 1;
nodes = (
"99 650 OFFCURVE",
"50 613 OFFCURVE",
"50 540 CURVE SMOOTH",
"50 452 OFFCURVE",
"128 391 OFFCURVE",
"224 351 CURVE",
"248 389 LINE",
"175 415 OFFCURVE",
"100 468 OFFCURVE",
"100 528 CURVE SMOOTH",
"100 577 OFFCURVE",
"133 600 OFFCURVE",
"174 600 CURVE SMOOTH",
"241 600 OFFCURVE",
"279 550 OFFCURVE",
"280 504 CURVE SMOOTH",
"279 413 OFFCURVE",
"230 337 OFFCURVE",
"107 306 CURVE",
"144 207 OFFCURVE",
"203 139 OFFCURVE",
"307 139 CURVE SMOOTH",
"371 139 OFFCURVE",
"432 173 OFFCURVE",
"474 204 CURVE",
"486 200 LINE",
"487 285 LINE",
"442 232 OFFCURVE",
"359 189 OFFCURVE",
"286 189 CURVE SMOOTH",
"220 189 OFFCURVE",
"180 230 OFFCURVE",
"167 270 CURVE",
"247 311 OFFCURVE",
"330 384 OFFCURVE",
"330 484 CURVE SMOOTH",
"330 592 OFFCURVE",
"235 650 OFFCURVE",
"154 650 CURVE SMOOTH"
);
}
);
width = 646;
},
{
layerId = "B26750D4-52C5-4F85-819B-BFB2F142DAD5";
name = Bold;
paths = (
{
closed = 1;
nodes = (
"364 650 LINE",
"364 634 LINE",
"395 575 LINE",
"486 575 LINE",
"486 244 LINE",
"489 198 LINE",
"484 0 LINE",
"559 -42 LINE",
"575 -42 LINE",
"575 575 LINE",
"684 575 LINE",
"684 590 LINE",
"653 650 LINE"
);
},
{
closed = 1;
nodes = (
"98 659 OFFCURVE",
"47 625 OFFCURVE",
"47 555 CURVE SMOOTH",
"47 464 OFFCURVE",
"129 385 OFFCURVE",
"217 346 CURVE",
"256 386 LINE",
"195 404 OFFCURVE",
"123 467 OFFCURVE",
"123 531 CURVE SMOOTH",
"123 577 OFFCURVE",
"150 597 OFFCURVE",
"186 597 CURVE SMOOTH",
"247 597 OFFCURVE",
"281 549 OFFCURVE",
"281 502 CURVE SMOOTH",
"281 406 OFFCURVE",
"228 325 OFFCURVE",
"101 297 CURVE",
"151 167 OFFCURVE",
"220 104 OFFCURVE",
"333 104 CURVE SMOOTH",
"393 104 OFFCURVE",
"446 133 OFFCURVE",
"484 160 CURVE",
"514 144 LINE",
"496 285 LINE SMOOTH",
"467 244 OFFCURVE",
"380 183 OFFCURVE",
"294 183 CURVE SMOOTH",
"238 183 OFFCURVE",
"199 209 OFFCURVE",
"186 245 CURVE",
"283 292 OFFCURVE",
"353 384 OFFCURVE",
"353 479 CURVE SMOOTH",
"353 604 OFFCURVE",
"246 659 OFFCURVE",
"161 659 CURVE SMOOTH"
);
}
);
width = 684;
}
);
unicode = 0925;
},
{
glyphname = "da-deva";
lastChange = "2014-07-16 12:42:28 +0100";
layers = (
{
anchors = (
{
name = bottom;
position = "{498, 0}";
},
{
name = top;
position = "{382, 650}";
}
);
background = {
anchors = (
{
name = nukta;
position = "{293, -3}";
},
{
name = bottom;
position = "{339, -16}";
},
{
name = top;
position = "{391, 650}";
}
);
paths = (
{
closed = 1;
nodes = (
"-31 650 LINE",
"-31 634 LINE",
"0 575 LINE",
"347 575 LINE",
"347 460 LINE",
"250 460 LINE SMOOTH",
"148 460 OFFCURVE",
"52 414 OFFCURVE",
"52 268 CURVE SMOOTH",
"52 66 OFFCURVE",
"229 -30 OFFCURVE",
"339 -30 CURVE SMOOTH",
"412 -30 OFFCURVE",
"512 20 OFFCURVE",
"512 121 CURVE SMOOTH",
"512 213 OFFCURVE",
"444 282 OFFCURVE",
"361 282 CURVE SMOOTH",
"302 282 OFFCURVE",
"233 254 OFFCURVE",
"233 160 CURVE SMOOTH",
"233 111 OFFCURVE",
"258 68 OFFCURVE",
"279 39 CURVE",
"312 39 LINE",
"305 55 OFFCURVE",
"291 79 OFFCURVE",
"291 116 CURVE SMOOTH",
"291 183 OFFCURVE",
"351 217 OFFCURVE",
"393 217 CURVE SMOOTH",
"427 217 OFFCURVE",
"468 189 OFFCURVE",
"468 142 CURVE SMOOTH",
"468 90 OFFCURVE",
"394 51 OFFCURVE",
"307 49 CURVE",
"246 49 OFFCURVE",
"102 112 OFFCURVE",
"102 241 CURVE SMOOTH",
"102 329 OFFCURVE",
"174 375 OFFCURVE",
"273 375 CURVE SMOOTH",
"435 375 LINE",
"435 575 LINE",
"573 575 LINE",
"573 590 LINE",
"541 650 LINE"
);
}
);
};
layerId = "39185045-6A8C-415A-8312-7B8F11386A4C";
name = Regular;
paths = (
{
closed = 1;
nodes = (
"-31 650 LINE",
"-31 634 LINE",
"0 575 LINE",
"338 575 LINE",
"338 468 LINE",
"259 468 LINE SMOOTH",
"125 468 OFFCURVE",
"61 414 OFFCURVE",
"61 277 CURVE SMOOTH",
"61 118 OFFCURVE",
"201 25 OFFCURVE",
"293 25 CURVE SMOOTH",
"329 25 OFFCURVE",
"360 29 OFFCURVE",
"387 38 CURVE",
"463 -140 LINE",
"521 -109 LINE",
"427 56 LINE",
"473 82 OFFCURVE",
"498 121 OFFCURVE",
"498 160 CURVE SMOOTH",
"498 211 OFFCURVE",
"466 258 OFFCURVE",
"400 258 CURVE SMOOTH",
"384 258 OFFCURVE",
"357 255 OFFCURVE",
"335 239 CURVE",
"361 110 LINE",
"341 106 OFFCURVE",
"317 104 OFFCURVE",
"293 104 CURVE SMOOTH",
"253 104 OFFCURVE",
"110 136 OFFCURVE",
"110 251 CURVE SMOOTH",
"110 329 OFFCURVE",
"157 385 OFFCURVE",
"282 385 CURVE SMOOTH",
"427 385 LINE",
"427 575 LINE",
"578 575 LINE",
"578 590 LINE",
"546 650 LINE"
);
}
);
width = 578;
},
{
anchors = (
{
name = bottom;
position = "{512, 0}";
},
{
name = top;
position = "{366, 634}";
}
);
background = {
paths = (
{
closed = 1;
nodes = (
"-31 650 LINE",
"-31 634 LINE",
"0 575 LINE",
"338 575 LINE",
"338 468 LINE",
"259 468 LINE SMOOTH",
"125 468 OFFCURVE",
"61 414 OFFCURVE",
"61 277 CURVE SMOOTH",
"61 118 OFFCURVE",
"201 25 OFFCURVE",
"293 25 CURVE SMOOTH",
"329 25 OFFCURVE",
"360 29 OFFCURVE",
"387 38 CURVE",
"463 -140 LINE",
"521 -109 LINE",
"427 56 LINE",
"473 82 OFFCURVE",
"498 121 OFFCURVE",
"498 160 CURVE SMOOTH",
"498 211 OFFCURVE",
"466 258 OFFCURVE",
"400 258 CURVE SMOOTH",
"384 258 OFFCURVE",
"357 255 OFFCURVE",
"335 239 CURVE",
"361 110 LINE",
"341 106 OFFCURVE",
"317 104 OFFCURVE",
"293 104 CURVE SMOOTH",
"253 104 OFFCURVE",
"110 136 OFFCURVE",
"110 251 CURVE SMOOTH",
"110 329 OFFCURVE",
"157 385 OFFCURVE",
"282 385 CURVE SMOOTH",
"427 385 LINE",
"427 575 LINE",
"578 575 LINE",
"578 590 LINE",
"546 650 LINE"
);
}
);
};
layerId = "E777F328-EA17-4AE7-9EBA-8002E537BA4F";
name = Light;
paths = (
{
closed = 1;
nodes = (
"-29 634 LINE",
"-29 624 LINE",
"-12 590 LINE",
"340 590 LINE",
"340 460 LINE",
"255 460 LINE SMOOTH",
"127 460 OFFCURVE",
"65 397 OFFCURVE",
"65 285 CURVE SMOOTH",
"65 141 OFFCURVE",
"186 67 OFFCURVE",
"288 67 CURVE SMOOTH",
"319 67 OFFCURVE",
"351 72 OFFCURVE",
"377 81 CURVE",
"448 -86 LINE",
"505 -58 LINE",
"416 99 LINE",
"444 119 OFFCURVE",
"460 148 OFFCURVE",
"460 178 CURVE SMOOTH",
"460 219 OFFCURVE",
"435 257 OFFCURVE",
"384 257 CURVE SMOOTH",
"372 257 OFFCURVE",
"352 254 OFFCURVE",
"334 241 CURVE",
"358 124 LINE",
"338 119 OFFCURVE",
"314 117 OFFCURVE",
"290 117 CURVE SMOOTH",
"230 117 OFFCURVE",
"109 149 OFFCURVE",
"109 269 CURVE SMOOTH",
"109 356 OFFCURVE",
"158 416 OFFCURVE",
"268 416 CURVE SMOOTH",
"394 416 LINE",
"394 590 LINE",
"537 590 LINE",
"537 601 LINE",
"518 634 LINE"
);
}
);
width = 537;
},
{
layerId = "B26750D4-52C5-4F85-819B-BFB2F142DAD5";
name = Bold;
paths = (
{
closed = 1;
nodes = (
"-31 650 LINE",
"-31 634 LINE",
"0 575 LINE",
"338 575 LINE",
"338 468 LINE",
"259 468 LINE SMOOTH",
"125 468 OFFCURVE",
"61 414 OFFCURVE",
"61 277 CURVE SMOOTH",
"61 118 OFFCURVE",
"201 25 OFFCURVE",
"293 25 CURVE SMOOTH",
"329 25 OFFCURVE",
"360 29 OFFCURVE",
"387 38 CURVE",
"463 -140 LINE",
"521 -109 LINE",
"427 56 LINE",
"473 82 OFFCURVE",
"498 121 OFFCURVE",
"498 160 CURVE SMOOTH",
"498 211 OFFCURVE",
"466 258 OFFCURVE",
"400 258 CURVE SMOOTH",
"384 258 OFFCURVE",
"357 255 OFFCURVE",
"335 239 CURVE",
"361 110 LINE",
"341 106 OFFCURVE",
"317 104 OFFCURVE",
"293 104 CURVE SMOOTH",
"253 104 OFFCURVE",
"110 136 OFFCURVE",
"110 251 CURVE SMOOTH",
"110 329 OFFCURVE",
"157 385 OFFCURVE",
"282 385 CURVE SMOOTH",
"427 385 LINE",
"427 575 LINE",
"578 575 LINE",
"578 590 LINE",
"546 650 LINE"
);
}
);
width = 578;
}
);
unicode = 0926;
},
{
glyphname = "dha-deva";
lastChange = "2014-07-10 11:35:48 +0100";
layers = (
{
anchors = (
{
name = bottom;
position = "{532, 0}";
},
{
name = top;
position = "{532, 650}";
}
);
background = {
paths = (
{
closed = 1;
nodes = (
"386 377 LINE",
"378 395 OFFCURVE",
"369 415 OFFCURVE",
"369 415 CURVE",
"347 426 OFFCURVE",
"312 428 OFFCURVE",
"276 428 CURVE SMOOTH",
"258 428 OFFCURVE",
"240 426 OFFCURVE",
"223 419 CURVE",
"173 445 OFFCURVE",
"123 496 OFFCURVE",
"123 549 CURVE SMOOTH",
"123 595 OFFCURVE",
"150 616 OFFCURVE",
"186 616 CURVE SMOOTH",
"208 616 OFFCURVE",
"224 609 OFFCURVE",
"233 598 CURVE",
"233 524 LINE",
"238 521 OFFCURVE",
"247 519 OFFCURVE",
"258 519 CURVE SMOOTH",
"297 519 OFFCURVE",
"310 543 OFFCURVE",
"310 562 CURVE SMOOTH",
"310 606 OFFCURVE",
"279 628 OFFCURVE",
"256 645 CURVE SMOOTH",
"235 661 OFFCURVE",
"194 677 OFFCURVE",
"160 677 CURVE SMOOTH",
"98 677 OFFCURVE",
"47 643 OFFCURVE",
"47 574 CURVE SMOOTH",
"47 497 OFFCURVE",
"104 429 OFFCURVE",
"172 387 CURVE",
"135 355 OFFCURVE",
"109 308 OFFCURVE",
"109 261 CURVE SMOOTH",
"109 218 OFFCURVE",
"154 171 OFFCURVE",
"188 142 CURVE SMOOTH",
"228 110 OFFCURVE",
"274 102 OFFCURVE",
"320 102 CURVE SMOOTH",
"364 102 OFFCURVE",
"425 131 OFFCURVE",
"486 178 CURVE",
"489 176 LINE",
"486 0 LINE",
"560 -42 LINE",
"577 -42 LINE",
"577 575 LINE",
"686 575 LINE",
"686 590 LINE",
"654 650 LINE",
"345 650 LINE",
"345 634 LINE",
"376 575 LINE",
"488 575 LINE",
"488 313 LINE",
"452 252 OFFCURVE",
"338 174 OFFCURVE",
"269 174 CURVE SMOOTH",
"235 174 OFFCURVE",
"185 189 OFFCURVE",
"185 233 CURVE SMOOTH",
"185 286 OFFCURVE",
"227 358 OFFCURVE",
"303 358 CURVE SMOOTH",
"326 358 OFFCURVE",
"350 356 OFFCURVE",
"375 350 CURVE"
);
}
);
};
layerId = "39185045-6A8C-415A-8312-7B8F11386A4C";
name = Regular;
paths = (
{
closed = 1;
nodes = (
"238 428 OFFCURVE",
"219 419 OFFCURVE",
"197 405 CURVE SMOOTH",
"142 372 OFFCURVE",
"109 312 OFFCURVE",
"109 261 CURVE SMOOTH",
"109 218 OFFCURVE",
"154 171 OFFCURVE",
"188 142 CURVE SMOOTH",
"228 110 OFFCURVE",
"274 102 OFFCURVE",
"320 102 CURVE SMOOTH",
"368 102 OFFCURVE",
"431 135 OFFCURVE",
"492 183 CURVE",
"494 323 LINE",
"459 257 OFFCURVE",
"341 174 OFFCURVE",
"269 174 CURVE SMOOTH",
"235 174 OFFCURVE",
"185 189 OFFCURVE",
"185 233 CURVE SMOOTH",
"185 286 OFFCURVE",
"227 358 OFFCURVE",
"303 358 CURVE SMOOTH",
"326 358 OFFCURVE",
"350 356 OFFCURVE",
"375 350 CURVE",
"386 377 LINE",
"378 395 OFFCURVE",
"369 415 OFFCURVE",
"369 415 CURVE",
"347 426 OFFCURVE",
"312 428 OFFCURVE",
"276 428 CURVE SMOOTH"
);
},
{
closed = 1;
nodes = (
"98 677 OFFCURVE",
"47 643 OFFCURVE",
"47 574 CURVE SMOOTH",
"47 497 OFFCURVE",
"104 427 OFFCURVE",
"176 385 CURVE",
"227 417 LINE",
"173 444 OFFCURVE",
"123 496 OFFCURVE",
"123 549 CURVE SMOOTH",
"123 595 OFFCURVE",
"150 616 OFFCURVE",
"186 616 CURVE SMOOTH",
"208 616 OFFCURVE",
"224 609 OFFCURVE",
"233 598 CURVE",
"233 524 LINE",
"238 521 OFFCURVE",
"247 519 OFFCURVE",
"258 519 CURVE SMOOTH",
"297 519 OFFCURVE",
"310 543 OFFCURVE",
"310 562 CURVE SMOOTH",
"310 606 OFFCURVE",
"279 628 OFFCURVE",
"256 645 CURVE SMOOTH",
"235 661 OFFCURVE",
"194 677 OFFCURVE",
"160 677 CURVE SMOOTH"
);
},
{
closed = 1;
nodes = (
"488 605 LINE",
"488 233 LINE",
"455 199 LINE",
"489 176 LINE",
"486 0 LINE",
"560 -42 LINE",
"577 -42 LINE",
"577 605 LINE"
);
},
{
closed = 1;
nodes = (
"345 650 LINE",
"345 634 LINE",
"376 575 LINE",
"686 575 LINE",
"686 590 LINE",
"654 650 LINE"
);
}
);
width = 686;
},
{
anchors = (
{
name = bottom;
position = "{486, 0}";
},
{
name = top;
position = "{486, 634}";
}
);
background = {
paths = (
{
closed = 1;
nodes = (
"224 428 OFFCURVE",
"205 419 OFFCURVE",
"183 405 CURVE SMOOTH",
"128 372 OFFCURVE",
"95 312 OFFCURVE",
"95 261 CURVE SMOOTH",
"95 218 OFFCURVE",
"140 171 OFFCURVE",
"174 142 CURVE SMOOTH",
"214 110 OFFCURVE",
"260 102 OFFCURVE",
"306 102 CURVE SMOOTH",
"354 102 OFFCURVE",
"417 135 OFFCURVE",
"478 183 CURVE",
"480 323 LINE",
"445 257 OFFCURVE",
"327 174 OFFCURVE",
"255 174 CURVE SMOOTH",
"221 174 OFFCURVE",
"171 189 OFFCURVE",
"171 233 CURVE SMOOTH",
"171 286 OFFCURVE",
"213 358 OFFCURVE",
"289 358 CURVE SMOOTH",
"312 358 OFFCURVE",
"336 356 OFFCURVE",
"361 350 CURVE",
"372 377 LINE",
"364 395 OFFCURVE",
"355 415 OFFCURVE",
"355 415 CURVE",
"333 426 OFFCURVE",
"298 428 OFFCURVE",
"262 428 CURVE SMOOTH"
);
},
{
closed = 1;
nodes = (
"84 677 OFFCURVE",
"33 643 OFFCURVE",
"33 574 CURVE SMOOTH",
"33 497 OFFCURVE",
"90 427 OFFCURVE",
"162 385 CURVE",
"213 417 LINE",
"159 444 OFFCURVE",
"109 496 OFFCURVE",
"109 549 CURVE SMOOTH",
"109 595 OFFCURVE",
"136 616 OFFCURVE",
"172 616 CURVE SMOOTH",
"194 616 OFFCURVE",
"210 609 OFFCURVE",
"219 598 CURVE",
"219 524 LINE",
"224 521 OFFCURVE",
"233 519 OFFCURVE",
"244 519 CURVE SMOOTH",
"283 519 OFFCURVE",
"296 543 OFFCURVE",
"296 562 CURVE SMOOTH",
"296 606 OFFCURVE",
"265 628 OFFCURVE",
"242 645 CURVE SMOOTH",
"221 661 OFFCURVE",
"180 677 OFFCURVE",
"146 677 CURVE SMOOTH"
);
},
{
closed = 1;
nodes = (
"474 605 LINE",
"474 233 LINE",
"441 199 LINE",
"475 176 LINE",
"472 0 LINE",
"546 -42 LINE",
"563 -42 LINE",
"563 605 LINE"
);
},
{
closed = 1;
nodes = (
"331 650 LINE",
"331 634 LINE",
"362 575 LINE",
"672 575 LINE",
"672 590 LINE",
"640 650 LINE"
);
},
{
closed = 1;
nodes = (
"234 602 OFFCURVE",
"242 610 OFFCURVE",
"242 621 CURVE SMOOTH",
"242 631 OFFCURVE",
"234 639 OFFCURVE",
"224 639 CURVE SMOOTH",
"213 639 OFFCURVE",
"205 631 OFFCURVE",
"205 621 CURVE SMOOTH",
"205 610 OFFCURVE",
"213 602 OFFCURVE",
"224 602 CURVE SMOOTH"
);
}
);
};
layerId = "E777F328-EA17-4AE7-9EBA-8002E537BA4F";
name = Light;
paths = (
{
closed = 1;
nodes = (
"222 424 OFFCURVE",
"195 411 OFFCURVE",
"170 394 CURVE SMOOTH",
"138 371 OFFCURVE",
"116 333 OFFCURVE",
"116 293 CURVE SMOOTH",
"116 274 OFFCURVE",
"119 236 OFFCURVE",
"149 204 CURVE SMOOTH",
"185 166 OFFCURVE",
"220 147 OFFCURVE",
"276 147 CURVE SMOOTH",
"364 147 OFFCURVE",
"424 195 OFFCURVE",
"481 238 CURVE",
"483 306 LINE",
"422 251 OFFCURVE",
"352 197 OFFCURVE",
"256 197 CURVE SMOOTH",
"210 197 OFFCURVE",
"161 219 OFFCURVE",
"161 267 CURVE SMOOTH",
"161 329 OFFCURVE",
"215 374 OFFCURVE",
"281 374 CURVE SMOOTH",
"295 374 OFFCURVE",
"313 373 OFFCURVE",
"329 368 CURVE",
"332 377 LINE",
"324 396 OFFCURVE",
"314 415 OFFCURVE",
"314 415 CURVE",
"302 419 OFFCURVE",
"270 424 OFFCURVE",
"251 424 CURVE SMOOTH"
);
},
{
closed = 1;
nodes = (
"98 663 OFFCURVE",
"51 629 OFFCURVE",
"51 561 CURVE SMOOTH",
"51 482 OFFCURVE",
"108 413 OFFCURVE",
"180 370 CURVE",
"200 407 LINE",
"158 421 OFFCURVE",
"95 482 OFFCURVE",
"95 547 CURVE SMOOTH",
"95 596 OFFCURVE",
"134 613 OFFCURVE",
"175 613 CURVE SMOOTH",
"198 613 OFFCURVE",
"215 606 OFFCURVE",
"224 598 CURVE",
"224 538 LINE",
"229 535 OFFCURVE",
"238 533 OFFCURVE",
"249 533 CURVE SMOOTH",
"280 533 OFFCURVE",
"289 552 OFFCURVE",
"290 563 CURVE SMOOTH",
"291 587 OFFCURVE",
"267 615 OFFCURVE",
"235 636 CURVE SMOOTH",
"210 652 OFFCURVE",
"180 663 OFFCURVE",
"154 663 CURVE SMOOTH"
);
},
{
closed = 1;
nodes = (
"460 605 LINE",
"460 240 LINE",
"431 240 LINE",
"459 220 LINE",
"459 13 LINE",
"501 -11 LINE",
"514 -11 LINE",
"514 605 LINE"
);
},
{
closed = 1;
nodes = (
"346 634 LINE",
"346 624 LINE",
"364 590 LINE",
"630 590 LINE",
"630 601 LINE",
"610 634 LINE"
);
}
);
width = 630;
},
{
layerId = "B26750D4-52C5-4F85-819B-BFB2F142DAD5";
name = Bold;
paths = (
{
closed = 1;
nodes = (
"238 428 OFFCURVE",
"219 419 OFFCURVE",
"197 405 CURVE SMOOTH",
"142 372 OFFCURVE",
"109 312 OFFCURVE",
"109 261 CURVE SMOOTH",
"109 218 OFFCURVE",
"154 171 OFFCURVE",
"188 142 CURVE SMOOTH",
"228 110 OFFCURVE",
"274 102 OFFCURVE",
"320 102 CURVE SMOOTH",
"368 102 OFFCURVE",
"431 135 OFFCURVE",
"492 183 CURVE",
"494 323 LINE",
"459 257 OFFCURVE",
"341 174 OFFCURVE",
"269 174 CURVE SMOOTH",
"235 174 OFFCURVE",
"185 189 OFFCURVE",
"185 233 CURVE SMOOTH",
"185 286 OFFCURVE",
"227 358 OFFCURVE",
"303 358 CURVE SMOOTH",
"326 358 OFFCURVE",
"350 356 OFFCURVE",
"375 350 CURVE",
"386 377 LINE",
"378 395 OFFCURVE",
"369 415 OFFCURVE",
"369 415 CURVE",
"347 426 OFFCURVE",
"312 428 OFFCURVE",
"276 428 CURVE SMOOTH"
);
},
{
closed = 1;
nodes = (
"98 677 OFFCURVE",
"47 643 OFFCURVE",
"47 574 CURVE SMOOTH",
"47 497 OFFCURVE",
"104 427 OFFCURVE",
"176 385 CURVE",
"227 417 LINE",
"173 444 OFFCURVE",
"123 496 OFFCURVE",
"123 549 CURVE SMOOTH",
"123 595 OFFCURVE",
"150 616 OFFCURVE",
"186 616 CURVE SMOOTH",
"208 616 OFFCURVE",
"224 609 OFFCURVE",
"233 598 CURVE",
"233 524 LINE",
"238 521 OFFCURVE",
"247 519 OFFCURVE",
"258 519 CURVE SMOOTH",
"297 519 OFFCURVE",
"310 543 OFFCURVE",
"310 562 CURVE SMOOTH",
"310 606 OFFCURVE",
"279 628 OFFCURVE",
"256 645 CURVE SMOOTH",
"235 661 OFFCURVE",
"194 677 OFFCURVE",
"160 677 CURVE SMOOTH"
);
},
{
closed = 1;
nodes = (
"488 605 LINE",
"488 233 LINE",
"455 199 LINE",
"489 176 LINE",
"486 0 LINE",
"560 -42 LINE",
"577 -42 LINE",
"577 605 LINE"
);
},
{
closed = 1;
nodes = (
"345 650 LINE",
"345 634 LINE",
"376 575 LINE",
"686 575 LINE",
"686 590 LINE",
"654 650 LINE"
);
}
);
width = 686;
}
);
unicode = 0927;
},
{
glyphname = "na-deva";
lastChange = "2014-07-17 16:13:08 +0100";
layers = (
{
anchors = (
{
name = bottom;
position = "{443, 0}";
},
{
name = nukta;
position = "{241, 198}";
},
{
name = top;
position = "{443, 650}";
}
);
background = {
paths = (
{
closed = 1;
nodes = (
"242 -24 LINE",
"319 55 LINE",
"241 133 LINE",
"164 54 LINE"
);
},
{
closed = 1;
nodes = (
"596 575 LINE",
"596 590 LINE",
"565 650 LINE",
"-31 650 LINE",
"-31 634 LINE",
"0 575 LINE",
"399 575 LINE",
"399 373 LINE",
"338 377 OFFCURVE",
"230 383 OFFCURVE",
"140 383 CURVE SMOOTH",
"103 383 OFFCURVE",
"34 378 OFFCURVE",
"34 305 CURVE SMOOTH",
"34 225 OFFCURVE",
"114 191 OFFCURVE",
"158 191 CURVE SMOOTH",
"175 191 OFFCURVE",
"187 193 OFFCURVE",
"199 197 CURVE",
"185 296 LINE",
"399 305 LINE",
"399 -1 LINE",
"471 -42 LINE",
"487 -42 LINE",
"487 575 LINE"
);
}
);
};
layerId = "39185045-6A8C-415A-8312-7B8F11386A4C";
name = Regular;
paths = (
{
closed = 1;
nodes = (
"-31 650 LINE",
"-31 634 LINE",
"0 575 LINE",
"399 575 LINE",
"399 -1 LINE",
"471 -42 LINE",
"487 -42 LINE",
"487 575 LINE",
"596 575 LINE",
"596 590 LINE",
"565 650 LINE"
);
},
{
closed = 1;
nodes = (
"103 383 OFFCURVE",
"34 378 OFFCURVE",
"34 305 CURVE SMOOTH",
"34 225 OFFCURVE",
"114 191 OFFCURVE",
"158 191 CURVE SMOOTH",
"175 191 OFFCURVE",
"187 193 OFFCURVE",
"199 197 CURVE",
"185 296 LINE",
"419 305 LINE",
"419 372 LINE",
"357 376 OFFCURVE",
"230 383 OFFCURVE",
"140 383 CURVE SMOOTH"
);
}
);
width = 596;
},
{
anchors = (
{
name = bottom;
position = "{414, 0}";
},
{
name = top;
position = "{414, 634}";
}
);
background = {
paths = (
{
closed = 1;
nodes = (
"-58 650 LINE",
"-58 634 LINE",
"-27 575 LINE",
"372 575 LINE",
"372 -1 LINE",
"444 -42 LINE",
"460 -42 LINE",
"460 575 LINE",
"569 575 LINE",
"569 590 LINE",
"538 650 LINE"
);
},
{
closed = 1;
nodes = (
"76 383 OFFCURVE",
"7 378 OFFCURVE",
"7 305 CURVE SMOOTH",
"7 225 OFFCURVE",
"87 191 OFFCURVE",
"131 191 CURVE SMOOTH",
"148 191 OFFCURVE",
"160 193 OFFCURVE",
"172 197 CURVE",
"158 296 LINE",
"392 305 LINE",
"392 372 LINE",
"330 376 OFFCURVE",
"203 383 OFFCURVE",
"113 383 CURVE SMOOTH"
);
}
);
};
layerId = "E777F328-EA17-4AE7-9EBA-8002E537BA4F";
name = Light;
paths = (
{
closed = 1;
nodes = (
"-29 634 LINE",
"-29 624 LINE",
"-12 590 LINE",
"388 590 LINE",
"387 13 LINE",
"430 -11 LINE",
"442 -11 LINE",
"442 590 LINE",
"558 590 LINE",
"558 601 LINE",
"539 634 LINE"
);
},
{
closed = 1;
nodes = (
"107 382 OFFCURVE",
"46 378 OFFCURVE",
"46 317 CURVE SMOOTH",
"46 251 OFFCURVE",
"112 227 OFFCURVE",
"143 227 CURVE SMOOTH",
"155 227 OFFCURVE",
"164 228 OFFCURVE",
"171 231 CURVE",
"156 332 LINE",
"391 333 LINE",
"391 375 LINE",
"317 378 OFFCURVE",
"221 382 OFFCURVE",
"140 382 CURVE SMOOTH"
);
}
);
width = 558;
},
{
layerId = "B26750D4-52C5-4F85-819B-BFB2F142DAD5";
name = Bold;
paths = (
{
closed = 1;
nodes = (
"-56 669 LINE",
"-56 647 LINE",
"-9 556 LINE",
"420 556 LINE",
"420 26 LINE",
"532 -37 LINE",
"554 -37 LINE",
"554 556 LINE",
"644 556 LINE",
"644 577 LINE",
"594 669 LINE"
);
},
{
closed = 1;
nodes = (
"113 406 OFFCURVE",
"33 399 OFFCURVE",
"33 294 CURVE SMOOTH",
"33 214 OFFCURVE",
"120 180 OFFCURVE",
"168 180 CURVE SMOOTH",
"188 180 OFFCURVE",
"206 182 OFFCURVE",
"221 184 CURVE",
"207 284 LINE",
"424 309 LINE",
"424 379 LINE",
"361 387 OFFCURVE",
"250 406 OFFCURVE",
"158 406 CURVE SMOOTH"
);
}
);
width = 644;
}
);
unicode = 0928;
},
{
glyphname = "nnna-deva";
lastChange = "2014-07-17 11:45:59 +0100";
layers = (
{
anchors = (
{
name = bottom;
position = "{443, 0}";
},
{
name = top;
position = "{443, 650}";
}
);
layerId = "39185045-6A8C-415A-8312-7B8F11386A4C";
name = Regular;
paths = (
{
closed = 1;
nodes = (
"-31 650 LINE",
"-31 634 LINE",
"0 575 LINE",
"399 575 LINE",
"399 -1 LINE",
"471 -42 LINE",
"487 -42 LINE",
"487 575 LINE",
"596 575 LINE",
"596 590 LINE",
"565 650 LINE"
);
},
{
closed = 1;
nodes = (
"164 54 LINE",
"242 -24 LINE",
"319 55 LINE",
"241 133 LINE"
);
},
{
closed = 1;
nodes = (
"103 383 OFFCURVE",
"34 378 OFFCURVE",
"34 305 CURVE SMOOTH",
"34 225 OFFCURVE",
"114 191 OFFCURVE",
"158 191 CURVE SMOOTH",
"175 191 OFFCURVE",
"187 193 OFFCURVE",
"199 197 CURVE",
"185 296 LINE",
"419 305 LINE",
"419 372 LINE",
"357 376 OFFCURVE",
"230 383 OFFCURVE",
"140 383 CURVE SMOOTH"
);
}
);
width = 596;
},
{
anchors = (
{
name = bottom;
position = "{414, 0}";
},
{
name = top;
position = "{414, 634}";
}
);
background = {
anchors = (
{
name = top;
position = "{415, 650}";
},
{
name = bottom;
position = "{415, 0}";
}
);
paths = (
{
closed = 1;
nodes = (
"214 -24 LINE",
"291 55 LINE",
"213 133 LINE",
"136 54 LINE"
);
},
{
closed = 1;
nodes = (
"568 575 LINE",
"568 590 LINE",
"537 650 LINE",
"-59 650 LINE",
"-59 634 LINE",
"-28 575 LINE",
"371 575 LINE",
"371 373 LINE",
"310 377 OFFCURVE",
"202 383 OFFCURVE",
"112 383 CURVE SMOOTH",
"75 383 OFFCURVE",
"6 378 OFFCURVE",
"6 305 CURVE SMOOTH",
"6 225 OFFCURVE",
"86 191 OFFCURVE",
"130 191 CURVE SMOOTH",
"147 191 OFFCURVE",
"159 193 OFFCURVE",
"171 197 CURVE",
"157 296 LINE",
"371 305 LINE",
"371 -1 LINE",
"443 -42 LINE",
"459 -42 LINE",
"459 575 LINE"
);
}
);
};
layerId = "E777F328-EA17-4AE7-9EBA-8002E537BA4F";
name = Light;
paths = (
{
closed = 1;
nodes = (
"-29 634 LINE",
"-29 624 LINE",
"-12 590 LINE",
"388 590 LINE",
"387 13 LINE",
"430 -11 LINE",
"442 -11 LINE",
"442 590 LINE",
"558 590 LINE",
"558 601 LINE",
"539 634 LINE"
);
},
{
closed = 1;
nodes = (
"150 70 LINE",
"213 7 LINE",
"276 70 LINE",
"213 133 LINE"
);
},
{
closed = 1;
nodes = (
"107 382 OFFCURVE",
"46 378 OFFCURVE",
"46 317 CURVE SMOOTH",
"46 251 OFFCURVE",
"112 227 OFFCURVE",
"143 227 CURVE SMOOTH",
"155 227 OFFCURVE",
"164 228 OFFCURVE",
"171 231 CURVE",
"156 332 LINE",
"391 333 LINE",
"391 375 LINE",
"317 378 OFFCURVE",
"221 382 OFFCURVE",
"140 382 CURVE SMOOTH"
);
}
);
width = 558;
},
{
background = {
paths = (
{
closed = 1;
nodes = (
"252 -24 LINE",
"329 55 LINE",
"251 133 LINE",
"174 54 LINE"
);
},
{
closed = 1;
nodes = (
"606 575 LINE",
"606 590 LINE",
"575 650 LINE",
"-21 650 LINE",
"-21 634 LINE",
"10 575 LINE",
"409 575 LINE",
"409 373 LINE",
"348 377 OFFCURVE",
"240 383 OFFCURVE",
"150 383 CURVE SMOOTH",
"113 383 OFFCURVE",
"44 378 OFFCURVE",
"44 305 CURVE SMOOTH",
"44 225 OFFCURVE",
"124 191 OFFCURVE",
"168 191 CURVE SMOOTH",
"185 191 OFFCURVE",
"197 193 OFFCURVE",
"209 197 CURVE",
"195 296 LINE",
"409 305 LINE",
"409 -1 LINE",
"481 -42 LINE",
"497 -42 LINE",
"497 575 LINE"
);
}
);
};
layerId = "B26750D4-52C5-4F85-819B-BFB2F142DAD5";
name = Bold;
paths = (
{
closed = 1;
nodes = (
"-56 669 LINE",
"-56 647 LINE",
"-9 556 LINE",
"420 556 LINE",
"420 26 LINE",
"532 -37 LINE",
"554 -37 LINE",
"554 556 LINE",
"644 556 LINE",
"644 577 LINE",
"594 669 LINE"
);
},
{
closed = 1;
nodes = (
"139 22 LINE",
"251 -90 LINE",
"362 22 LINE",
"251 133 LINE"
);
},
{
closed = 1;
nodes = (
"113 406 OFFCURVE",
"33 399 OFFCURVE",
"33 294 CURVE SMOOTH",
"33 214 OFFCURVE",
"120 180 OFFCURVE",
"168 180 CURVE SMOOTH",
"188 180 OFFCURVE",
"206 182 OFFCURVE",
"221 184 CURVE",
"207 284 LINE",
"424 309 LINE",
"424 379 LINE",
"361 387 OFFCURVE",
"250 406 OFFCURVE",
"158 406 CURVE SMOOTH"
);
}
);
width = 644;
}
);
unicode = 0929;
},
{
glyphname = "pa-deva";
lastChange = "2014-07-15 08:50:09 +0100";
layers = (
{
anchors = (
{
name = bottom;
position = "{445, 0}";
},
{
name = top;
position = "{445, 650}";
}
);
layerId = "39185045-6A8C-415A-8312-7B8F11386A4C";
name = Regular;
paths = (
{
closed = 1;
nodes = (
"-31 650 LINE",
"-31 634 LINE",
"0 575 LINE",
"87 575 LINE",
"87 342 LINE SMOOTH",
"87 305 OFFCURVE",
"108 271 OFFCURVE",
"144 236 CURVE SMOOTH",
"183 198 OFFCURVE",
"224 166 OFFCURVE",
"270 166 CURVE SMOOTH",
"326 166 OFFCURVE",
"366 187 OFFCURVE",
"399 208 CURVE",
"421 208 LINE",
"411 316 LINE",
"382 287 OFFCURVE",
"318 248 OFFCURVE",
"254 248 CURVE SMOOTH",
"221 248 OFFCURVE",
"176 257 OFFCURVE",
"176 326 CURVE SMOOTH",
"176 575 LINE",
"401 575 LINE",
"401 -1 LINE",
"473 -42 LINE",
"489 -42 LINE",
"489 575 LINE",
"598 575 LINE",
"598 590 LINE",
"567 650 LINE"
);
}
);
width = 598;
},
{
anchors = (
{
name = bottom;
position = "{399, 0}";
},
{
name = top;
position = "{399, 634}";
}
);
background = {
paths = (
{
closed = 0;
nodes = (
"84 342 LINE SMOOTH",
"84 310 OFFCURVE",
"102 281 OFFCURVE",
"132 250 CURVE SMOOTH",
"164 218 OFFCURVE",
"199 190 OFFCURVE",
"237 190 CURVE SMOOTH"
);
}
);
};
layerId = "E777F328-EA17-4AE7-9EBA-8002E537BA4F";
name = Light;
paths = (
{
closed = 1;
nodes = (
"-29 634 LINE",
"-29 624 LINE",
"-12 590 LINE",
"94 590 LINE",
"94 352 LINE SMOOTH",
"94 295 OFFCURVE",
"109 272 OFFCURVE",
"132 250 CURVE SMOOTH",
"175 208 OFFCURVE",
"207 200 OFFCURVE",
"247 200 CURVE SMOOTH",
"299 200 OFFCURVE",
"339 222 OFFCURVE",
"370 242 CURVE",
"382 242 LINE",
"378 307 LINE",
"342 281 OFFCURVE",
"297 250 OFFCURVE",
"240 250 CURVE SMOOTH",
"184 250 OFFCURVE",
"148 279 OFFCURVE",
"148 351 CURVE SMOOTH",
"148 590 LINE",
"373 590 LINE",
"372 13 LINE",
"415 -11 LINE",
"427 -11 LINE",
"427 590 LINE",
"543 590 LINE",
"543 601 LINE",
"524 634 LINE"
);
}
);
width = 543;
},
{
layerId = "B26750D4-52C5-4F85-819B-BFB2F142DAD5";
name = Bold;
paths = (
{
closed = 1;
nodes = (
"-56 669 LINE",
"-56 647 LINE",
"-9 556 LINE",
"64 556 LINE",
"64 399 LINE SMOOTH",
"64 347 OFFCURVE",
"81 325 OFFCURVE",
"130 271 CURVE SMOOTH",
"179 219 OFFCURVE",
"237 152 OFFCURVE",
"284 152 CURVE SMOOTH",
"316 152 OFFCURVE",
"357 167 OFFCURVE",
"376 177 CURVE",
"397 167 LINE",
"410 333 LINE",
"381 304 OFFCURVE",
"321 266 OFFCURVE",
"260 266 CURVE SMOOTH",
"224 266 OFFCURVE",
"198 284 OFFCURVE",
"198 322 CURVE SMOOTH",
"198 556 LINE",
"378 556 LINE",
"378 26 LINE",
"489 -37 LINE",
"511 -37 LINE",
"511 556 LINE",
"601 556 LINE",
"601 577 LINE",
"552 669 LINE"
);
}
);
width = 601;
}
);
unicode = 092A;
},
{
glyphname = "pha-deva";
lastChange = "2014-07-09 08:56:49 +0100";
layers = (
{
anchors = (
{
name = bottom;
position = "{435, 0}";
},
{
name = nukta;
position = "{194, 189}";
},
{
name = top;
position = "{435, 650}";
}
);
background = {
paths = (
{
closed = 1;
nodes = (
"195 -32 LINE",
"272 47 LINE",
"194 124 LINE",
"117 46 LINE"
);
},
{
closed = 1;
nodes = (
"389 0 LINE",
"465 -42 LINE",
"480 -42 LINE",
"480 275 LINE",
"517 309 OFFCURVE",
"576 374 OFFCURVE",
"648 374 CURVE SMOOTH",
"698 374 OFFCURVE",
"738 332 OFFCURVE",
"738 275 CURVE SMOOTH",
"738 218 OFFCURVE",
"682 142 OFFCURVE",
"654 111 CURVE",
"723 40 LINE",
"755 90 OFFCURVE",
"789 195 OFFCURVE",
"789 251 CURVE SMOOTH",
"789 367 OFFCURVE",
"735 448 OFFCURVE",
"622 448 CURVE SMOOTH",
"559 448 OFFCURVE",
"507 400 OFFCURVE",
"480 377 CURVE",
"480 575 LINE",
"842 575 LINE",
"842 590 LINE",
"810 650 LINE",
"-31 650 LINE",
"-31 634 LINE",
"0 575 LINE",
"87 575 LINE",
"87 342 LINE SMOOTH",
"87 305 OFFCURVE",
"108 271 OFFCURVE",
"144 236 CURVE SMOOTH",
"183 198 OFFCURVE",
"224 166 OFFCURVE",
"270 166 CURVE SMOOTH",
"317 166 OFFCURVE",
"355 182 OFFCURVE",
"389 202 CURVE",
"393 200 LINE"
);
},
{
closed = 1;
nodes = (
"221 248 OFFCURVE",
"176 257 OFFCURVE",
"176 326 CURVE SMOOTH",
"176 575 LINE",
"391 575 LINE",
"391 299 LINE",
"355 272 OFFCURVE",
"305 248 OFFCURVE",
"254 248 CURVE SMOOTH"
);
}
);
};
layerId = "39185045-6A8C-415A-8312-7B8F11386A4C";
name = Regular;
paths = (
{
closed = 1;
nodes = (
"-31 650 LINE",
"-31 634 LINE",
"0 575 LINE",
"87 575 LINE",
"87 342 LINE SMOOTH",
"87 305 OFFCURVE",
"108 271 OFFCURVE",
"144 236 CURVE SMOOTH",
"183 198 OFFCURVE",
"224 166 OFFCURVE",
"270 166 CURVE SMOOTH",
"317 166 OFFCURVE",
"355 182 OFFCURVE",
"389 202 CURVE",
"409 202 LINE",
"409 313 LINE",
"374 282 OFFCURVE",
"314 248 OFFCURVE",
"254 248 CURVE SMOOTH",
"221 248 OFFCURVE",
"176 257 OFFCURVE",
"176 326 CURVE SMOOTH",
"176 575 LINE",
"391 575 LINE",
"391 258 LINE",
"393 224 LINE",
"389 0 LINE",
"465 -42 LINE",
"480 -42 LINE",
"480 575 LINE",
"842 575 LINE",
"842 590 LINE",
"810 650 LINE"
);
},
{
closed = 1;
nodes = (
"553 448 OFFCURVE",
"495 389 OFFCURVE",
"468 366 CURVE",
"428 333 LINE",
"470 265 LINE",
"508 300 OFFCURVE",
"571 374 OFFCURVE",
"648 374 CURVE SMOOTH",
"698 374 OFFCURVE",
"738 332 OFFCURVE",
"738 275 CURVE SMOOTH",
"738 218 OFFCURVE",
"682 142 OFFCURVE",
"654 111 CURVE",
"723 40 LINE",
"755 90 OFFCURVE",
"789 195 OFFCURVE",
"789 251 CURVE SMOOTH",
"789 367 OFFCURVE",
"735 448 OFFCURVE",
"622 448 CURVE SMOOTH"
);
}
);
width = 842;
},
{
anchors = (
{
name = bottom;
position = "{399, 0}";
},
{
name = top;
position = "{399, 634}";
}
);
background = {
paths = (
{
closed = 1;
nodes = (
"-56 659 LINE",
"-56 649 LINE",
"-39 615 LINE",
"375 615 LINE",
"374 249 LINE",
"377 247 LINE",
"372 38 LINE",
"416 14 LINE",
"428 14 LINE",
"428 615 LINE",
"791 615 LINE",
"791 626 LINE",
"771 659 LINE"
);
},
{
closed = 1;
nodes = (
"90 471 OFFCURVE",
"29 401 OFFCURVE",
"29 320 CURVE",
"29 211 OFFCURVE",
"108 159 OFFCURVE",
"191 159 CURVE",
"286 159 OFFCURVE",
"341 221 OFFCURVE",
"391 260 CURVE SMOOTH",
"420 287 LINE SMOOTH",
"489 358 OFFCURVE",
"544 397 OFFCURVE",
"598 397 CURVE",
"646 397 OFFCURVE",
"690 353 OFFCURVE",
"690 292 CURVE",
"690 221 OFFCURVE",
"637 150 OFFCURVE",
"616 127 CURVE SMOOTH",
"659 83 LINE SMOOTH",
"685 121 OFFCURVE",
"735 199 OFFCURVE",
"735 266 CURVE",
"735 376 OFFCURVE",
"670 447 OFFCURVE",
"582 447 CURVE",
"521 447 OFFCURVE",
"452 389 OFFCURVE",
"414 348 CURVE",
"386 322 LINE",
"328 266 OFFCURVE",
"255 209 OFFCURVE",
"171 209 CURVE",
"116 209 OFFCURVE",
"74 245 OFFCURVE",
"74 299 CURVE",
"74 372 OFFCURVE",
"137 420 OFFCURVE",
"204 421 CURVE",
"271 422 OFFCURVE",
"338 365 OFFCURVE",
"381 303 CURVE",
"380 368 LINE",
"344 409 OFFCURVE",
"270 471 OFFCURVE",
"184 471 CURVE"
);
}
);
};
layerId = "E777F328-EA17-4AE7-9EBA-8002E537BA4F";
name = Light;
paths = (
{
closed = 1;
nodes = (
"-29 634 LINE",
"-29 624 LINE",
"-12 590 LINE",
"94 590 LINE",
"94 352 LINE SMOOTH",
"94 295 OFFCURVE",
"109 272 OFFCURVE",
"132 250 CURVE SMOOTH",
"175 208 OFFCURVE",
"208 200 OFFCURVE",
"247 200 CURVE SMOOTH",
"300 200 OFFCURVE",
"339 222 OFFCURVE",
"370 242 CURVE",
"384 242 LINE",
"378 311 LINE",
"344 284 OFFCURVE",
"300 250 OFFCURVE",
"240 250 CURVE SMOOTH",
"184 250 OFFCURVE",
"148 279 OFFCURVE",
"148 351 CURVE SMOOTH",
"148 590 LINE",
"373 590 LINE",
"372 290 LINE",
"372 257 LINE",
"372 13 LINE",
"415 -11 LINE",
"427 -11 LINE",
"427 590 LINE",
"787 590 LINE",
"787 601 LINE",
"768 634 LINE"
);
},
{
closed = 1;
nodes = (
"530 447 OFFCURVE",
"471 407 OFFCURVE",
"413 348 CURVE",
"386 320 LINE",
"417 284 LINE",
"489 358 OFFCURVE",
"544 397 OFFCURVE",
"598 397 CURVE SMOOTH",
"647 397 OFFCURVE",
"690 353 OFFCURVE",
"690 292 CURVE SMOOTH",
"690 222 OFFCURVE",
"637 151 OFFCURVE",
"616 127 CURVE",
"659 83 LINE",
"685 121 OFFCURVE",
"735 200 OFFCURVE",
"735 266 CURVE SMOOTH",
"735 376 OFFCURVE",
"670 447 OFFCURVE",
"583 447 CURVE SMOOTH"
);
}
);
width = 787;
},
{
layerId = "B26750D4-52C5-4F85-819B-BFB2F142DAD5";
name = Bold;
paths = (
{
closed = 1;
nodes = (
"-56 669 LINE",
"-56 647 LINE",
"-9 556 LINE",
"64 556 LINE",
"64 399 LINE SMOOTH",
"64 347 OFFCURVE",
"81 325 OFFCURVE",
"130 271 CURVE SMOOTH",
"179 219 OFFCURVE",
"238 152 OFFCURVE",
"284 152 CURVE SMOOTH",
"319 152 OFFCURVE",
"366 170 OFFCURVE",
"385 182 CURVE",
"397 176 LINE",
"410 330 LINE",
"375 301 OFFCURVE",
"319 266 OFFCURVE",
"259 266 CURVE SMOOTH",
"231 266 OFFCURVE",
"198 279 OFFCURVE",
"198 322 CURVE SMOOTH",
"198 556 LINE",
"376 556 LINE",
"375 184 LINE",
"387 184 LINE",
"371 29 LINE",
"489 -37 LINE",
"511 -37 LINE",
"511 556 LINE",
"862 556 LINE",
"862 577 LINE",
"813 669 LINE"
);
},
{
closed = 1;
nodes = (
"574 468 OFFCURVE",
"512 427 OFFCURVE",
"472 387 CURVE",
"427 348 LINE",
"476 255 LINE",
"536 309 OFFCURVE",
"611 369 OFFCURVE",
"679 369 CURVE SMOOTH",
"716 369 OFFCURVE",
"737 355 OFFCURVE",
"737 331 CURVE SMOOTH",
"737 295 OFFCURVE",
"686 189 OFFCURVE",
"648 134 CURVE",
"773 64 LINE",
"809 154 OFFCURVE",
"820 222 OFFCURVE",
"820 274 CURVE SMOOTH",
"820 375 OFFCURVE",
"724 468 OFFCURVE",
"628 468 CURVE SMOOTH"
);
}
);
width = 862;
}
);
unicode = 092B;
},
{
glyphname = "ba-deva";
lastChange = "2014-07-17 13:39:16 +0100";
layers = (
{
anchors = (
{
name = bottom;
position = "{511, 0}";
},
{
name = top;
position = "{511, 650}";
}
);
layerId = "39185045-6A8C-415A-8312-7B8F11386A4C";
name = Regular;
paths = (
{
closed = 1;
nodes = (
"-31 650 LINE",
"-31 634 LINE",
"0 575 LINE",
"468 575 LINE",
"468 357 LINE",
"446 357 LINE",
"471 321 LINE",
"469 216 LINE",
"456 191 LINE",
"469 184 LINE",
"466 0 LINE",
"540 -42 LINE",
"556 -42 LINE",
"556 575 LINE",
"666 575 LINE",
"666 590 LINE",
"634 650 LINE"
);
},
{
closed = 1;
nodes = (
"191 383 LINE",
"335 165 LINE",
"367 182 LINE",
"221 404 LINE"
);
},
{
closed = 1;
nodes = (
"167 485 OFFCURVE",
"66 410 OFFCURVE",
"66 278 CURVE SMOOTH",
"66 159 OFFCURVE",
"175 93 OFFCURVE",
"276 93 CURVE SMOOTH",
"355 93 OFFCURVE",
"413 146 OFFCURVE",
"479 197 CURVE",
"477 308 LINE",
"436 244 OFFCURVE",
"321 164 OFFCURVE",
"236 164 CURVE SMOOTH",
"167 164 OFFCURVE",
"115 201 OFFCURVE",
"115 256 CURVE SMOOTH",
"115 330 OFFCURVE",
"202 397 OFFCURVE",
"301 397 CURVE SMOOTH",
"373 397 OFFCURVE",
"463 324 OFFCURVE",
"491 258 CURVE",
"494 315 LINE",
"457 382 OFFCURVE",
"360 485 OFFCURVE",
"250 485 CURVE SMOOTH"
);
}
);
width = 666;
},
{
anchors = (
{
name = bottom;
position = "{488, 0}";
},
{
name = top;
position = "{488, 634}";
}
);
background = {
paths = (
{
closed = 1;
nodes = (
"173 445 OFFCURVE",
"112 375 OFFCURVE",
"112 294 CURVE",
"112 185 OFFCURVE",
"191 133 OFFCURVE",
"274 133 CURVE",
"369 133 OFFCURVE",
"424 195 OFFCURVE",
"474 234 CURVE SMOOTH",
"503 261 LINE SMOOTH",
"572 332 OFFCURVE",
"627 371 OFFCURVE",
"681 371 CURVE",
"729 371 OFFCURVE",
"773 327 OFFCURVE",
"773 266 CURVE",
"773 195 OFFCURVE",
"720 124 OFFCURVE",
"699 101 CURVE SMOOTH",
"742 57 LINE SMOOTH",
"768 95 OFFCURVE",
"818 173 OFFCURVE",
"818 240 CURVE",
"818 350 OFFCURVE",
"753 421 OFFCURVE",
"665 421 CURVE",
"604 421 OFFCURVE",
"535 363 OFFCURVE",
"497 322 CURVE",
"469 296 LINE",
"411 240 OFFCURVE",
"338 183 OFFCURVE",
"254 183 CURVE",
"199 183 OFFCURVE",
"157 219 OFFCURVE",
"157 273 CURVE",
"157 346 OFFCURVE",
"220 394 OFFCURVE",
"287 395 CURVE",
"354 396 OFFCURVE",
"421 339 OFFCURVE",
"464 277 CURVE",
"463 342 LINE",
"427 383 OFFCURVE",
"353 445 OFFCURVE",
"267 445 CURVE"
);
}
);
};
layerId = "E777F328-EA17-4AE7-9EBA-8002E537BA4F";
name = Light;
paths = (
{
closed = 1;
nodes = (
"-29 634 LINE",
"-29 624 LINE",
"-12 590 LINE",
"461 590 LINE",
"461 347 LINE",
"451 347 LINE",
"461 328 LINE",
"461 232 LINE",
"448 217 LINE",
"461 214 LINE",
"460 11 LINE",
"501 -11 LINE",
"512 -11 LINE",
"512 590 LINE",
"630 590 LINE",
"630 601 LINE",
"612 634 LINE"
);
},
{
closed = 1;
nodes = (
"166 412 LINE",
"329 165 LINE",
"361 182 LINE",
"201 425 LINE"
);
},
{
closed = 1;
nodes = (
"166 461 OFFCURVE",
"66 402 OFFCURVE",
"66 280 CURVE SMOOTH",
"66 167 OFFCURVE",
"163 113 OFFCURVE",
"253 113 CURVE SMOOTH",
"328 113 OFFCURVE",
"413 165 OFFCURVE",
"467 223 CURVE",
"470 297 LINE",
"423 234 OFFCURVE",
"322 163 OFFCURVE",
"233 163 CURVE SMOOTH",
"159 163 OFFCURVE",
"111 209 OFFCURVE",
"111 260 CURVE SMOOTH",
"111 337 OFFCURVE",
"172 411 OFFCURVE",
"268 411 CURVE SMOOTH",
"347 411 OFFCURVE",
"440 325 OFFCURVE",
"464 276 CURVE",
"466 337 LINE",
"434 382 OFFCURVE",
"367 461 OFFCURVE",
"248 461 CURVE SMOOTH"
);
}
);
width = 630;
},
{
layerId = "B26750D4-52C5-4F85-819B-BFB2F142DAD5";
name = Bold;
paths = (
{
closed = 1;
nodes = (
"-56 669 LINE",
"-56 647 LINE",
"-9 556 LINE",
"445 556 LINE",
"445 375 LINE",
"422 375 LINE",
"445 337 LINE",
"445 184 LINE",
"433 152 LINE",
"447 149 LINE",
"439 29 LINE",
"557 -37 LINE",
"579 -37 LINE",
"579 556 LINE",
"670 556 LINE",
"670 577 LINE",
"620 669 LINE"
);
},
{
closed = 1;
nodes = (
"187 378 LINE",
"312 189 LINE",
"345 207 LINE",
"222 390 LINE"
);
},
{
closed = 1;
nodes = (
"149 501 OFFCURVE",
"45 422 OFFCURVE",
"45 283 CURVE SMOOTH",
"45 151 OFFCURVE",
"165 81 OFFCURVE",
"257 81 CURVE SMOOTH",
"344 81 OFFCURVE",
"400 120 OFFCURVE",
"464 165 CURVE",
"464 320 LINE",
"416 259 OFFCURVE",
"314 186 OFFCURVE",
"214 186 CURVE SMOOTH",
"140 186 OFFCURVE",
"93 220 OFFCURVE",
"93 260 CURVE SMOOTH",
"93 314 OFFCURVE",
"173 382 OFFCURVE",
"292 382 CURVE SMOOTH",
"354 382 OFFCURVE",
"430 325 OFFCURVE",
"462 279 CURVE",
"462 352 LINE",
"432 392 OFFCURVE",
"344 501 OFFCURVE",
"243 501 CURVE SMOOTH"
);
}
);
width = 670;
}
);
unicode = 092C;
},
{
glyphname = "bha-deva";
lastChange = "2014-07-16 19:04:20 +0100";
layers = (
{
anchors = (
{
name = bottom;
position = "{590, 0}";
},
{
name = top;
position = "{590, 650}";
}
);
background = {
paths = (
{
closed = 1;
nodes = (
"69 650 LINE",
"69 634 LINE",
"100 575 LINE",
"215 575 LINE",
"215 236 LINE",
"574 236 LINE",
"574 311 LINE",
"303 311 LINE",
"303 575 LINE",
"545 575 LINE",
"545 -1 LINE",
"617 -42 LINE",
"633 -42 LINE",
"633 575 LINE",
"742 575 LINE",
"742 590 LINE",
"711 650 LINE"
);
},
{
closed = 1;
nodes = (
"148 335 OFFCURVE",
"135 325 OFFCURVE",
"135 304 CURVE SMOOTH",
"135 275 OFFCURVE",
"173 225 OFFCURVE",
"200 194 CURVE SMOOTH",
"235 151 OFFCURVE",
"270 106 OFFCURVE",
"295 106 CURVE SMOOTH",
"314 106 OFFCURVE",
"322 116 OFFCURVE",
"322 133 CURVE SMOOTH",
"322 157 OFFCURVE",
"318 214 OFFCURVE",
"316 253 CURVE",
"225 331 LINE",
"206 333 OFFCURVE",
"187 335 OFFCURVE",
"174 335 CURVE SMOOTH"
);
}
);
};
layerId = "39185045-6A8C-415A-8312-7B8F11386A4C";
name = Regular;
paths = (
{
closed = 1;
nodes = (
"358 650 LINE",
"358 634 LINE",
"389 575 LINE",
"546 575 LINE",
"546 -1 LINE",
"618 -42 LINE",
"634 -42 LINE",
"634 575 LINE",
"744 575 LINE",
"744 590 LINE",
"712 650 LINE"
);
},
{
closed = 1;
nodes = (
"163 316 OFFCURVE",
"150 306 OFFCURVE",
"150 285 CURVE SMOOTH",
"150 257 OFFCURVE",
"188 204 OFFCURVE",
"215 171 CURVE SMOOTH",
"249 127 OFFCURVE",
"290 84 OFFCURVE",
"314 84 CURVE SMOOTH",
"333 84 OFFCURVE",
"342 93 OFFCURVE",
"342 109 CURVE SMOOTH",
"342 134 OFFCURVE",
"338 191 OFFCURVE",
"335 231 CURVE",
"246 310 LINE",
"226 314 OFFCURVE",
"203 316 OFFCURVE",
"189 316 CURVE SMOOTH"
);
},
{
closed = 1;
nodes = (
"98 659 OFFCURVE",
"47 625 OFFCURVE",
"47 555 CURVE SMOOTH",
"47 457 OFFCURVE",
"144 403 OFFCURVE",
"245 367 CURVE",
"253 419 LINE",
"189 438 OFFCURVE",
"123 468 OFFCURVE",
"123 531 CURVE SMOOTH",
"123 577 OFFCURVE",
"150 597 OFFCURVE",
"186 597 CURVE SMOOTH",
"221 597 OFFCURVE",
"251 562 OFFCURVE",
"251 520 CURVE SMOOTH",
"251 495 OFFCURVE",
"247 445 OFFCURVE",
"242 418 CURVE",
"235 389 LINE",
"235 218 LINE",
"575 218 LINE",
"575 293 LINE",
"323 293 LINE",
"323 502 LINE SMOOTH",
"323 628 OFFCURVE",
"227 659 OFFCURVE",
"161 659 CURVE SMOOTH"
);
}
);
width = 744;
},
{
anchors = (
{
name = bottom;
position = "{536, 0}";
},
{
name = top;
position = "{536, 634}";
}
);
background = {
paths = (
{
closed = 1;
nodes = (
"95 649 OFFCURVE",
"49 614 OFFCURVE",
"49 546 CURVE SMOOTH",
"49 431 OFFCURVE",
"163 373 OFFCURVE",
"251 337 CURVE",
"272 380 LINE",
"200 396 OFFCURVE",
"99 460 OFFCURVE",
"99 534 CURVE SMOOTH",
"99 588 OFFCURVE",
"139 605 OFFCURVE",
"171 606 CURVE SMOOTH",
"228 605 OFFCURVE",
"274 560 OFFCURVE",
"274 500 CURVE SMOOTH",
"274 350 OFFCURVE",
"120 230 OFFCURVE",
"-60 229 CURVE SMOOTH",
"-111 229 OFFCURVE",
"-158 251 OFFCURVE",
"-158 294 CURVE SMOOTH",
"-158 346 OFFCURVE",
"-113 397 OFFCURVE",
"-39 397 CURVE SMOOTH",
"-23 397 OFFCURVE",
"-7 396 OFFCURVE",
"10 391 CURVE",
"13 400 LINE",
"-6 438 LINE",
"-24 443 OFFCURVE",
"-50 447 OFFCURVE",
"-71 447 CURVE SMOOTH",
"-134 447 OFFCURVE",
"-203 395 OFFCURVE",
"-203 317 CURVE SMOOTH",
"-203 235 OFFCURVE",
"-116 178 OFFCURVE",
"-35 179 CURVE SMOOTH",
"141 181 OFFCURVE",
"324 329 OFFCURVE",
"324 480 CURVE SMOOTH",
"323 588 OFFCURVE",
"233 650 OFFCURVE",
"151 650 CURVE"
);
}
);
};
layerId = "E777F328-EA17-4AE7-9EBA-8002E537BA4F";
name = Light;
paths = (
{
closed = 1;
nodes = (
"333 634 LINE",
"333 624 LINE",
"351 590 LINE",
"510 590 LINE",
"509 13 LINE",
"551 -11 LINE",
"563 -11 LINE",
"563 590 LINE",
"680 590 LINE",
"680 601 LINE",
"661 634 LINE"
);
},
{
closed = 1;
nodes = (
"167 315 OFFCURVE",
"157 307 OFFCURVE",
"157 290 CURVE SMOOTH",
"157 266 OFFCURVE",
"189 230 OFFCURVE",
"212 203 CURVE SMOOTH",
"226 185 OFFCURVE",
"259 156 OFFCURVE",
"277 156 CURVE SMOOTH",
"292 156 OFFCURVE",
"298 164 OFFCURVE",
"298 178 CURVE SMOOTH",
"298 197 OFFCURVE",
"295 246 OFFCURVE",
"293 278 CURVE",
"244 310 LINE",
"229 312 OFFCURVE",
"198 315 OFFCURVE",
"188 315 CURVE SMOOTH"
);
},
{
closed = 1;
nodes = (
"92 650 OFFCURVE",
"49 609 OFFCURVE",
"49 551 CURVE SMOOTH",
"49 462 OFFCURVE",
"127 414 OFFCURVE",
"237 377 CURVE",
"250 417 LINE",
"177 440 OFFCURVE",
"99 475 OFFCURVE",
"99 535 CURVE SMOOTH",
"99 578 OFFCURVE",
"127 606 OFFCURVE",
"162 606 CURVE SMOOTH",
"202 606 OFFCURVE",
"230 575 OFFCURVE",
"230 516 CURVE SMOOTH",
"230 474 OFFCURVE",
"230 447 OFFCURVE",
"230 407 CURVE",
"230 390 LINE",
"230 251 LINE",
"542 251 LINE",
"542 295 LINE",
"284 295 LINE",
"284 503 LINE SMOOTH",
"284 623 OFFCURVE",
"196 650 OFFCURVE",
"142 650 CURVE SMOOTH"
);
}
);
width = 680;
},
{
layerId = "B26750D4-52C5-4F85-819B-BFB2F142DAD5";
name = Bold;
paths = (
{
closed = 1;
nodes = (
"358 650 LINE",
"358 634 LINE",
"389 575 LINE",
"546 575 LINE",
"546 -1 LINE",
"618 -42 LINE",
"634 -42 LINE",
"634 575 LINE",
"744 575 LINE",
"744 590 LINE",
"712 650 LINE"
);
},
{
closed = 1;
nodes = (
"163 316 OFFCURVE",
"150 306 OFFCURVE",
"150 285 CURVE SMOOTH",
"150 257 OFFCURVE",
"188 204 OFFCURVE",
"215 171 CURVE SMOOTH",
"249 127 OFFCURVE",
"290 84 OFFCURVE",
"314 84 CURVE SMOOTH",
"333 84 OFFCURVE",
"342 93 OFFCURVE",
"342 109 CURVE SMOOTH",
"342 134 OFFCURVE",
"338 191 OFFCURVE",
"335 231 CURVE",
"246 310 LINE",
"226 314 OFFCURVE",
"203 316 OFFCURVE",
"189 316 CURVE SMOOTH"
);
},
{
closed = 1;
nodes = (
"98 659 OFFCURVE",
"47 625 OFFCURVE",
"47 555 CURVE SMOOTH",
"47 457 OFFCURVE",
"144 403 OFFCURVE",
"245 367 CURVE",
"253 419 LINE",
"189 438 OFFCURVE",
"123 468 OFFCURVE",
"123 531 CURVE SMOOTH",
"123 577 OFFCURVE",
"150 597 OFFCURVE",
"186 597 CURVE SMOOTH",
"221 597 OFFCURVE",
"251 562 OFFCURVE",
"251 520 CURVE SMOOTH",
"251 495 OFFCURVE",
"247 445 OFFCURVE",
"242 418 CURVE",
"235 389 LINE",
"235 218 LINE",
"575 218 LINE",
"575 293 LINE",
"323 293 LINE",
"323 502 LINE SMOOTH",
"323 628 OFFCURVE",
"227 659 OFFCURVE",
"161 659 CURVE SMOOTH"
);
}
);
width = 744;
}
);
unicode = 092D;
},
{
glyphname = "ma-deva";
lastChange = "2014-07-08 11:19:54 +0100";
layers = (
{
anchors = (
{
name = bottom;
position = "{489, 0}";
},
{
name = top;
position = "{489, 650}";
}
);
layerId = "39185045-6A8C-415A-8312-7B8F11386A4C";
name = Regular;
paths = (
{
closed = 1;
nodes = (
"-31 650 LINE",
"-31 634 LINE",
"0 575 LINE",
"115 575 LINE",
"115 236 LINE",
"474 236 LINE",
"474 311 LINE",
"203 311 LINE",
"203 575 LINE",
"445 575 LINE",
"445 -1 LINE",
"517 -42 LINE",
"533 -42 LINE",
"533 575 LINE",
"642 575 LINE",
"642 590 LINE",
"611 650 LINE"
);
},
{
closed = 1;
nodes = (
"48 335 OFFCURVE",
"35 325 OFFCURVE",
"35 304 CURVE SMOOTH",
"35 275 OFFCURVE",
"73 225 OFFCURVE",
"100 194 CURVE SMOOTH",
"135 151 OFFCURVE",
"170 106 OFFCURVE",
"195 106 CURVE SMOOTH",
"214 106 OFFCURVE",
"222 116 OFFCURVE",
"222 133 CURVE SMOOTH",
"222 157 OFFCURVE",
"218 214 OFFCURVE",
"216 253 CURVE",
"125 331 LINE",
"106 333 OFFCURVE",
"87 335 OFFCURVE",
"74 335 CURVE SMOOTH"
);
}
);
width = 642;
},
{
anchors = (
{
name = bottom;
position = "{446, 0}";
},
{
name = top;
position = "{446, 634}";
}
);
layerId = "E777F328-EA17-4AE7-9EBA-8002E537BA4F";
name = Light;
paths = (
{
closed = 1;
nodes = (
"-29 634 LINE",
"-29 624 LINE",
"-12 590 LINE",
"124 590 LINE",
"124 268 LINE",
"452 268 LINE",
"452 312 LINE",
"178 312 LINE",
"178 590 LINE",
"420 590 LINE",
"419 13 LINE",
"461 -11 LINE",
"473 -11 LINE",
"473 590 LINE",
"590 590 LINE",
"590 601 LINE",
"570 634 LINE"
);
},
{
closed = 1;
nodes = (
"61 334 OFFCURVE",
"51 326 OFFCURVE",
"51 308 CURVE SMOOTH",
"51 286 OFFCURVE",
"83 249 OFFCURVE",
"105 223 CURVE",
"120 204 OFFCURVE",
"153 175 OFFCURVE",
"171 175 CURVE SMOOTH",
"185 175 OFFCURVE",
"192 183 OFFCURVE",
"192 196 CURVE SMOOTH",
"192 217 OFFCURVE",
"188 264 OFFCURVE",
"186 297 CURVE",
"138 329 LINE",
"123 331 OFFCURVE",
"92 334 OFFCURVE",
"82 334 CURVE SMOOTH"
);
}
);
width = 590;
},
{
layerId = "B26750D4-52C5-4F85-819B-BFB2F142DAD5";
name = Bold;
paths = (
{
closed = 1;
nodes = (
"-56 669 LINE",
"-56 647 LINE",
"-9 556 LINE",
"97 556 LINE",
"97 218 LINE",
"478 218 LINE",
"478 330 LINE",
"229 330 LINE",
"229 556 LINE",
"426 556 LINE",
"426 26 LINE",
"537 -37 LINE",
"559 -37 LINE",
"559 556 LINE",
"649 556 LINE",
"649 577 LINE",
"600 669 LINE"
);
},
{
closed = 1;
nodes = (
"29 357 OFFCURVE",
"17 347 OFFCURVE",
"17 326 CURVE SMOOTH",
"17 298 OFFCURVE",
"69 228 OFFCURVE",
"96 197 CURVE SMOOTH",
"131 156 OFFCURVE",
"181 97 OFFCURVE",
"216 97 CURVE SMOOTH",
"234 97 OFFCURVE",
"242 106 OFFCURVE",
"242 123 CURVE SMOOTH",
"242 147 OFFCURVE",
"238 214 OFFCURVE",
"236 253 CURVE",
"106 353 LINE",
"88 355 OFFCURVE",
"68 357 OFFCURVE",
"56 357 CURVE SMOOTH"
);
}
);
width = 649;
}
);
unicode = 092E;
},
{
glyphname = "ya-deva";
lastChange = "2014-07-08 11:31:23 +0100";
layers = (
{
anchors = (
{
name = bottom;
position = "{485, 0}";
},
{
name = nukta;
position = "{147, 133}";
},
{
name = top;
position = "{484, 650}";
}
);
background = {
paths = (
{
closed = 1;
nodes = (
"148 -88 LINE",
"225 -10 LINE",
"147 68 LINE",
"70 -10 LINE"
);
},
{
closed = 1;
nodes = (
"637 575 LINE",
"637 590 LINE",
"606 650 LINE",
"-31 650 LINE",
"-31 634 LINE",
"0 575 LINE",
"131 575 LINE",
"173 532 OFFCURVE",
"199 500 OFFCURVE",
"199 458 CURVE SMOOTH",
"199 393 OFFCURVE",
"123 346 OFFCURVE",
"54 325 CURVE",
"96 195 OFFCURVE",
"178 104 OFFCURVE",
"287 104 CURVE SMOOTH",
"347 104 OFFCURVE",
"400 133 OFFCURVE",
"438 160 CURVE",
"442 158 LINE",
"438 0 LINE",
"512 -42 LINE",
"528 -42 LINE",
"528 575 LINE"
);
},
{
closed = 1;
nodes = (
"192 183 OFFCURVE",
"142 218 OFFCURVE",
"141 273 CURVE",
"187 293 OFFCURVE",
"287 352 OFFCURVE",
"287 433 CURVE SMOOTH",
"287 477 OFFCURVE",
"236 535 OFFCURVE",
"199 573 CURVE",
"199 575 LINE",
"440 575 LINE",
"440 273 LINE",
"404 232 OFFCURVE",
"324 183 OFFCURVE",
"247 183 CURVE SMOOTH"
);
}
);
};
layerId = "39185045-6A8C-415A-8312-7B8F11386A4C";
name = Regular;
paths = (
{
closed = 1;
nodes = (
"-31 650 LINE",
"-31 634 LINE",
"0 575 LINE",
"131 575 LINE",
"173 532 OFFCURVE",
"199 500 OFFCURVE",
"199 458 CURVE SMOOTH",
"199 393 OFFCURVE",
"123 346 OFFCURVE",
"54 325 CURVE",
"96 195 OFFCURVE",
"178 104 OFFCURVE",
"287 104 CURVE SMOOTH",
"347 104 OFFCURVE",
"400 133 OFFCURVE",
"438 160 CURVE",
"463 148 LINE",
"448 282 LINE",
"414 239 OFFCURVE",
"331 183 OFFCURVE",
"247 183 CURVE SMOOTH",
"192 183 OFFCURVE",
"142 218 OFFCURVE",
"141 273 CURVE",
"187 293 OFFCURVE",
"287 352 OFFCURVE",
"287 433 CURVE SMOOTH",
"287 477 OFFCURVE",
"236 535 OFFCURVE",
"199 573 CURVE",
"199 575 LINE",
"440 575 LINE",
"440 204 LINE",
"443 197 LINE",
"438 0 LINE",
"512 -42 LINE",
"528 -42 LINE",
"528 575 LINE",
"637 575 LINE",
"637 590 LINE",
"606 650 LINE"
);
}
);
width = 637;
},
{
anchors = (
{
name = bottom;
position = "{449, 0}";
},
{
name = top;
position = "{449, 634}";
}
);
background = {
paths = (
{
closed = 1;
nodes = (
"305 659 LINE",
"305 649 LINE",
"323 615 LINE",
"419 615 LINE",
"419 299 LINE",
"419 238 LINE",
"418 38 LINE",
"461 14 LINE",
"473 14 LINE",
"473 615 LINE",
"589 615 LINE",
"589 626 LINE",
"569 659 LINE"
);
},
{
closed = 1;
nodes = (
"42 675 OFFCURVE",
"-7 638 OFFCURVE",
"-7 565 CURVE SMOOTH",
"-7 477 OFFCURVE",
"71 416 OFFCURVE",
"167 376 CURVE",
"191 414 LINE",
"118 440 OFFCURVE",
"43 493 OFFCURVE",
"43 553 CURVE SMOOTH",
"43 602 OFFCURVE",
"76 625 OFFCURVE",
"117 625 CURVE SMOOTH",
"184 625 OFFCURVE",
"222 575 OFFCURVE",
"223 529 CURVE SMOOTH",
"222 438 OFFCURVE",
"173 362 OFFCURVE",
"50 331 CURVE",
"87 232 OFFCURVE",
"146 164 OFFCURVE",
"250 164 CURVE SMOOTH",
"314 164 OFFCURVE",
"375 198 OFFCURVE",
"417 229 CURVE",
"429 225 LINE",
"430 310 LINE",
"385 257 OFFCURVE",
"302 214 OFFCURVE",
"229 214 CURVE SMOOTH",
"163 214 OFFCURVE",
"123 255 OFFCURVE",
"110 295 CURVE",
"190 336 OFFCURVE",
"273 409 OFFCURVE",
"273 509 CURVE SMOOTH",
"273 617 OFFCURVE",
"178 675 OFFCURVE",
"97 675 CURVE SMOOTH"
);
}
);
};
layerId = "E777F328-EA17-4AE7-9EBA-8002E537BA4F";
name = Light;
paths = (
{
closed = 1;
nodes = (
"-29 634 LINE",
"-29 624 LINE",
"-12 590 LINE",
"99 590 LINE",
"136 558 OFFCURVE",
"195 506 OFFCURVE",
"195 460 CURVE SMOOTH",
"195 399 OFFCURVE",
"118 350 OFFCURVE",
"50 330 CURVE",
"90 212 OFFCURVE",
"151 139 OFFCURVE",
"259 139 CURVE SMOOTH",
"320 139 OFFCURVE",
"380 171 OFFCURVE",
"419 199 CURVE",
"430 191 LINE",
"433 278 LINE",
"389 230 OFFCURVE",
"309 189 OFFCURVE",
"238 189 CURVE SMOOTH",
"162 189 OFFCURVE",
"118 253 OFFCURVE",
"110 295 CURVE",
"158 314 OFFCURVE",
"245 373 OFFCURVE",
"245 440 CURVE SMOOTH",
"245 509 OFFCURVE",
"195 556 OFFCURVE",
"162 589 CURVE",
"162 590 LINE",
"423 590 LINE",
"422 251 LINE",
"422 230 LINE",
"422 13 LINE",
"464 -11 LINE",
"476 -11 LINE",
"476 590 LINE",
"592 590 LINE",
"592 601 LINE",
"574 634 LINE"
);
}
);
width = 592;
},
{
layerId = "B26750D4-52C5-4F85-819B-BFB2F142DAD5";
name = Bold;
paths = (
{
closed = 1;
nodes = (
"-31 650 LINE",
"-31 634 LINE",
"0 575 LINE",
"131 575 LINE",
"173 532 OFFCURVE",
"199 500 OFFCURVE",
"199 458 CURVE SMOOTH",
"199 393 OFFCURVE",
"123 346 OFFCURVE",
"54 325 CURVE",
"96 195 OFFCURVE",
"178 104 OFFCURVE",
"287 104 CURVE SMOOTH",
"347 104 OFFCURVE",
"400 133 OFFCURVE",
"438 160 CURVE",
"463 148 LINE",
"448 282 LINE",
"414 239 OFFCURVE",
"331 183 OFFCURVE",
"247 183 CURVE SMOOTH",
"192 183 OFFCURVE",
"142 218 OFFCURVE",
"141 273 CURVE",
"187 293 OFFCURVE",
"287 352 OFFCURVE",
"287 433 CURVE SMOOTH",
"287 477 OFFCURVE",
"236 535 OFFCURVE",
"199 573 CURVE",
"199 575 LINE",
"440 575 LINE",
"440 204 LINE",
"443 197 LINE",
"438 0 LINE",
"512 -42 LINE",
"528 -42 LINE",
"528 575 LINE",
"637 575 LINE",
"637 590 LINE",
"606 650 LINE"
);
}
);
width = 637;
}
);
unicode = 092F;
},
{
glyphname = "ra-deva";
lastChange = "2014-07-10 12:02:22 +0100";
layers = (
{
anchors = (
{
name = bottom;
position = "{232, 0}";
},
{
name = nukta;
position = "{130, 159}";
},
{
name = top;
position = "{232, 650}";
}
);
background = {
paths = (
{
closed = 1;
nodes = (
"131 -63 LINE",
"208 16 LINE",
"130 94 LINE",
"53 15 LINE"
);
},
{
closed = 1;
nodes = (
"187 211 LINE",
"232 252 OFFCURVE",
"280 309 OFFCURVE",
"280 404 CURVE SMOOTH",
"280 448 OFFCURVE",
"274 519 OFFCURVE",
"263 575 CURVE",
"430 575 LINE",
"430 590 LINE",
"399 650 LINE",
"-31 650 LINE",
"-31 634 LINE",
"0 575 LINE",
"188 575 LINE",
"195 535 OFFCURVE",
"199 482 OFFCURVE",
"199 450 CURVE SMOOTH",
"199 407 OFFCURVE",
"184 358 OFFCURVE",
"174 340 CURVE",
"121 382 LINE",
"119 382 LINE",
"100 370 OFFCURVE",
"66 340 OFFCURVE",
"66 306 CURVE SMOOTH",
"66 272 OFFCURVE",
"89 250 OFFCURVE",
"126 207 CURVE SMOOTH",
"347 -47 LINE",
"396 -10 LINE"
);
}
);
};
layerId = "39185045-6A8C-415A-8312-7B8F11386A4C";
name = Regular;
paths = (
{
closed = 1;
nodes = (
"194 547 OFFCURVE",
"199 482 OFFCURVE",
"199 450 CURVE SMOOTH",
"199 407 OFFCURVE",
"184 358 OFFCURVE",
"174 340 CURVE",
"119 382 LINE",
"100 370 OFFCURVE",
"66 340 OFFCURVE",
"66 306 CURVE SMOOTH",
"66 272 OFFCURVE",
"89 250 OFFCURVE",
"126 207 CURVE SMOOTH",
"347 -47 LINE",
"396 -10 LINE",
"187 211 LINE",
"232 252 OFFCURVE",
"280 309 OFFCURVE",
"280 404 CURVE SMOOTH",
"280 448 OFFCURVE",
"273 528 OFFCURVE",
"261 585 CURVE",
"186 585 LINE"
);
},
{
closed = 1;
nodes = (
"-31 650 LINE",
"-31 634 LINE",
"0 575 LINE",
"430 575 LINE",
"430 590 LINE",
"399 650 LINE"
);
}
);
width = 430;
},
{
anchors = (
{
name = bottom;
position = "{200, 0}";
},
{
name = top;
position = "{200, 634}";
}
);
background = {
paths = (
{
closed = 1;
nodes = (
"179 557 OFFCURVE",
"186 484 OFFCURVE",
"186 440 CURVE SMOOTH",
"186 399 OFFCURVE",
"177 366 OFFCURVE",
"154 330 CURVE",
"106 372 LINE",
"90 366 OFFCURVE",
"67 346 OFFCURVE",
"67 323 CURVE SMOOTH",
"67 287 OFFCURVE",
"82 250 OFFCURVE",
"131 194 CURVE SMOOTH",
"314 -15 LINE",
"360 19 LINE",
"150 241 LINE",
"192 278 OFFCURVE",
"236 329 OFFCURVE",
"236 412 CURVE SMOOTH",
"236 450 OFFCURVE",
"230 535 OFFCURVE",
"217 601 CURVE",
"167 601 LINE"
);
},
{
closed = 1;
nodes = (
"-19 634 LINE",
"-19 624 LINE",
"-2 590 LINE",
"372 590 LINE",
"372 601 LINE",
"354 634 LINE"
);
}
);
};
layerId = "E777F328-EA17-4AE7-9EBA-8002E537BA4F";
name = Light;
paths = (
{
closed = 1;
nodes = (
"179 557 OFFCURVE",
"186 484 OFFCURVE",
"186 440 CURVE SMOOTH",
"186 399 OFFCURVE",
"177 366 OFFCURVE",
"154 330 CURVE",
"106 372 LINE",
"90 366 OFFCURVE",
"67 346 OFFCURVE",
"67 323 CURVE SMOOTH",
"67 287 OFFCURVE",
"82 250 OFFCURVE",
"131 194 CURVE SMOOTH",
"314 -15 LINE",
"353 14 LINE",
"143 236 LINE",
"189 274 OFFCURVE",
"236 326 OFFCURVE",
"236 412 CURVE SMOOTH",
"236 450 OFFCURVE",
"230 535 OFFCURVE",
"217 601 CURVE",
"167 601 LINE"
);
},
{
closed = 1;
nodes = (
"-29 634 LINE",
"-29 624 LINE",
"-12 590 LINE",
"367 590 LINE",
"367 601 LINE",
"349 634 LINE"
);
}
);
width = 367;
},
{
layerId = "B26750D4-52C5-4F85-819B-BFB2F142DAD5";
name = Bold;
paths = (
{
closed = 1;
nodes = (
"175 550 OFFCURVE",
"179 497 OFFCURVE",
"179 466 CURVE SMOOTH",
"179 424 OFFCURVE",
"170 386 OFFCURVE",
"160 369 CURVE",
"101 400 LINE",
"80 388 OFFCURVE",
"47 355 OFFCURVE",
"47 322 CURVE SMOOTH",
"47 286 OFFCURVE",
"75 251 OFFCURVE",
"108 212 CURVE SMOOTH",
"331 -42 LINE",
"402 11 LINE",
"189 195 LINE",
"233 236 OFFCURVE",
"306 312 OFFCURVE",
"306 409 CURVE SMOOTH",
"306 454 OFFCURVE",
"301 524 OFFCURVE",
"289 580 CURVE",
"169 590 LINE"
);
},
{
closed = 1;
nodes = (
"-56 669 LINE",
"-56 647 LINE",
"-9 556 LINE",
"457 556 LINE",
"457 577 LINE",
"408 669 LINE"
);
}
);
width = 457;
}
);
unicode = 0930;
},
{
glyphname = "rra-deva";
lastChange = "2014-07-09 09:16:38 +0100";
layers = (
{
anchors = (
{
name = bottom;
position = "{232, 0}";
},
{
name = top;
position = "{232, 650}";
}
);
layerId = "39185045-6A8C-415A-8312-7B8F11386A4C";
name = Regular;
paths = (
{
closed = 1;
nodes = (
"186 585 LINE",
"194 547 OFFCURVE",
"199 482 OFFCURVE",
"199 450 CURVE SMOOTH",
"199 407 OFFCURVE",
"184 358 OFFCURVE",
"174 340 CURVE",
"119 382 LINE",
"100 370 OFFCURVE",
"66 340 OFFCURVE",
"66 306 CURVE SMOOTH",
"66 272 OFFCURVE",
"89 250 OFFCURVE",
"126 207 CURVE SMOOTH",
"347 -47 LINE",
"396 -10 LINE",
"187 211 LINE",
"232 252 OFFCURVE",
"280 309 OFFCURVE",
"280 404 CURVE SMOOTH",
"280 448 OFFCURVE",
"273 528 OFFCURVE",
"261 585 CURVE"
);
},
{
closed = 1;
nodes = (
"-31 650 LINE",
"-31 634 LINE",
"0 575 LINE",
"430 575 LINE",
"430 590 LINE",
"399 650 LINE"
);
},
{
closed = 1;
nodes = (
"53 15 LINE",
"131 -63 LINE",
"208 16 LINE",
"130 94 LINE"
);
}
);
width = 430;
},
{
anchors = (
{
name = bottom;
position = "{200, 0}";
},
{
name = top;
position = "{200, 634}";
}
);
background = {
paths = (
{
closed = 1;
nodes = (
"156 585 LINE",
"164 547 OFFCURVE",
"169 482 OFFCURVE",
"169 450 CURVE SMOOTH",
"169 407 OFFCURVE",
"154 358 OFFCURVE",
"144 340 CURVE",
"89 382 LINE",
"70 370 OFFCURVE",
"36 340 OFFCURVE",
"36 306 CURVE SMOOTH",
"36 272 OFFCURVE",
"59 250 OFFCURVE",
"96 207 CURVE SMOOTH",
"317 -47 LINE",
"366 -10 LINE",
"157 211 LINE",
"202 252 OFFCURVE",
"250 309 OFFCURVE",
"250 404 CURVE SMOOTH",
"250 448 OFFCURVE",
"243 528 OFFCURVE",
"231 585 CURVE"
);
},
{
closed = 1;
nodes = (
"23 15 LINE",
"101 -63 LINE",
"178 16 LINE",
"100 94 LINE"
);
},
{
closed = 1;
nodes = (
"-61 650 LINE",
"-61 634 LINE",
"-30 575 LINE",
"400 575 LINE",
"400 590 LINE",
"369 650 LINE"
);
}
);
};
layerId = "E777F328-EA17-4AE7-9EBA-8002E537BA4F";
name = Light;
paths = (
{
closed = 1;
nodes = (
"167 601 LINE",
"179 557 OFFCURVE",
"186 484 OFFCURVE",
"186 440 CURVE SMOOTH",
"186 399 OFFCURVE",
"177 366 OFFCURVE",
"154 330 CURVE",
"106 372 LINE",
"90 366 OFFCURVE",
"67 346 OFFCURVE",
"67 323 CURVE SMOOTH",
"67 287 OFFCURVE",
"82 250 OFFCURVE",
"131 194 CURVE SMOOTH",
"314 -15 LINE",
"353 14 LINE",
"143 236 LINE",
"189 274 OFFCURVE",
"236 326 OFFCURVE",
"236 412 CURVE SMOOTH",
"236 450 OFFCURVE",
"230 535 OFFCURVE",
"217 601 CURVE"
);
},
{
closed = 1;
nodes = (
"-29 634 LINE",
"-29 624 LINE",
"-12 590 LINE",
"372 590 LINE",
"372 601 LINE",
"354 634 LINE"
);
},
{
closed = 1;
nodes = (
"37 31 LINE",
"100 -32 LINE",
"163 31 LINE",
"100 94 LINE"
);
}
);
width = 372;
},
{
background = {
paths = (
{
closed = 1;
nodes = (
"131 -63 LINE",
"208 16 LINE",
"130 94 LINE",
"53 15 LINE"
);
},
{
closed = 1;
nodes = (
"194 547 OFFCURVE",
"199 482 OFFCURVE",
"199 450 CURVE SMOOTH",
"199 407 OFFCURVE",
"184 358 OFFCURVE",
"174 340 CURVE",
"119 382 LINE",
"100 370 OFFCURVE",
"66 340 OFFCURVE",
"66 306 CURVE SMOOTH",
"66 272 OFFCURVE",
"89 250 OFFCURVE",
"126 207 CURVE SMOOTH",
"347 -47 LINE",
"396 -10 LINE",
"187 211 LINE",
"232 252 OFFCURVE",
"280 309 OFFCURVE",
"280 404 CURVE SMOOTH",
"280 448 OFFCURVE",
"273 528 OFFCURVE",
"261 585 CURVE",
"186 585 LINE"
);
},
{
closed = 1;
nodes = (
"-31 650 LINE",
"-31 634 LINE",
"0 575 LINE",
"430 575 LINE",
"430 590 LINE",
"399 650 LINE"
);
}
);
};
layerId = "B26750D4-52C5-4F85-819B-BFB2F142DAD5";
name = Bold;
paths = (
{
closed = 1;
nodes = (
"169 590 LINE",
"175 550 OFFCURVE",
"179 497 OFFCURVE",
"179 466 CURVE SMOOTH",
"179 424 OFFCURVE",
"170 386 OFFCURVE",
"160 369 CURVE",
"101 400 LINE",
"80 388 OFFCURVE",
"47 355 OFFCURVE",
"47 322 CURVE SMOOTH",
"47 286 OFFCURVE",
"75 251 OFFCURVE",
"108 212 CURVE SMOOTH",
"331 -42 LINE",
"402 11 LINE",
"189 195 LINE",
"233 236 OFFCURVE",
"306 312 OFFCURVE",
"306 409 CURVE SMOOTH",
"306 454 OFFCURVE",
"301 524 OFFCURVE",
"289 580 CURVE"
);
},
{
closed = 1;
nodes = (
"-56 669 LINE",
"-56 647 LINE",
"-9 556 LINE",
"457 556 LINE",
"457 577 LINE",
"408 669 LINE"
);
},
{
closed = 1;
nodes = (
"17 -17 LINE",
"129 -129 LINE",
"240 -17 LINE",
"129 94 LINE"
);
}
);
width = 457;
}
);
unicode = 0931;
},
{
glyphname = "la-deva";
lastChange = "2014-07-15 08:52:22 +0100";
layers = (
{
anchors = (
{
name = bottom;
position = "{595, 0}";
},
{
name = top;
position = "{595, 650}";
}
);
background = {
paths = (
{
closed = 1;
nodes = (
"749 575 LINE",
"749 590 LINE",
"717 650 LINE",
"-31 650 LINE",
"-31 634 LINE",
"0 575 LINE",
"551 575 LINE",
"551 393 LINE",
"531 415 OFFCURVE",
"505 434 OFFCURVE",
"474 434 CURVE SMOOTH",
"427 433 OFFCURVE",
"386 402 OFFCURVE",
"355 356 CURVE",
"312 411 OFFCURVE",
"253 454 OFFCURVE",
"186 454 CURVE SMOOTH",
"105 454 OFFCURVE",
"45 389 OFFCURVE",
"45 303 CURVE SMOOTH",
"45 139 OFFCURVE",
"166 20 OFFCURVE",
"256 -58 CURVE",
"287 -25 LINE",
"184 67 OFFCURVE",
"124 163 OFFCURVE",
"124 265 CURVE SMOOTH",
"124 331 OFFCURVE",
"168 375 OFFCURVE",
"223 375 CURVE SMOOTH",
"259 375 OFFCURVE",
"303 352 OFFCURVE",
"332 316 CURVE",
"315 284 OFFCURVE",
"304 248 OFFCURVE",
"296 212 CURVE",
"294 212 OFFCURVE",
"368 169 OFFCURVE",
"368 169 CURVE",
"386 249 OFFCURVE",
"430 372 OFFCURVE",
"501 372 CURVE SMOOTH",
"519 372 OFFCURVE",
"537 359 OFFCURVE",
"551 344 CURVE",
"551 -1 LINE",
"624 -42 LINE",
"639 -42 LINE",
"639 575 LINE"
);
}
);
};
layerId = "39185045-6A8C-415A-8312-7B8F11386A4C";
name = Regular;
paths = (
{
closed = 1;
nodes = (
"105 454 OFFCURVE",
"45 389 OFFCURVE",
"45 303 CURVE SMOOTH",
"45 139 OFFCURVE",
"166 20 OFFCURVE",
"256 -58 CURVE",
"287 -25 LINE",
"184 67 OFFCURVE",
"124 163 OFFCURVE",
"124 265 CURVE SMOOTH",
"124 331 OFFCURVE",
"168 375 OFFCURVE",
"223 375 CURVE SMOOTH",
"260 375 OFFCURVE",
"307 350 OFFCURVE",
"336 311 CURVE",
"358 352 LINE",
"315 409 OFFCURVE",
"254 454 OFFCURVE",
"186 454 CURVE SMOOTH"
);
},
{
closed = 1;
nodes = (
"381 432 OFFCURVE",
"318 316 OFFCURVE",
"296 212 CURVE",
"368 169 LINE",
"386 249 OFFCURVE",
"430 372 OFFCURVE",
"501 372 CURVE SMOOTH",
"521 372 OFFCURVE",
"540 356 OFFCURVE",
"553 342 CURVE",
"554 389 LINE",
"534 414 OFFCURVE",
"505 434 OFFCURVE",
"474 434 CURVE SMOOTH"
);
},
{
closed = 1;
nodes = (
"551 605 LINE",
"551 -1 LINE",
"624 -42 LINE",
"639 -42 LINE",
"639 605 LINE"
);
},
{
closed = 1;
nodes = (
"-31 650 LINE",
"-31 634 LINE",
"0 575 LINE",
"749 575 LINE",
"749 590 LINE",
"717 650 LINE"
);
}
);
width = 749;
},
{
anchors = (
{
name = bottom;
position = "{554, 0}";
},
{
name = top;
position = "{554, 634}";
}
);
background = {
paths = (
{
closed = 1;
nodes = (
"86 454 OFFCURVE",
"26 389 OFFCURVE",
"26 303 CURVE SMOOTH",
"26 139 OFFCURVE",
"147 20 OFFCURVE",
"237 -58 CURVE",
"268 -25 LINE",
"165 67 OFFCURVE",
"105 163 OFFCURVE",
"105 265 CURVE SMOOTH",
"105 331 OFFCURVE",
"149 375 OFFCURVE",
"204 375 CURVE SMOOTH",
"241 375 OFFCURVE",
"288 350 OFFCURVE",
"317 311 CURVE",
"339 352 LINE",
"296 409 OFFCURVE",
"235 454 OFFCURVE",
"167 454 CURVE SMOOTH"
);
},
{
closed = 1;
nodes = (
"362 432 OFFCURVE",
"299 316 OFFCURVE",
"277 212 CURVE",
"349 169 LINE",
"367 249 OFFCURVE",
"411 372 OFFCURVE",
"482 372 CURVE SMOOTH",
"502 372 OFFCURVE",
"521 356 OFFCURVE",
"534 342 CURVE",
"535 389 LINE",
"515 414 OFFCURVE",
"486 434 OFFCURVE",
"455 434 CURVE SMOOTH"
);
},
{
closed = 1;
nodes = (
"532 605 LINE",
"532 -1 LINE",
"605 -42 LINE",
"620 -42 LINE",
"620 605 LINE"
);
},
{
closed = 1;
nodes = (
"-50 650 LINE",
"-50 634 LINE",
"-19 575 LINE",
"730 575 LINE",
"730 590 LINE",
"698 650 LINE"
);
}
);
};
layerId = "E777F328-EA17-4AE7-9EBA-8002E537BA4F";
name = Light;
paths = (
{
closed = 1;
nodes = (
"121 442 OFFCURVE",
"58 381 OFFCURVE",
"58 301 CURVE SMOOTH",
"58 140 OFFCURVE",
"175 24 OFFCURVE",
"262 -52 CURVE",
"281 -32 LINE",
"172 63 OFFCURVE",
"108 162 OFFCURVE",
"108 267 CURVE SMOOTH",
"108 341 OFFCURVE",
"151 392 OFFCURVE",
"216 392 CURVE SMOOTH",
"270 392 OFFCURVE",
"320 345 OFFCURVE",
"351 304 CURVE",
"375 334 LINE",
"337 382 OFFCURVE",
"273 442 OFFCURVE",
"193 442 CURVE SMOOTH"
);
},
{
closed = 1;
nodes = (
"368 424 OFFCURVE",
"307 311 OFFCURVE",
"284 212 CURVE",
"343 178 LINE",
"361 258 OFFCURVE",
"407 380 OFFCURVE",
"478 380 CURVE SMOOTH",
"509 380 OFFCURVE",
"539 345 OFFCURVE",
"560 315 CURVE",
"561 353 LINE",
"535 391 OFFCURVE",
"499 424 OFFCURVE",
"459 424 CURVE SMOOTH"
);
},
{
closed = 1;
nodes = (
"528 610 LINE",
"527 13 LINE",
"570 -11 LINE",
"582 -11 LINE",
"582 610 LINE"
);
},
{
closed = 1;
nodes = (
"-29 634 LINE",
"-29 624 LINE",
"-12 590 LINE",
"698 590 LINE",
"698 601 LINE",
"679 634 LINE"
);
}
);
width = 698;
},
{
layerId = "B26750D4-52C5-4F85-819B-BFB2F142DAD5";
name = Bold;
paths = (
{
closed = 1;
nodes = (
"105 454 OFFCURVE",
"45 389 OFFCURVE",
"45 303 CURVE SMOOTH",
"45 139 OFFCURVE",
"166 20 OFFCURVE",
"256 -58 CURVE",
"287 -25 LINE",
"184 67 OFFCURVE",
"124 163 OFFCURVE",
"124 265 CURVE SMOOTH",
"124 331 OFFCURVE",
"168 375 OFFCURVE",
"223 375 CURVE SMOOTH",
"260 375 OFFCURVE",
"307 350 OFFCURVE",
"336 311 CURVE",
"358 352 LINE",
"315 409 OFFCURVE",
"254 454 OFFCURVE",
"186 454 CURVE SMOOTH"
);
},
{
closed = 1;
nodes = (
"381 432 OFFCURVE",
"318 316 OFFCURVE",
"296 212 CURVE",
"368 169 LINE",
"386 249 OFFCURVE",
"430 372 OFFCURVE",
"501 372 CURVE SMOOTH",
"521 372 OFFCURVE",
"540 356 OFFCURVE",
"553 342 CURVE",
"554 389 LINE",
"534 414 OFFCURVE",
"505 434 OFFCURVE",
"474 434 CURVE SMOOTH"
);
},
{
closed = 1;
nodes = (
"551 605 LINE",
"551 -1 LINE",
"624 -42 LINE",
"639 -42 LINE",
"639 605 LINE"
);
},
{
closed = 1;
nodes = (
"-31 650 LINE",
"-31 634 LINE",
"0 575 LINE",
"749 575 LINE",
"749 590 LINE",
"717 650 LINE"
);
}
);
width = 749;
}
);
unicode = 0932;
},
{
glyphname = "lla-deva";
lastChange = "2014-07-10 11:59:05 +0100";
layers = (
{
anchors = (
{
name = bottom;
position = "{603, 0}";
},
{
name = nukta;
position = "{419, 113}";
},
{
name = top;
position = "{603, 650}";
}
);
background = {
paths = (
{
closed = 1;
nodes = (
"811 575 LINE",
"811 590 LINE",
"780 650 LINE",
"-31 650 LINE",
"-31 634 LINE",
"0 575 LINE",
"559 575 LINE",
"559 474 LINE",
"481 473 OFFCURVE",
"438 426 OFFCURVE",
"407 365 CURVE",
"359 405 OFFCURVE",
"302 464 OFFCURVE",
"222 464 CURVE SMOOTH",
"140 464 OFFCURVE",
"53 388 OFFCURVE",
"53 256 CURVE SMOOTH",
"53 156 OFFCURVE",
"151 52 OFFCURVE",
"254 52 CURVE SMOOTH",
"341 52 OFFCURVE",
"386 106 OFFCURVE",
"418 174 CURVE",
"451 133 OFFCURVE",
"522 69 OFFCURVE",
"598 69 CURVE SMOOTH",
"681 69 OFFCURVE",
"758 141 OFFCURVE",
"758 263 CURVE SMOOTH",
"758 351 OFFCURVE",
"710 419 OFFCURVE",
"648 451 CURVE",
"648 575 LINE"
);
},
{
closed = 1;
nodes = (
"148 123 OFFCURVE",
"115 170 OFFCURVE",
"115 224 CURVE SMOOTH",
"115 307 OFFCURVE",
"166 385 OFFCURVE",
"264 385 CURVE SMOOTH",
"318 385 OFFCURVE",
"357 356 OFFCURVE",
"387 324 CURVE",
"346 228 OFFCURVE",
"315 123 OFFCURVE",
"213 123 CURVE SMOOTH"
);
},
{
closed = 1;
nodes = (
"658 405 OFFCURVE",
"701 358 OFFCURVE",
"701 305 CURVE SMOOTH",
"701 229 OFFCURVE",
"627 148 OFFCURVE",
"566 148 CURVE SMOOTH",
"509 148 OFFCURVE",
"467 176 OFFCURVE",
"435 214 CURVE",
"475 306 OFFCURVE",
"505 405 OFFCURVE",
"603 405 CURVE SMOOTH"
);
}
);
};
layerId = "39185045-6A8C-415A-8312-7B8F11386A4C";
name = Regular;
paths = (
{
closed = 1;
nodes = (
"413 360 LINE",
"366 399 OFFCURVE",
"303 464 OFFCURVE",
"222 464 CURVE SMOOTH",
"140 464 OFFCURVE",
"53 388 OFFCURVE",
"53 256 CURVE SMOOTH",
"53 156 OFFCURVE",
"151 52 OFFCURVE",
"254 52 CURVE SMOOTH",
"339 52 OFFCURVE",
"389 102 OFFCURVE",
"427 195 CURVE",
"477 312 OFFCURVE",
"505 405 OFFCURVE",
"603 405 CURVE SMOOTH",
"658 405 OFFCURVE",
"701 358 OFFCURVE",
"701 305 CURVE SMOOTH",
"701 229 OFFCURVE",
"627 148 OFFCURVE",
"566 148 CURVE SMOOTH",
"504 148 OFFCURVE",
"459 182 OFFCURVE",
"429 222 CURVE",
"414 179 LINE",
"446 137 OFFCURVE",
"520 69 OFFCURVE",
"598 69 CURVE SMOOTH",
"681 69 OFFCURVE",
"758 141 OFFCURVE",
"758 263 CURVE SMOOTH",
"758 389 OFFCURVE",
"659 474 OFFCURVE",
"559 474 CURVE",
"482 473 OFFCURVE",
"435 430 OFFCURVE",
"396 344 CURVE",
"344 224 OFFCURVE",
"315 123 OFFCURVE",
"213 123 CURVE SMOOTH",
"148 123 OFFCURVE",
"115 170 OFFCURVE",
"115 224 CURVE SMOOTH",
"115 307 OFFCURVE",
"166 385 OFFCURVE",
"264 385 CURVE SMOOTH",
"320 385 OFFCURVE",
"359 354 OFFCURVE",
"389 322 CURVE"
);
},
{
closed = 1;
nodes = (
"811 575 LINE",
"811 590 LINE",
"780 650 LINE",
"-31 650 LINE",
"-31 634 LINE",
"0 575 LINE"
);
},
{
closed = 1;
nodes = (
"559 424 LINE",
"648 424 LINE",
"648 596 LINE",
"559 596 LINE"
);
}
);
width = 811;
},
{
anchors = (
{
name = bottom;
position = "{557, 0}";
},
{
name = top;
position = "{557, 634}";
}
);
background = {
paths = (
{
closed = 1;
nodes = (
"61 489 OFFCURVE",
"0 419 OFFCURVE",
"0 338 CURVE",
"0 229 OFFCURVE",
"79 177 OFFCURVE",
"162 177 CURVE",
"257 177 OFFCURVE",
"312 239 OFFCURVE",
"362 278 CURVE SMOOTH",
"391 305 LINE SMOOTH",
"460 376 OFFCURVE",
"515 415 OFFCURVE",
"569 415 CURVE",
"617 415 OFFCURVE",
"661 371 OFFCURVE",
"661 310 CURVE",
"661 239 OFFCURVE",
"608 168 OFFCURVE",
"587 145 CURVE SMOOTH",
"630 101 LINE SMOOTH",
"656 139 OFFCURVE",
"706 217 OFFCURVE",
"706 284 CURVE",
"706 394 OFFCURVE",
"641 465 OFFCURVE",
"553 465 CURVE",
"492 465 OFFCURVE",
"423 407 OFFCURVE",
"385 366 CURVE",
"357 340 LINE",
"299 284 OFFCURVE",
"226 227 OFFCURVE",
"142 227 CURVE",
"87 227 OFFCURVE",
"45 263 OFFCURVE",
"45 317 CURVE",
"45 390 OFFCURVE",
"108 438 OFFCURVE",
"175 439 CURVE",
"242 440 OFFCURVE",
"309 383 OFFCURVE",
"352 321 CURVE",
"351 386 LINE",
"315 427 OFFCURVE",
"241 489 OFFCURVE",
"155 489 CURVE"
);
}
);
};
layerId = "E777F328-EA17-4AE7-9EBA-8002E537BA4F";
name = Light;
paths = (
{
closed = 1;
nodes = (
"391 348 LINE",
"354 394 OFFCURVE",
"291 456 OFFCURVE",
"207 456 CURVE SMOOTH",
"133 456 OFFCURVE",
"56 392 OFFCURVE",
"56 281 CURVE SMOOTH",
"56 155 OFFCURVE",
"127 95 OFFCURVE",
"229 95 CURVE SMOOTH",
"309 95 OFFCURVE",
"351 145 OFFCURVE",
"391 220 CURVE",
"434 319 OFFCURVE",
"466 416 OFFCURVE",
"558 416 CURVE SMOOTH",
"627 416 OFFCURVE",
"662 359 OFFCURVE",
"662 295 CURVE SMOOTH",
"662 224 OFFCURVE",
"616 162 OFFCURVE",
"543 162 CURVE SMOOTH",
"483 162 OFFCURVE",
"414 228 OFFCURVE",
"387 279 CURVE",
"381 220 LINE",
"412 182 OFFCURVE",
"479 112 OFFCURVE",
"570 112 CURVE SMOOTH",
"639 112 OFFCURVE",
"707 169 OFFCURVE",
"707 263 CURVE SMOOTH",
"707 394 OFFCURVE",
"644 466 OFFCURVE",
"544 466 CURVE",
"466 465 OFFCURVE",
"425 424 OFFCURVE",
"382 344 CURVE",
"337 237 OFFCURVE",
"305 145 OFFCURVE",
"208 145 CURVE SMOOTH",
"138 145 OFFCURVE",
"101 189 OFFCURVE",
"101 249 CURVE SMOOTH",
"101 325 OFFCURVE",
"147 406 OFFCURVE",
"234 406 CURVE SMOOTH",
"286 406 OFFCURVE",
"347 355 OFFCURVE",
"385 290 CURVE"
);
},
{
closed = 1;
nodes = (
"-29 634 LINE",
"-29 624 LINE",
"-12 590 LINE",
"761 590 LINE",
"761 601 LINE",
"742 634 LINE"
);
},
{
closed = 1;
nodes = (
"532 424 LINE",
"586 424 LINE",
"586 596 LINE",
"532 596 LINE"
);
}
);
width = 761;
},
{
layerId = "B26750D4-52C5-4F85-819B-BFB2F142DAD5";
name = Bold;
paths = (
{
closed = 1;
nodes = (
"413 360 LINE",
"366 399 OFFCURVE",
"303 464 OFFCURVE",
"222 464 CURVE SMOOTH",
"140 464 OFFCURVE",
"53 388 OFFCURVE",
"53 256 CURVE SMOOTH",
"53 156 OFFCURVE",
"151 52 OFFCURVE",
"254 52 CURVE SMOOTH",
"339 52 OFFCURVE",
"389 102 OFFCURVE",
"427 195 CURVE",
"477 312 OFFCURVE",
"505 405 OFFCURVE",
"603 405 CURVE SMOOTH",
"658 405 OFFCURVE",
"701 358 OFFCURVE",
"701 305 CURVE SMOOTH",
"701 229 OFFCURVE",
"627 148 OFFCURVE",
"566 148 CURVE SMOOTH",
"504 148 OFFCURVE",
"459 182 OFFCURVE",
"429 222 CURVE",
"414 179 LINE",
"446 137 OFFCURVE",
"520 69 OFFCURVE",
"598 69 CURVE SMOOTH",
"681 69 OFFCURVE",
"758 141 OFFCURVE",
"758 263 CURVE SMOOTH",
"758 389 OFFCURVE",
"659 474 OFFCURVE",
"559 474 CURVE",
"482 473 OFFCURVE",
"435 430 OFFCURVE",
"396 344 CURVE",
"344 224 OFFCURVE",
"315 123 OFFCURVE",
"213 123 CURVE SMOOTH",
"148 123 OFFCURVE",
"115 170 OFFCURVE",
"115 224 CURVE SMOOTH",
"115 307 OFFCURVE",
"166 385 OFFCURVE",
"264 385 CURVE SMOOTH",
"320 385 OFFCURVE",
"359 354 OFFCURVE",
"389 322 CURVE"
);
},
{
closed = 1;
nodes = (
"811 575 LINE",
"811 590 LINE",
"780 650 LINE",
"-31 650 LINE",
"-31 634 LINE",
"0 575 LINE"
);
},
{
closed = 1;
nodes = (
"559 424 LINE",
"648 424 LINE",
"648 596 LINE",
"559 596 LINE"
);
}
);
width = 811;
}
);
unicode = 0933;
},
{
glyphname = "llla-deva";
lastChange = "2014-07-10 11:59:58 +0100";
layers = (
{
anchors = (
{
name = bottom;
position = "{603, 0}";
},
{
name = top;
position = "{603, 650}";
}
);
background = {
paths = (
{
closed = 1;
nodes = (
"420 -108 LINE",
"497 -29 LINE",
"419 48 LINE",
"342 -30 LINE"
);
},
{
closed = 1;
nodes = (
"811 575 LINE",
"811 590 LINE",
"780 650 LINE",
"-31 650 LINE",
"-31 634 LINE",
"0 575 LINE",
"559 575 LINE",
"559 474 LINE",
"481 473 OFFCURVE",
"438 426 OFFCURVE",
"407 365 CURVE",
"359 405 OFFCURVE",
"302 464 OFFCURVE",
"222 464 CURVE SMOOTH",
"140 464 OFFCURVE",
"53 388 OFFCURVE",
"53 256 CURVE SMOOTH",
"53 156 OFFCURVE",
"151 52 OFFCURVE",
"254 52 CURVE SMOOTH",
"341 52 OFFCURVE",
"386 106 OFFCURVE",
"418 174 CURVE",
"451 133 OFFCURVE",
"522 69 OFFCURVE",
"598 69 CURVE SMOOTH",
"681 69 OFFCURVE",
"758 141 OFFCURVE",
"758 263 CURVE SMOOTH",
"758 351 OFFCURVE",
"710 419 OFFCURVE",
"648 451 CURVE",
"648 575 LINE"
);
},
{
closed = 1;
nodes = (
"148 123 OFFCURVE",
"115 170 OFFCURVE",
"115 224 CURVE SMOOTH",
"115 307 OFFCURVE",
"166 385 OFFCURVE",
"264 385 CURVE SMOOTH",
"318 385 OFFCURVE",
"357 356 OFFCURVE",
"387 324 CURVE",
"346 228 OFFCURVE",
"315 123 OFFCURVE",
"213 123 CURVE SMOOTH"
);
},
{
closed = 1;
nodes = (
"658 405 OFFCURVE",
"701 358 OFFCURVE",
"701 305 CURVE SMOOTH",
"701 229 OFFCURVE",
"627 148 OFFCURVE",
"566 148 CURVE SMOOTH",
"509 148 OFFCURVE",
"467 176 OFFCURVE",
"435 214 CURVE",
"475 306 OFFCURVE",
"505 405 OFFCURVE",
"603 405 CURVE SMOOTH"
);
}
);
};
layerId = "39185045-6A8C-415A-8312-7B8F11386A4C";
name = Regular;
paths = (
{
closed = 1;
nodes = (
"482 473 OFFCURVE",
"435 430 OFFCURVE",
"396 344 CURVE",
"344 224 OFFCURVE",
"315 123 OFFCURVE",
"213 123 CURVE SMOOTH",
"148 123 OFFCURVE",
"115 170 OFFCURVE",
"115 224 CURVE SMOOTH",
"115 307 OFFCURVE",
"166 385 OFFCURVE",
"264 385 CURVE SMOOTH",
"320 385 OFFCURVE",
"359 354 OFFCURVE",
"389 322 CURVE",
"413 360 LINE",
"366 399 OFFCURVE",
"303 464 OFFCURVE",
"222 464 CURVE SMOOTH",
"140 464 OFFCURVE",
"53 388 OFFCURVE",
"53 256 CURVE SMOOTH",
"53 156 OFFCURVE",
"151 52 OFFCURVE",
"254 52 CURVE SMOOTH",
"339 52 OFFCURVE",
"389 102 OFFCURVE",
"427 195 CURVE",
"477 312 OFFCURVE",
"505 405 OFFCURVE",
"603 405 CURVE SMOOTH",
"658 405 OFFCURVE",
"701 358 OFFCURVE",
"701 305 CURVE SMOOTH",
"701 229 OFFCURVE",
"627 148 OFFCURVE",
"566 148 CURVE SMOOTH",
"504 148 OFFCURVE",
"459 182 OFFCURVE",
"429 222 CURVE",
"414 179 LINE",
"446 137 OFFCURVE",
"520 69 OFFCURVE",
"598 69 CURVE SMOOTH",
"681 69 OFFCURVE",
"758 141 OFFCURVE",
"758 263 CURVE SMOOTH",
"758 389 OFFCURVE",
"659 474 OFFCURVE",
"559 474 CURVE"
);
},
{
closed = 1;
nodes = (
"342 -30 LINE",
"420 -108 LINE",
"497 -29 LINE",
"419 48 LINE"
);
},
{
closed = 1;
nodes = (
"-31 650 LINE",
"-31 634 LINE",
"0 575 LINE",
"811 575 LINE",
"811 590 LINE",
"780 650 LINE"
);
},
{
closed = 1;
nodes = (
"559 596 LINE",
"559 424 LINE",
"648 424 LINE",
"648 596 LINE"
);
}
);
width = 811;
},
{
anchors = (
{
name = bottom;
position = "{557, 0}";
},
{
name = top;
position = "{557, 634}";
}
);
background = {
paths = (
{
closed = 1;
nodes = (
"420 -108 LINE",
"497 -29 LINE",
"419 48 LINE",
"342 -30 LINE"
);
}
);
};
layerId = "E777F328-EA17-4AE7-9EBA-8002E537BA4F";
name = Light;
paths = (
{
closed = 1;
nodes = (
"466 465 OFFCURVE",
"425 424 OFFCURVE",
"382 344 CURVE",
"337 237 OFFCURVE",
"305 145 OFFCURVE",
"208 145 CURVE SMOOTH",
"138 145 OFFCURVE",
"101 189 OFFCURVE",
"101 249 CURVE SMOOTH",
"101 325 OFFCURVE",
"147 406 OFFCURVE",
"234 406 CURVE SMOOTH",
"286 406 OFFCURVE",
"347 355 OFFCURVE",
"385 290 CURVE",
"391 348 LINE",
"354 394 OFFCURVE",
"291 456 OFFCURVE",
"207 456 CURVE SMOOTH",
"133 456 OFFCURVE",
"56 392 OFFCURVE",
"56 281 CURVE SMOOTH",
"56 155 OFFCURVE",
"127 95 OFFCURVE",
"229 95 CURVE SMOOTH",
"309 95 OFFCURVE",
"351 145 OFFCURVE",
"391 220 CURVE",
"434 319 OFFCURVE",
"466 416 OFFCURVE",
"558 416 CURVE SMOOTH",
"627 416 OFFCURVE",
"662 359 OFFCURVE",
"662 295 CURVE SMOOTH",
"662 224 OFFCURVE",
"616 162 OFFCURVE",
"543 162 CURVE SMOOTH",
"483 162 OFFCURVE",
"414 228 OFFCURVE",
"387 279 CURVE",
"381 220 LINE",
"412 182 OFFCURVE",
"479 112 OFFCURVE",
"570 112 CURVE SMOOTH",
"639 112 OFFCURVE",
"707 169 OFFCURVE",
"707 263 CURVE SMOOTH",
"707 394 OFFCURVE",
"644 466 OFFCURVE",
"544 466 CURVE"
);
},
{
closed = 1;
nodes = (
"337 20 LINE",
"400 -43 LINE",
"463 20 LINE",
"400 83 LINE"
);
},
{
closed = 1;
nodes = (
"-29 634 LINE",
"-29 624 LINE",
"-12 590 LINE",
"761 590 LINE",
"761 601 LINE",
"742 634 LINE"
);
},
{
closed = 1;
nodes = (
"533 596 LINE",
"533 424 LINE",
"584 424 LINE",
"584 596 LINE"
);
}
);
width = 761;
},
{
layerId = "B26750D4-52C5-4F85-819B-BFB2F142DAD5";
name = Bold;
paths = (
{
closed = 1;
nodes = (
"482 473 OFFCURVE",
"435 430 OFFCURVE",
"396 344 CURVE",
"344 224 OFFCURVE",
"315 123 OFFCURVE",
"213 123 CURVE SMOOTH",
"148 123 OFFCURVE",
"115 170 OFFCURVE",
"115 224 CURVE SMOOTH",
"115 307 OFFCURVE",
"166 385 OFFCURVE",
"264 385 CURVE SMOOTH",
"320 385 OFFCURVE",
"359 354 OFFCURVE",
"389 322 CURVE",
"413 360 LINE",
"366 399 OFFCURVE",
"303 464 OFFCURVE",
"222 464 CURVE SMOOTH",
"140 464 OFFCURVE",
"53 388 OFFCURVE",
"53 256 CURVE SMOOTH",
"53 156 OFFCURVE",
"151 52 OFFCURVE",
"254 52 CURVE SMOOTH",
"339 52 OFFCURVE",
"389 102 OFFCURVE",
"427 195 CURVE",
"477 312 OFFCURVE",
"505 405 OFFCURVE",
"603 405 CURVE SMOOTH",
"658 405 OFFCURVE",
"701 358 OFFCURVE",
"701 305 CURVE SMOOTH",
"701 229 OFFCURVE",
"627 148 OFFCURVE",
"566 148 CURVE SMOOTH",
"504 148 OFFCURVE",
"459 182 OFFCURVE",
"429 222 CURVE",
"414 179 LINE",
"446 137 OFFCURVE",
"520 69 OFFCURVE",
"598 69 CURVE SMOOTH",
"681 69 OFFCURVE",
"758 141 OFFCURVE",
"758 263 CURVE SMOOTH",
"758 389 OFFCURVE",
"659 474 OFFCURVE",
"559 474 CURVE"
);
},
{
closed = 1;
nodes = (
"342 -30 LINE",
"420 -108 LINE",
"497 -29 LINE",
"419 48 LINE"
);
},
{
closed = 1;
nodes = (
"-31 650 LINE",
"-31 634 LINE",
"0 575 LINE",
"811 575 LINE",
"811 590 LINE",
"780 650 LINE"
);
},
{
closed = 1;
nodes = (
"559 596 LINE",
"559 424 LINE",
"648 424 LINE",
"648 596 LINE"
);
}
);
width = 811;
}
);
unicode = 0934;
},
{
glyphname = "va-deva";
lastChange = "2014-07-15 10:05:15 +0100";
layers = (
{
anchors = (
{
name = bottom;
position = "{508, 0}";
},
{
name = top;
position = "{508, 650}";
}
);
layerId = "39185045-6A8C-415A-8312-7B8F11386A4C";
name = Regular;
paths = (
{
closed = 1;
nodes = (
"-31 650 LINE",
"-31 634 LINE",
"0 575 LINE",
"464 575 LINE",
"464 357 LINE",
"432 357 LINE",
"464 326 LINE",
"464 246 LINE",
"430 198 LINE",
"465 176 LINE",
"462 0 LINE",
"536 -42 LINE",
"551 -42 LINE",
"551 575 LINE",
"661 575 LINE",
"661 590 LINE",
"630 650 LINE"
);
},
{
closed = 1;
nodes = (
"162 485 OFFCURVE",
"66 410 OFFCURVE",
"66 278 CURVE SMOOTH",
"66 159 OFFCURVE",
"170 93 OFFCURVE",
"272 93 CURVE SMOOTH",
"346 93 OFFCURVE",
"415 143 OFFCURVE",
"481 192 CURVE",
"482 319 LINE",
"434 247 OFFCURVE",
"320 164 OFFCURVE",
"231 164 CURVE SMOOTH",
"167 164 OFFCURVE",
"115 201 OFFCURVE",
"115 256 CURVE SMOOTH",
"115 320 OFFCURVE",
"189 397 OFFCURVE",
"296 397 CURVE SMOOTH",
"362 397 OFFCURVE",
"448 334 OFFCURVE",
"483 266 CURVE",
"480 332 LINE",
"436 398 OFFCURVE",
"345 485 OFFCURVE",
"245 485 CURVE SMOOTH"
);
}
);
width = 661;
},
{
anchors = (
{
name = bottom;
position = "{483, 0}";
},
{
name = top;
position = "{483, 634}";
}
);
background = {
anchors = (
{
name = top;
position = "{487, 634}";
},
{
name = bottom;
position = "{487, 0}";
}
);
paths = (
{
closed = 1;
nodes = (
"-31 650 LINE",
"-31 634 LINE",
"0 575 LINE",
"464 575 LINE",
"464 357 LINE",
"432 357 LINE",
"464 326 LINE",
"464 246 LINE",
"430 198 LINE",
"465 176 LINE",
"462 0 LINE",
"536 -42 LINE",
"551 -42 LINE",
"551 575 LINE",
"661 575 LINE",
"661 590 LINE",
"630 650 LINE"
);
},
{
closed = 1;
nodes = (
"162 485 OFFCURVE",
"66 410 OFFCURVE",
"66 278 CURVE SMOOTH",
"66 159 OFFCURVE",
"170 93 OFFCURVE",
"272 93 CURVE SMOOTH",
"346 93 OFFCURVE",
"415 143 OFFCURVE",
"481 192 CURVE",
"482 319 LINE",
"434 247 OFFCURVE",
"320 164 OFFCURVE",
"231 164 CURVE SMOOTH",
"167 164 OFFCURVE",
"115 201 OFFCURVE",
"115 256 CURVE SMOOTH",
"115 320 OFFCURVE",
"189 397 OFFCURVE",
"296 397 CURVE SMOOTH",
"362 397 OFFCURVE",
"448 334 OFFCURVE",
"483 266 CURVE",
"480 332 LINE",
"436 398 OFFCURVE",
"345 485 OFFCURVE",
"245 485 CURVE SMOOTH"
);
}
);
};
layerId = "E777F328-EA17-4AE7-9EBA-8002E537BA4F";
name = Light;
paths = (
{
closed = 1;
nodes = (
"-29 634 LINE",
"-29 624 LINE",
"-12 590 LINE",
"457 590 LINE",
"457 344 LINE",
"446 344 LINE",
"457 324 LINE",
"457 226 LINE",
"448 213 LINE",
"457 211 LINE",
"456 13 LINE",
"499 -11 LINE",
"510 -11 LINE",
"510 590 LINE",
"626 590 LINE",
"626 601 LINE",
"607 634 LINE"
);
},
{
closed = 1;
nodes = (
"166 461 OFFCURVE",
"66 402 OFFCURVE",
"66 280 CURVE SMOOTH",
"66 167 OFFCURVE",
"163 113 OFFCURVE",
"253 113 CURVE SMOOTH",
"328 113 OFFCURVE",
"413 165 OFFCURVE",
"467 223 CURVE",
"470 297 LINE",
"423 234 OFFCURVE",
"322 163 OFFCURVE",
"233 163 CURVE SMOOTH",
"159 163 OFFCURVE",
"111 209 OFFCURVE",
"111 260 CURVE SMOOTH",
"111 337 OFFCURVE",
"172 411 OFFCURVE",
"268 411 CURVE SMOOTH",
"347 411 OFFCURVE",
"440 318 OFFCURVE",
"464 269 CURVE",
"466 330 LINE",
"434 378 OFFCURVE",
"357 461 OFFCURVE",
"248 461 CURVE SMOOTH"
);
}
);
width = 626;
},
{
layerId = "B26750D4-52C5-4F85-819B-BFB2F142DAD5";
name = Bold;
paths = (
{
closed = 1;
nodes = (
"-56 669 LINE",
"-56 647 LINE",
"-9 556 LINE",
"441 556 LINE",
"441 375 LINE",
"418 375 LINE",
"441 337 LINE",
"441 184 LINE",
"429 152 LINE",
"443 149 LINE",
"434 29 LINE",
"553 -37 LINE",
"575 -37 LINE",
"575 556 LINE",
"665 556 LINE",
"665 577 LINE",
"616 669 LINE"
);
},
{
closed = 1;
nodes = (
"136 501 OFFCURVE",
"45 422 OFFCURVE",
"45 283 CURVE SMOOTH",
"45 151 OFFCURVE",
"155 81 OFFCURVE",
"248 81 CURVE SMOOTH",
"338 81 OFFCURVE",
"396 120 OFFCURVE",
"460 165 CURVE",
"460 320 LINE",
"412 259 OFFCURVE",
"295 186 OFFCURVE",
"205 186 CURVE SMOOTH",
"131 186 OFFCURVE",
"93 220 OFFCURVE",
"93 260 CURVE SMOOTH",
"93 314 OFFCURVE",
"179 382 OFFCURVE",
"290 382 CURVE SMOOTH",
"352 382 OFFCURVE",
"427 325 OFFCURVE",
"458 279 CURVE",
"458 352 LINE",
"428 392 OFFCURVE",
"342 501 OFFCURVE",
"241 501 CURVE SMOOTH"
);
}
);
width = 665;
}
);
unicode = 0935;
},
{
glyphname = "sha-deva";
lastChange = "2014-07-08 13:04:55 +0100";
layers = (
{
anchors = (
{
name = bottom;
position = "{589, 0}";
},
{
name = top;
position = "{589, 650}";
}
);
background = {
paths = (
{
closed = 1;
nodes = (
"545 -1 LINE",
"617 -42 LINE",
"633 -42 LINE",
"633 575 LINE",
"743 575 LINE",
"743 590 LINE",
"711 650 LINE",
"-31 650 LINE",
"-31 634 LINE",
"0 575 LINE",
"112 575 LINE",
"107 561 OFFCURVE",
"104 548 OFFCURVE",
"104 531 CURVE SMOOTH",
"104 434 OFFCURVE",
"195 354 OFFCURVE",
"282 318 CURVE",
"256 281 OFFCURVE",
"219 250 OFFCURVE",
"178 233 CURVE",
"168 313 LINE",
"161 316 OFFCURVE",
"152 318 OFFCURVE",
"139 318 CURVE SMOOTH",
"99 318 OFFCURVE",
"51 292 OFFCURVE",
"51 244 CURVE SMOOTH",
"51 207 OFFCURVE",
"106 176 OFFCURVE",
"146 165 CURVE",
"340 -58 LINE",
"394 -17 LINE",
"210 167 LINE",
"311 195 OFFCURVE",
"412 325 OFFCURVE",
"412 455 CURVE SMOOTH",
"412 506 OFFCURVE",
"393 546 OFFCURVE",
"367 575 CURVE",
"545 575 LINE"
);
},
{
closed = 1;
nodes = (
"181 552 OFFCURVE",
"209 574 OFFCURVE",
"245 574 CURVE SMOOTH",
"305 574 OFFCURVE",
"340 525 OFFCURVE",
"340 477 CURVE SMOOTH",
"340 442 OFFCURVE",
"330 401 OFFCURVE",
"310 363 CURVE",
"251 385 OFFCURVE",
"181 443 OFFCURVE",
"181 507 CURVE SMOOTH"
);
}
);
};
layerId = "39185045-6A8C-415A-8312-7B8F11386A4C";
name = Regular;
paths = (
{
closed = 1;
nodes = (
"151 632 OFFCURVE",
"104 594 OFFCURVE",
"104 531 CURVE SMOOTH",
"104 434 OFFCURVE",
"196 352 OFFCURVE",
"287 316 CURVE",
"315 361 LINE",
"253 383 OFFCURVE",
"181 443 OFFCURVE",
"181 507 CURVE SMOOTH",
"181 552 OFFCURVE",
"209 574 OFFCURVE",
"245 574 CURVE SMOOTH",
"305 574 OFFCURVE",
"340 525 OFFCURVE",
"340 477 CURVE SMOOTH",
"340 387 OFFCURVE",
"272 268 OFFCURVE",
"173 231 CURVE",
"183 193 LINE",
"168 313 LINE",
"161 316 OFFCURVE",
"152 318 OFFCURVE",
"139 318 CURVE SMOOTH",
"99 318 OFFCURVE",
"51 292 OFFCURVE",
"51 244 CURVE SMOOTH",
"51 199 OFFCURVE",
"136 161 OFFCURVE",
"167 161 CURVE",
"292 161 OFFCURVE",
"412 317 OFFCURVE",
"412 455 CURVE SMOOTH",
"412 555 OFFCURVE",
"343 632 OFFCURVE",
"204 632 CURVE"
);
},
{
closed = 1;
nodes = (
"340 -58 LINE",
"394 -17 LINE",
"205 172 LINE",
"133 180 LINE"
);
},
{
closed = 1;
nodes = (
"545 605 LINE",
"545 -1 LINE",
"617 -42 LINE",
"633 -42 LINE",
"633 605 LINE"
);
},
{
closed = 1;
nodes = (
"-31 650 LINE",
"-31 634 LINE",
"0 575 LINE",
"743 575 LINE",
"743 590 LINE",
"711 650 LINE"
);
}
);
width = 743;
},
{
anchors = (
{
name = bottom;
position = "{554, 0}";
},
{
name = top;
position = "{554, 634}";
}
);
background = {
paths = (
{
closed = 1;
nodes = (
"-21 772 LINE",
"-21 762 LINE",
"-4 728 LINE",
"324 728 LINE",
"324 619 LINE",
"173 619 LINE SMOOTH",
"117 619 OFFCURVE",
"84 581 OFFCURVE",
"84 521 CURVE SMOOTH",
"84 467 OFFCURVE",
"151 383 OFFCURVE",
"205 383 CURVE SMOOTH",
"253 383 OFFCURVE",
"312 411 OFFCURVE",
"345 411 CURVE",
"357 405 OFFCURVE",
"380 379 OFFCURVE",
"380 334 CURVE SMOOTH",
"380 253 OFFCURVE",
"271 225 OFFCURVE",
"166 225 CURVE",
"178 299 LINE",
"170 302 OFFCURVE",
"160 303 OFFCURVE",
"151 303 CURVE SMOOTH",
"118 303 OFFCURVE",
"74 282 OFFCURVE",
"74 240 CURVE SMOOTH",
"74 195 OFFCURVE",
"144 181 OFFCURVE",
"217 181 CURVE SMOOTH",
"328 181 OFFCURVE",
"430 242 OFFCURVE",
"430 309 CURVE SMOOTH",
"430 372 OFFCURVE",
"389 455 OFFCURVE",
"329 455 CURVE SMOOTH",
"294 455 OFFCURVE",
"236 427 OFFCURVE",
"188 427 CURVE SMOOTH",
"168 427 OFFCURVE",
"134 462 OFFCURVE",
"134 500 CURVE SMOOTH",
"134 535 OFFCURVE",
"147 575 OFFCURVE",
"194 575 CURVE SMOOTH",
"378 575 LINE",
"378 728 LINE",
"580 728 LINE",
"579 149 LINE",
"622 127 LINE",
"634 127 LINE",
"634 728 LINE",
"750 728 LINE",
"750 739 LINE",
"731 772 LINE"
);
},
{
closed = 1;
nodes = (
"115 201 LINE",
"285 7 LINE SMOOTH",
"329 40 LINE SMOOTH",
"159 198 LINE"
);
},
{
closed = 0;
nodes = (
"304 -15 LINE SMOOTH",
"348 18 LINE SMOOTH"
);
}
);
};
layerId = "E777F328-EA17-4AE7-9EBA-8002E537BA4F";
name = Light;
paths = (
{
closed = 1;
nodes = (
"160 634 OFFCURVE",
"116 591 OFFCURVE",
"116 524 CURVE SMOOTH",
"116 427 OFFCURVE",
"214 360 OFFCURVE",
"320 324 CURVE",
"341 366 LINE",
"266 381 OFFCURVE",
"166 444 OFFCURVE",
"166 512 CURVE SMOOTH",
"166 565 OFFCURVE",
"203 590 OFFCURVE",
"240 590 CURVE SMOOTH",
"303 590 OFFCURVE",
"348 529 OFFCURVE",
"348 472 CURVE SMOOTH",
"348 361 OFFCURVE",
"270 265 OFFCURVE",
"153 224 CURVE",
"160 205 LINE",
"148 303 LINE",
"141 306 OFFCURVE",
"132 308 OFFCURVE",
"119 308 CURVE SMOOTH",
"89 308 OFFCURVE",
"51 285 OFFCURVE",
"51 239 CURVE SMOOTH",
"51 214 OFFCURVE",
"82 181 OFFCURVE",
"147 181 CURVE",
"255 181 OFFCURVE",
"398 324 OFFCURVE",
"398 452 CURVE SMOOTH",
"398 558 OFFCURVE",
"314 634 OFFCURVE",
"220 634 CURVE"
);
},
{
closed = 1;
nodes = (
"304 -15 LINE",
"348 18 LINE",
"159 198 LINE",
"115 201 LINE"
);
},
{
closed = 1;
nodes = (
"528 610 LINE",
"527 13 LINE",
"570 -11 LINE",
"582 -11 LINE",
"582 610 LINE"
);
},
{
closed = 1;
nodes = (
"-29 634 LINE",
"-29 624 LINE",
"-12 590 LINE",
"698 590 LINE",
"698 601 LINE",
"679 634 LINE"
);
}
);
width = 698;
},
{
layerId = "B26750D4-52C5-4F85-819B-BFB2F142DAD5";
name = Bold;
paths = (
{
closed = 1;
nodes = (
"151 632 OFFCURVE",
"104 594 OFFCURVE",
"104 531 CURVE SMOOTH",
"104 434 OFFCURVE",
"196 352 OFFCURVE",
"287 316 CURVE",
"315 361 LINE",
"253 383 OFFCURVE",
"181 443 OFFCURVE",
"181 507 CURVE SMOOTH",
"181 552 OFFCURVE",
"209 574 OFFCURVE",
"245 574 CURVE SMOOTH",
"305 574 OFFCURVE",
"340 525 OFFCURVE",
"340 477 CURVE SMOOTH",
"340 387 OFFCURVE",
"272 268 OFFCURVE",
"173 231 CURVE",
"183 193 LINE",
"168 313 LINE",
"161 316 OFFCURVE",
"152 318 OFFCURVE",
"139 318 CURVE SMOOTH",
"99 318 OFFCURVE",
"51 292 OFFCURVE",
"51 244 CURVE SMOOTH",
"51 199 OFFCURVE",
"136 161 OFFCURVE",
"167 161 CURVE",
"292 161 OFFCURVE",
"412 317 OFFCURVE",
"412 455 CURVE SMOOTH",
"412 555 OFFCURVE",
"343 632 OFFCURVE",
"204 632 CURVE"
);
},
{
closed = 1;
nodes = (
"340 -58 LINE",
"394 -17 LINE",
"205 172 LINE",
"133 180 LINE"
);
},
{
closed = 1;
nodes = (
"545 605 LINE",
"545 -1 LINE",
"617 -42 LINE",
"633 -42 LINE",
"633 605 LINE"
);
},
{
closed = 1;
nodes = (
"-31 650 LINE",
"-31 634 LINE",
"0 575 LINE",
"743 575 LINE",
"743 590 LINE",
"711 650 LINE"
);
}
);
width = 743;
}
);
unicode = 0936;
},
{
glyphname = "ssa-deva";
lastChange = "2014-07-17 11:45:11 +0100";
layers = (
{
anchors = (
{
name = bottom;
position = "{464, 0}";
},
{
name = top;
position = "{464, 650}";
}
);
layerId = "39185045-6A8C-415A-8312-7B8F11386A4C";
name = Regular;
paths = (
{
closed = 1;
nodes = (
"-31 650 LINE",
"-31 634 LINE",
"0 575 LINE",
"87 575 LINE",
"87 309 LINE SMOOTH",
"87 272 OFFCURVE",
"108 243 OFFCURVE",
"144 208 CURVE SMOOTH",
"183 170 OFFCURVE",
"234 129 OFFCURVE",
"279 129 CURVE SMOOTH",
"335 129 OFFCURVE",
"385 160 OFFCURVE",
"418 180 CURVE",
"449 180 LINE",
"437 295 LINE",
"400 261 OFFCURVE",
"329 211 OFFCURVE",
"263 211 CURVE SMOOTH",
"230 211 OFFCURVE",
"176 224 OFFCURVE",
"176 294 CURVE SMOOTH",
"176 575 LINE",
"420 575 LINE",
"420 -1 LINE",
"492 -42 LINE",
"508 -42 LINE",
"508 575 LINE",
"617 575 LINE",
"617 590 LINE",
"586 650 LINE"
);
},
{
closed = 1;
nodes = (
"159 542 LINE",
"430 256 LINE",
"436 300 LINE",
"159 592 LINE"
);
}
);
width = 617;
},
{
anchors = (
{
name = bottom;
position = "{417, 0}";
},
{
name = top;
position = "{417, 634}";
}
);
background = {
paths = (
{
closed = 1;
nodes = (
"-52 650 LINE",
"-52 634 LINE",
"-21 575 LINE",
"66 575 LINE",
"66 309 LINE SMOOTH",
"66 272 OFFCURVE",
"87 243 OFFCURVE",
"123 208 CURVE SMOOTH",
"162 170 OFFCURVE",
"213 129 OFFCURVE",
"258 129 CURVE SMOOTH",
"314 129 OFFCURVE",
"364 160 OFFCURVE",
"397 180 CURVE",
"428 180 LINE",
"416 295 LINE",
"379 261 OFFCURVE",
"308 211 OFFCURVE",
"242 211 CURVE SMOOTH",
"209 211 OFFCURVE",
"155 224 OFFCURVE",
"155 294 CURVE SMOOTH",
"155 575 LINE",
"399 575 LINE",
"399 -1 LINE",
"471 -42 LINE",
"487 -42 LINE",
"487 575 LINE",
"596 575 LINE",
"596 590 LINE",
"565 650 LINE"
);
},
{
closed = 1;
nodes = (
"138 542 LINE",
"409 256 LINE",
"415 300 LINE",
"138 592 LINE"
);
},
{
closed = 0;
nodes = (
"240 221 LINE",
"259 123 LINE"
);
}
);
};
layerId = "E777F328-EA17-4AE7-9EBA-8002E537BA4F";
name = Light;
paths = (
{
closed = 1;
nodes = (
"-29 634 LINE",
"-29 624 LINE",
"-11 590 LINE",
"94 590 LINE",
"94 320 LINE SMOOTH",
"94 261 OFFCURVE",
"109 239 OFFCURVE",
"132 216 CURVE SMOOTH",
"177 176 OFFCURVE",
"213 166 OFFCURVE",
"256 166 CURVE SMOOTH",
"307 166 OFFCURVE",
"360 199 OFFCURVE",
"388 217 CURVE",
"399 217 LINE",
"394 282 LINE",
"353 250 OFFCURVE",
"294 216 OFFCURVE",
"246 216 CURVE SMOOTH",
"185 216 OFFCURVE",
"148 252 OFFCURVE",
"148 319 CURVE SMOOTH",
"148 590 LINE",
"391 590 LINE",
"390 13 LINE",
"432 -11 LINE",
"444 -11 LINE",
"444 590 LINE",
"561 590 LINE",
"561 601 LINE",
"541 634 LINE"
);
},
{
closed = 1;
nodes = (
"130 558 LINE",
"402 267 LINE",
"426 294 LINE",
"148 590 LINE"
);
}
);
width = 561;
},
{
layerId = "B26750D4-52C5-4F85-819B-BFB2F142DAD5";
name = Bold;
paths = (
{
closed = 1;
nodes = (
"-31 650 LINE",
"-31 634 LINE",
"0 575 LINE",
"87 575 LINE",
"87 309 LINE SMOOTH",
"87 272 OFFCURVE",
"108 243 OFFCURVE",
"144 208 CURVE SMOOTH",
"183 170 OFFCURVE",
"234 129 OFFCURVE",
"279 129 CURVE SMOOTH",
"335 129 OFFCURVE",
"385 160 OFFCURVE",
"418 180 CURVE",
"449 180 LINE",
"437 295 LINE",
"400 261 OFFCURVE",
"329 211 OFFCURVE",
"263 211 CURVE SMOOTH",
"230 211 OFFCURVE",
"176 224 OFFCURVE",
"176 294 CURVE SMOOTH",
"176 575 LINE",
"420 575 LINE",
"420 -1 LINE",
"492 -42 LINE",
"508 -42 LINE",
"508 575 LINE",
"617 575 LINE",
"617 590 LINE",
"586 650 LINE"
);
},
{
closed = 1;
nodes = (
"159 542 LINE",
"430 256 LINE",
"436 300 LINE",
"159 592 LINE"
);
}
);
width = 617;
}
);
unicode = 0937;
},
{
glyphname = "sa-deva";
lastChange = "2014-07-10 11:57:37 +0100";
layers = (
{
anchors = (
{
name = bottom;
position = "{549, 0}";
},
{
name = top;
position = "{549, 650}";
}
);
background = {
paths = (
{
closed = 1;
nodes = (
"74 650 LINE",
"74 634 LINE",
"105 575 LINE",
"192 575 LINE",
"192 342 LINE SMOOTH",
"192 305 OFFCURVE",
"213 271 OFFCURVE",
"249 236 CURVE SMOOTH",
"288 198 OFFCURVE",
"329 166 OFFCURVE",
"375 166 CURVE SMOOTH",
"431 166 OFFCURVE",
"471 187 OFFCURVE",
"504 208 CURVE",
"526 208 LINE",
"516 316 LINE",
"487 287 OFFCURVE",
"423 248 OFFCURVE",
"359 248 CURVE SMOOTH",
"326 248 OFFCURVE",
"281 257 OFFCURVE",
"281 326 CURVE SMOOTH",
"281 575 LINE",
"506 575 LINE",
"506 -1 LINE",
"578 -42 LINE",
"594 -42 LINE",
"594 575 LINE",
"703 575 LINE",
"703 590 LINE",
"672 650 LINE"
);
}
);
};
layerId = "39185045-6A8C-415A-8312-7B8F11386A4C";
name = Regular;
paths = (
{
closed = 1;
nodes = (
"-31 650 LINE",
"-31 634 LINE",
"0 575 LINE",
"506 575 LINE",
"506 -1 LINE",
"578 -42 LINE",
"594 -42 LINE",
"594 575 LINE",
"704 575 LINE",
"704 590 LINE",
"672 650 LINE"
);
},
{
closed = 1;
nodes = (
"396 -10 LINE",
"187 211 LINE",
"237 256 OFFCURVE",
"280 314 OFFCURVE",
"280 404 CURVE SMOOTH",
"280 466 OFFCURVE",
"270 542 OFFCURVE",
"261 585 CURVE",
"186 585 LINE",
"194 549 OFFCURVE",
"199 482 OFFCURVE",
"199 450 CURVE SMOOTH",
"199 407 OFFCURVE",
"184 358 OFFCURVE",
"174 340 CURVE",
"119 382 LINE",
"100 370 OFFCURVE",
"66 340 OFFCURVE",
"66 306 CURVE SMOOTH",
"66 272 OFFCURVE",
"89 250 OFFCURVE",
"126 207 CURVE SMOOTH",
"347 -47 LINE"
);
},
{
closed = 1;
nodes = (
"490 306 OFFCURVE",
"452 288 OFFCURVE",
"383 288 CURVE SMOOTH",
"339 288 OFFCURVE",
"288 307 OFFCURVE",
"257 329 CURVE",
"224 276 LINE",
"247 276 LINE",
"276 252 OFFCURVE",
"340 207 OFFCURVE",
"406 207 CURVE SMOOTH",
"428 207 OFFCURVE",
"466 210 OFFCURVE",
"504 224 CURVE",
"535 224 LINE",
"514 324 LINE"
);
}
);
width = 704;
},
{
anchors = (
{
name = bottom;
position = "{487, 0}";
},
{
name = top;
position = "{487, 634}";
}
);
background = {
paths = (
{
closed = 1;
nodes = (
"-76 650 LINE",
"-76 634 LINE",
"-45 575 LINE",
"461 575 LINE",
"461 -1 LINE",
"533 -42 LINE",
"549 -42 LINE",
"549 575 LINE",
"659 575 LINE",
"659 590 LINE",
"627 650 LINE"
);
},
{
closed = 1;
nodes = (
"351 -10 LINE",
"142 211 LINE",
"192 256 OFFCURVE",
"235 314 OFFCURVE",
"235 404 CURVE SMOOTH",
"235 466 OFFCURVE",
"225 542 OFFCURVE",
"216 585 CURVE",
"141 585 LINE",
"149 549 OFFCURVE",
"154 482 OFFCURVE",
"154 450 CURVE SMOOTH",
"154 407 OFFCURVE",
"139 358 OFFCURVE",
"129 340 CURVE",
"74 382 LINE",
"55 370 OFFCURVE",
"21 340 OFFCURVE",
"21 306 CURVE SMOOTH",
"21 272 OFFCURVE",
"44 250 OFFCURVE",
"81 207 CURVE SMOOTH",
"302 -47 LINE"
);
},
{
closed = 1;
nodes = (
"445 306 OFFCURVE",
"407 288 OFFCURVE",
"338 288 CURVE SMOOTH",
"294 288 OFFCURVE",
"243 307 OFFCURVE",
"212 329 CURVE",
"179 276 LINE",
"202 276 LINE",
"231 252 OFFCURVE",
"295 207 OFFCURVE",
"361 207 CURVE SMOOTH",
"383 207 OFFCURVE",
"421 210 OFFCURVE",
"459 224 CURVE",
"490 224 LINE",
"469 324 LINE"
);
}
);
};
layerId = "E777F328-EA17-4AE7-9EBA-8002E537BA4F";
name = Light;
paths = (
{
closed = 1;
nodes = (
"-29 634 LINE",
"-29 624 LINE",
"-12 590 LINE",
"461 590 LINE",
"460 13 LINE",
"502 -11 LINE",
"515 -11 LINE",
"515 590 LINE",
"631 590 LINE",
"631 601 LINE",
"613 634 LINE"
);
},
{
closed = 1;
nodes = (
"353 14 LINE",
"143 236 LINE",
"189 274 OFFCURVE",
"236 326 OFFCURVE",
"236 412 CURVE SMOOTH",
"236 450 OFFCURVE",
"230 535 OFFCURVE",
"217 601 CURVE",
"167 601 LINE",
"179 557 OFFCURVE",
"186 484 OFFCURVE",
"186 440 CURVE SMOOTH",
"186 399 OFFCURVE",
"177 366 OFFCURVE",
"154 330 CURVE",
"106 372 LINE",
"90 366 OFFCURVE",
"67 346 OFFCURVE",
"67 323 CURVE SMOOTH",
"67 287 OFFCURVE",
"82 250 OFFCURVE",
"131 194 CURVE SMOOTH",
"314 -15 LINE"
);
},
{
closed = 1;
nodes = (
"425 287 OFFCURVE",
"380 272 OFFCURVE",
"337 272 CURVE SMOOTH",
"276 272 OFFCURVE",
"237 301 OFFCURVE",
"206 325 CURVE",
"183 287 LINE",
"195 287 LINE",
"225 264 OFFCURVE",
"272 222 OFFCURVE",
"352 222 CURVE SMOOTH",
"374 222 OFFCURVE",
"416 227 OFFCURVE",
"457 249 CURVE",
"469 249 LINE",
"463 312 LINE"
);
}
);
width = 631;
},
{
layerId = "B26750D4-52C5-4F85-819B-BFB2F142DAD5";
name = Bold;
paths = (
{
closed = 1;
nodes = (
"-56 669 LINE",
"-56 647 LINE",
"-9 556 LINE",
"483 556 LINE",
"483 26 LINE",
"594 -37 LINE",
"617 -37 LINE",
"617 556 LINE",
"707 556 LINE",
"707 577 LINE",
"658 669 LINE"
);
},
{
closed = 1;
nodes = (
"399 11 LINE",
"186 195 LINE",
"230 236 OFFCURVE",
"304 312 OFFCURVE",
"304 409 CURVE SMOOTH",
"304 454 OFFCURVE",
"298 524 OFFCURVE",
"286 580 CURVE",
"166 590 LINE",
"172 550 OFFCURVE",
"176 497 OFFCURVE",
"176 466 CURVE SMOOTH",
"176 424 OFFCURVE",
"167 386 OFFCURVE",
"157 369 CURVE",
"98 400 LINE",
"77 388 OFFCURVE",
"44 355 OFFCURVE",
"44 322 CURVE SMOOTH",
"44 286 OFFCURVE",
"72 251 OFFCURVE",
"105 212 CURVE SMOOTH",
"328 -42 LINE"
);
},
{
closed = 1;
nodes = (
"487 329 OFFCURVE",
"449 310 OFFCURVE",
"380 310 CURVE SMOOTH",
"336 310 OFFCURVE",
"285 330 OFFCURVE",
"254 351 CURVE",
"247 290 LINE",
"269 290 LINE",
"299 239 OFFCURVE",
"356 184 OFFCURVE",
"403 184 CURVE SMOOTH",
"424 184 OFFCURVE",
"453 188 OFFCURVE",
"481 197 CURVE",
"512 197 LINE",
"511 346 LINE"
);
}
);
width = 707;
}
);
unicode = 0938;
},
